%TF.GenerationSoftware,KiCad,Pcbnew,9.0.1*%
%TF.CreationDate,2025-05-06T22:51:06-07:00*%
%TF.ProjectId,picow_motor_driver,7069636f-775f-46d6-9f74-6f725f647269,rev?*%
%TF.SameCoordinates,Original*%
%TF.FileFunction,Copper,L2,Bot*%
%TF.FilePolarity,Positive*%
%FSLAX46Y46*%
G04 Gerber Fmt 4.6, Leading zero omitted, Abs format (unit mm)*
G04 Created by KiCad (PCBNEW 9.0.1) date 2025-05-06 22:51:06*
%MOMM*%
%LPD*%
G01*
G04 APERTURE LIST*
%TA.AperFunction,ComponentPad*%
%ADD10R,1.650000X1.650000*%
%TD*%
%TA.AperFunction,ComponentPad*%
%ADD11C,1.650000*%
%TD*%
%TA.AperFunction,ComponentPad*%
%ADD12C,1.515000*%
%TD*%
%TA.AperFunction,ComponentPad*%
%ADD13C,1.875000*%
%TD*%
%TA.AperFunction,ComponentPad*%
%ADD14O,1.700000X1.700000*%
%TD*%
%TA.AperFunction,ComponentPad*%
%ADD15R,1.700000X1.700000*%
%TD*%
%TA.AperFunction,ComponentPad*%
%ADD16C,1.700000*%
%TD*%
%TA.AperFunction,ComponentPad*%
%ADD17R,1.400000X1.400000*%
%TD*%
%TA.AperFunction,ComponentPad*%
%ADD18C,1.400000*%
%TD*%
%TA.AperFunction,ViaPad*%
%ADD19C,1.200000*%
%TD*%
%TA.AperFunction,ViaPad*%
%ADD20C,0.600000*%
%TD*%
%TA.AperFunction,Conductor*%
%ADD21C,0.800000*%
%TD*%
%TA.AperFunction,Conductor*%
%ADD22C,0.200000*%
%TD*%
G04 APERTURE END LIST*
D10*
X168000000Y-74500000D03*
D11*
X165500000Y-74500000D03*
X163000000Y-74500000D03*
X160500000Y-74500000D03*
X158000000Y-74500000D03*
D12*
X149500000Y-95000000D03*
D13*
X148500000Y-97700000D03*
X155500000Y-97700000D03*
D12*
X154500000Y-95000000D03*
D14*
X103840000Y-86390000D03*
X106380000Y-86390000D03*
D15*
X108920000Y-86390000D03*
D14*
X111460000Y-86390000D03*
X114000000Y-86390000D03*
X116540000Y-86390000D03*
X119080000Y-86390000D03*
D15*
X121620000Y-86390000D03*
D14*
X124160000Y-86390000D03*
X126700000Y-86390000D03*
X129240000Y-86390000D03*
X131780000Y-86390000D03*
D15*
X134320000Y-86390000D03*
D14*
X136860000Y-86390000D03*
X139400000Y-86390000D03*
X141940000Y-86390000D03*
X144480000Y-86390000D03*
D15*
X147020000Y-86390000D03*
D14*
X149560000Y-86390000D03*
X152100000Y-86390000D03*
X152100000Y-68610000D03*
X149560000Y-68610000D03*
D15*
X147020000Y-68610000D03*
D14*
X144480000Y-68610000D03*
X141940000Y-68610000D03*
X139400000Y-68610000D03*
X136860000Y-68610000D03*
D15*
X134320000Y-68610000D03*
D14*
X131780000Y-68610000D03*
X129240000Y-68610000D03*
X126700000Y-68610000D03*
X124160000Y-68610000D03*
D15*
X121620000Y-68610000D03*
D14*
X119080000Y-68610000D03*
X116540000Y-68610000D03*
X114000000Y-68610000D03*
X111460000Y-68610000D03*
D15*
X108920000Y-68610000D03*
D14*
X106380000Y-68610000D03*
X103840000Y-68610000D03*
X151870000Y-80040000D03*
D15*
X151870000Y-77500000D03*
D14*
X151870000Y-74960000D03*
D15*
X144500000Y-95775000D03*
D16*
X144500000Y-93235000D03*
D17*
X161000000Y-90500000D03*
D18*
X163500000Y-90500000D03*
X166000000Y-90500000D03*
X168500000Y-90500000D03*
D19*
X164500000Y-82500000D03*
X117000000Y-97815000D03*
X130065000Y-97750000D03*
X123330000Y-97750000D03*
X166500000Y-84622625D03*
D20*
X157000000Y-87750000D03*
D19*
X127300000Y-76200000D03*
X138479271Y-79795189D03*
X136496403Y-79766996D03*
X151000000Y-93000000D03*
X147000000Y-74400000D03*
X138500000Y-83100000D03*
X155100000Y-86700000D03*
X155100000Y-88900000D03*
X152700000Y-93000000D03*
X127300000Y-74800000D03*
X145500000Y-72900000D03*
X136500000Y-83100000D03*
X142300000Y-76100000D03*
X135200000Y-76200000D03*
X135200000Y-74800000D03*
X143800000Y-77600000D03*
X164500000Y-78500000D03*
X164500000Y-80500000D03*
D20*
X130500000Y-82697000D03*
X127315000Y-90250000D03*
X149500000Y-79500000D03*
X139500000Y-72250000D03*
X114815000Y-90250000D03*
X132000000Y-72250000D03*
X147889997Y-79500000D03*
X126300000Y-82697000D03*
X121065000Y-90250000D03*
X128000000Y-82697000D03*
X136750000Y-72250000D03*
X148690000Y-79500000D03*
D21*
X161500000Y-75500000D02*
X161500000Y-79500000D01*
X160500000Y-74500000D02*
X161500000Y-75500000D01*
X161500000Y-79500000D02*
X164500000Y-82500000D01*
X163000000Y-79000000D02*
X163000000Y-74500000D01*
X164500000Y-80500000D02*
X163000000Y-79000000D01*
X164500000Y-75500000D02*
X165500000Y-74500000D01*
X164500000Y-78500000D02*
X164500000Y-75500000D01*
D22*
X149500000Y-80250000D02*
X149500000Y-79500000D01*
X128250000Y-90250000D02*
X130500000Y-88000000D01*
X158149000Y-81399000D02*
X150649000Y-81399000D01*
X139500000Y-68710000D02*
X139400000Y-68610000D01*
X165500000Y-90000000D02*
X164957814Y-90000000D01*
X139500000Y-72250000D02*
X139500000Y-68710000D01*
X166000000Y-90500000D02*
X165500000Y-90000000D01*
X164957814Y-90000000D02*
X164456814Y-89499000D01*
X150649000Y-81399000D02*
X149500000Y-80250000D01*
X127315000Y-90250000D02*
X128250000Y-90250000D01*
X161000000Y-84250000D02*
X158149000Y-81399000D01*
X164456814Y-89499000D02*
X163538943Y-89499000D01*
X163538943Y-89499000D02*
X161000000Y-86960057D01*
X161000000Y-86960057D02*
X161000000Y-84250000D01*
X130500000Y-88000000D02*
X130500000Y-82697000D01*
X160150000Y-88150000D02*
X160150000Y-84534200D01*
X132000000Y-68830000D02*
X131780000Y-68610000D01*
X157816800Y-82201000D02*
X150316800Y-82201000D01*
X124500000Y-89500000D02*
X125500000Y-88500000D01*
X150316800Y-82201000D02*
X147889997Y-79774197D01*
X161000000Y-89000000D02*
X160150000Y-88150000D01*
X126300000Y-82700000D02*
X126300000Y-82697000D01*
X125500000Y-88500000D02*
X125500000Y-83500000D01*
X147889997Y-79774197D02*
X147889997Y-79500000D01*
X125500000Y-83500000D02*
X126300000Y-82700000D01*
X160150000Y-84534200D02*
X157816800Y-82201000D01*
X116500000Y-89500000D02*
X124500000Y-89500000D01*
X115750000Y-90250000D02*
X116500000Y-89500000D01*
X132000000Y-72250000D02*
X132000000Y-68830000D01*
X115750000Y-90250000D02*
X114815000Y-90250000D01*
X161000000Y-89000000D02*
X161000000Y-90500000D01*
X163500000Y-90500000D02*
X161901000Y-88901000D01*
X136750000Y-72250000D02*
X136750000Y-68720000D01*
X126000000Y-90250000D02*
X121065000Y-90250000D01*
X148690000Y-80007100D02*
X148690000Y-79500000D01*
X128000000Y-82697000D02*
X128000000Y-88250000D01*
X161901000Y-88901000D02*
X161887421Y-88901000D01*
X160551000Y-87564579D02*
X160551000Y-84368100D01*
X150482900Y-81800000D02*
X148690000Y-80007100D01*
X128000000Y-88250000D02*
X126000000Y-90250000D01*
X157982900Y-81800000D02*
X150482900Y-81800000D01*
X136750000Y-68720000D02*
X136860000Y-68610000D01*
X161887421Y-88901000D02*
X160551000Y-87564579D01*
X160551000Y-84368100D02*
X157982900Y-81800000D01*
%TA.AperFunction,Conductor*%
G36*
X156543039Y-85819685D02*
G01*
X156588794Y-85872489D01*
X156600000Y-85924000D01*
X156600000Y-86988238D01*
X156580315Y-87055277D01*
X156544891Y-87091340D01*
X156489711Y-87128210D01*
X156489707Y-87128213D01*
X156378213Y-87239707D01*
X156378210Y-87239711D01*
X156290609Y-87370814D01*
X156290602Y-87370827D01*
X156230264Y-87516498D01*
X156230261Y-87516510D01*
X156199500Y-87671153D01*
X156199500Y-87828846D01*
X156230261Y-87983489D01*
X156230264Y-87983501D01*
X156290602Y-88129172D01*
X156290609Y-88129185D01*
X156378210Y-88260288D01*
X156378213Y-88260292D01*
X156489705Y-88371784D01*
X156489708Y-88371786D01*
X156489711Y-88371789D01*
X156544892Y-88408660D01*
X156589695Y-88462269D01*
X156600000Y-88511760D01*
X156600000Y-93876000D01*
X156580315Y-93943039D01*
X156527511Y-93988794D01*
X156476000Y-94000000D01*
X155304146Y-94000000D01*
X155237107Y-93980315D01*
X155231261Y-93976318D01*
X155159339Y-93924064D01*
X155159338Y-93924063D01*
X155159336Y-93924062D01*
X154982904Y-93834166D01*
X154794582Y-93772976D01*
X154794580Y-93772975D01*
X154794578Y-93772975D01*
X154599012Y-93742000D01*
X154599007Y-93742000D01*
X154400993Y-93742000D01*
X154400988Y-93742000D01*
X154205421Y-93772975D01*
X154017093Y-93834167D01*
X153840660Y-93924064D01*
X153768739Y-93976318D01*
X153702933Y-93999798D01*
X153695854Y-94000000D01*
X150304146Y-94000000D01*
X150237107Y-93980315D01*
X150231261Y-93976318D01*
X150159339Y-93924064D01*
X150159338Y-93924063D01*
X150159336Y-93924062D01*
X149982904Y-93834166D01*
X149794582Y-93772976D01*
X149794580Y-93772975D01*
X149794578Y-93772975D01*
X149599012Y-93742000D01*
X149599007Y-93742000D01*
X149400993Y-93742000D01*
X149400988Y-93742000D01*
X149205421Y-93772975D01*
X149205416Y-93772976D01*
X149162317Y-93786980D01*
X149092476Y-93788975D01*
X149032643Y-93752894D01*
X149001816Y-93690193D01*
X149000000Y-93669049D01*
X149000000Y-92124000D01*
X149019685Y-92056961D01*
X149072489Y-92011206D01*
X149124000Y-92000000D01*
X154400000Y-92000000D01*
X154400000Y-85924000D01*
X154419685Y-85856961D01*
X154472489Y-85811206D01*
X154524000Y-85800000D01*
X156476000Y-85800000D01*
X156543039Y-85819685D01*
G37*
%TD.AperFunction*%
%TA.AperFunction,Conductor*%
G36*
X145243334Y-70859180D02*
G01*
X145287681Y-70887681D01*
X149112319Y-74712319D01*
X149145804Y-74773642D01*
X149140820Y-74843334D01*
X149112319Y-74887681D01*
X144087681Y-79912319D01*
X144026358Y-79945804D01*
X143956666Y-79940820D01*
X143912319Y-79912319D01*
X140087681Y-76087681D01*
X140054196Y-76026358D01*
X140059180Y-75956666D01*
X140087681Y-75912319D01*
X145112319Y-70887681D01*
X145173642Y-70854196D01*
X145243334Y-70859180D01*
G37*
%TD.AperFunction*%
%TA.AperFunction,Conductor*%
G36*
X139243039Y-79019685D02*
G01*
X139288794Y-79072489D01*
X139300000Y-79124000D01*
X139300000Y-83776000D01*
X139280315Y-83843039D01*
X139227511Y-83888794D01*
X139176000Y-83900000D01*
X135624000Y-83900000D01*
X135556961Y-83880315D01*
X135511206Y-83827511D01*
X135500000Y-83776000D01*
X135500000Y-79124000D01*
X135519685Y-79056961D01*
X135572489Y-79011206D01*
X135624000Y-79000000D01*
X139176000Y-79000000D01*
X139243039Y-79019685D01*
G37*
%TD.AperFunction*%
%TA.AperFunction,Conductor*%
G36*
X171442539Y-65520185D02*
G01*
X171488294Y-65572989D01*
X171499500Y-65624500D01*
X171499500Y-99375500D01*
X171479815Y-99442539D01*
X171427011Y-99488294D01*
X171375500Y-99499500D01*
X102624500Y-99499500D01*
X102557461Y-99479815D01*
X102511706Y-99427011D01*
X102500500Y-99375500D01*
X102500500Y-97586866D01*
X147062500Y-97586866D01*
X147062500Y-97813133D01*
X147097895Y-98036611D01*
X147167818Y-98251810D01*
X147270542Y-98453418D01*
X147322084Y-98524359D01*
X147322085Y-98524360D01*
X147918092Y-97928353D01*
X147946132Y-97996048D01*
X148014531Y-98098414D01*
X148101586Y-98185469D01*
X148203952Y-98253868D01*
X148271645Y-98281907D01*
X147675638Y-98877913D01*
X147746585Y-98929459D01*
X147948189Y-99032181D01*
X148163388Y-99102104D01*
X148163387Y-99102104D01*
X148386867Y-99137500D01*
X148613133Y-99137500D01*
X148836611Y-99102104D01*
X149051810Y-99032181D01*
X149253406Y-98929463D01*
X149253412Y-98929459D01*
X149324359Y-98877913D01*
X149324360Y-98877913D01*
X148728353Y-98281907D01*
X148796048Y-98253868D01*
X148898414Y-98185469D01*
X148985469Y-98098414D01*
X149053868Y-97996048D01*
X149081907Y-97928353D01*
X149677913Y-98524360D01*
X149677913Y-98524359D01*
X149729459Y-98453412D01*
X149729463Y-98453406D01*
X149832181Y-98251810D01*
X149902104Y-98036611D01*
X149937500Y-97813133D01*
X149937500Y-97586866D01*
X149902104Y-97363388D01*
X149832181Y-97148189D01*
X149729459Y-96946585D01*
X149677913Y-96875639D01*
X149677913Y-96875638D01*
X149081907Y-97471645D01*
X149053868Y-97403952D01*
X148985469Y-97301586D01*
X148898414Y-97214531D01*
X148796048Y-97146132D01*
X148728353Y-97118092D01*
X149324360Y-96522085D01*
X149324359Y-96522083D01*
X149255151Y-96471801D01*
X149212485Y-96416471D01*
X149206506Y-96346858D01*
X149239111Y-96285063D01*
X149299950Y-96250706D01*
X149347435Y-96249010D01*
X149401035Y-96257500D01*
X149598966Y-96257500D01*
X149794465Y-96226535D01*
X149982716Y-96165369D01*
X150159073Y-96075509D01*
X150195493Y-96049047D01*
X150195494Y-96049046D01*
X149633493Y-95487045D01*
X149694923Y-95470585D01*
X149810078Y-95404101D01*
X149904101Y-95310078D01*
X149970585Y-95194923D01*
X149987045Y-95133491D01*
X150549047Y-95695493D01*
X150575509Y-95659073D01*
X150665369Y-95482716D01*
X150726535Y-95294465D01*
X150757500Y-95098966D01*
X150757500Y-94901033D01*
X150726535Y-94705533D01*
X150726534Y-94705526D01*
X150714282Y-94667817D01*
X150712287Y-94597976D01*
X150748368Y-94538143D01*
X150811069Y-94507316D01*
X150832213Y-94505500D01*
X153167787Y-94505500D01*
X153234826Y-94525185D01*
X153280581Y-94577989D01*
X153290525Y-94647147D01*
X153285718Y-94667817D01*
X153273465Y-94705526D01*
X153273464Y-94705533D01*
X153242500Y-94901033D01*
X153242500Y-95098966D01*
X153273464Y-95294465D01*
X153334630Y-95482716D01*
X153424488Y-95659069D01*
X153450951Y-95695493D01*
X154012954Y-95133489D01*
X154029415Y-95194923D01*
X154095899Y-95310078D01*
X154189922Y-95404101D01*
X154305077Y-95470585D01*
X154366507Y-95487045D01*
X153804504Y-96049047D01*
X153804505Y-96049048D01*
X153840923Y-96075507D01*
X154017283Y-96165369D01*
X154205534Y-96226535D01*
X154401034Y-96257500D01*
X154598965Y-96257500D01*
X154652565Y-96249010D01*
X154721858Y-96257964D01*
X154775311Y-96302960D01*
X154795951Y-96369711D01*
X154777227Y-96437025D01*
X154744849Y-96471801D01*
X154675639Y-96522084D01*
X154675639Y-96522085D01*
X155271646Y-97118092D01*
X155203952Y-97146132D01*
X155101586Y-97214531D01*
X155014531Y-97301586D01*
X154946132Y-97403952D01*
X154918092Y-97471646D01*
X154322085Y-96875639D01*
X154270539Y-96946587D01*
X154167818Y-97148189D01*
X154097895Y-97363388D01*
X154062500Y-97586866D01*
X154062500Y-97813133D01*
X154097895Y-98036611D01*
X154167818Y-98251810D01*
X154270542Y-98453418D01*
X154322084Y-98524359D01*
X154322085Y-98524360D01*
X154918092Y-97928353D01*
X154946132Y-97996048D01*
X155014531Y-98098414D01*
X155101586Y-98185469D01*
X155203952Y-98253868D01*
X155271645Y-98281907D01*
X154675638Y-98877913D01*
X154746585Y-98929459D01*
X154948189Y-99032181D01*
X155163388Y-99102104D01*
X155163387Y-99102104D01*
X155386867Y-99137500D01*
X155613133Y-99137500D01*
X155836611Y-99102104D01*
X156051810Y-99032181D01*
X156253406Y-98929463D01*
X156253412Y-98929459D01*
X156324359Y-98877913D01*
X156324360Y-98877913D01*
X155728353Y-98281907D01*
X155796048Y-98253868D01*
X155898414Y-98185469D01*
X155985469Y-98098414D01*
X156053868Y-97996048D01*
X156081907Y-97928354D01*
X156677913Y-98524360D01*
X156677913Y-98524359D01*
X156729459Y-98453412D01*
X156729463Y-98453406D01*
X156832181Y-98251810D01*
X156902104Y-98036611D01*
X156937500Y-97813133D01*
X156937500Y-97586866D01*
X156902104Y-97363388D01*
X156832181Y-97148189D01*
X156729459Y-96946585D01*
X156677913Y-96875639D01*
X156677913Y-96875638D01*
X156081907Y-97471645D01*
X156053868Y-97403952D01*
X155985469Y-97301586D01*
X155898414Y-97214531D01*
X155796048Y-97146132D01*
X155728353Y-97118092D01*
X156324360Y-96522085D01*
X156324359Y-96522084D01*
X156253418Y-96470542D01*
X156051810Y-96367818D01*
X155836611Y-96297895D01*
X155836612Y-96297895D01*
X155613133Y-96262500D01*
X155386866Y-96262500D01*
X155276591Y-96279965D01*
X155207298Y-96271010D01*
X155153846Y-96226013D01*
X155133207Y-96159262D01*
X155151932Y-96091948D01*
X155184308Y-96057174D01*
X155195494Y-96049046D01*
X154633493Y-95487045D01*
X154694923Y-95470585D01*
X154810078Y-95404101D01*
X154904101Y-95310078D01*
X154970585Y-95194923D01*
X154987045Y-95133492D01*
X155549047Y-95695494D01*
X155549047Y-95695493D01*
X155575509Y-95659073D01*
X155665369Y-95482716D01*
X155726535Y-95294465D01*
X155757500Y-95098966D01*
X155757500Y-94901033D01*
X155726535Y-94705533D01*
X155726534Y-94705526D01*
X155714282Y-94667817D01*
X155712287Y-94597976D01*
X155748368Y-94538143D01*
X155811069Y-94507316D01*
X155832213Y-94505500D01*
X156475990Y-94505500D01*
X156476000Y-94505500D01*
X156583456Y-94493947D01*
X156634967Y-94482741D01*
X156669197Y-94471347D01*
X156737497Y-94448616D01*
X156737501Y-94448613D01*
X156737504Y-94448613D01*
X156858543Y-94370825D01*
X156911347Y-94325070D01*
X157005567Y-94216336D01*
X157065338Y-94085459D01*
X157085023Y-94018420D01*
X157085024Y-94018416D01*
X157105500Y-93876000D01*
X157105500Y-88511760D01*
X157094886Y-88408715D01*
X157084581Y-88359224D01*
X157053188Y-88260514D01*
X156977572Y-88138106D01*
X156977571Y-88138105D01*
X156977570Y-88138103D01*
X156932772Y-88084501D01*
X156932769Y-88084497D01*
X156825734Y-87988353D01*
X156825730Y-87988350D01*
X156822092Y-87985919D01*
X156803313Y-87970506D01*
X156779495Y-87946689D01*
X156764074Y-87927899D01*
X156745358Y-87899890D01*
X156733901Y-87878455D01*
X156730780Y-87870921D01*
X156721007Y-87847326D01*
X156713954Y-87824075D01*
X156707381Y-87791031D01*
X156705000Y-87766844D01*
X156705000Y-87733153D01*
X156707382Y-87708964D01*
X156707724Y-87707246D01*
X156713956Y-87675914D01*
X156721006Y-87652674D01*
X156733902Y-87621539D01*
X156745354Y-87600115D01*
X156764076Y-87572094D01*
X156779488Y-87553316D01*
X156803314Y-87529490D01*
X156822097Y-87514075D01*
X156825733Y-87511647D01*
X156905514Y-87445573D01*
X156940938Y-87409510D01*
X157005567Y-87328574D01*
X157065338Y-87197697D01*
X157085023Y-87130658D01*
X157085024Y-87130654D01*
X157105500Y-86988238D01*
X157105500Y-85924000D01*
X157093947Y-85816544D01*
X157082741Y-85765033D01*
X157073077Y-85735998D01*
X157048616Y-85662502D01*
X157048613Y-85662496D01*
X156970825Y-85541457D01*
X156943752Y-85510213D01*
X156925076Y-85488659D01*
X156925072Y-85488656D01*
X156925070Y-85488653D01*
X156816336Y-85394433D01*
X156816333Y-85394431D01*
X156816331Y-85394430D01*
X156685465Y-85334664D01*
X156685460Y-85334662D01*
X156685459Y-85334662D01*
X156618420Y-85314977D01*
X156618422Y-85314977D01*
X156618417Y-85314976D01*
X156556347Y-85306052D01*
X156476000Y-85294500D01*
X154524000Y-85294500D01*
X154523991Y-85294500D01*
X154523990Y-85294501D01*
X154416549Y-85306052D01*
X154416537Y-85306054D01*
X154365027Y-85317260D01*
X154262502Y-85351383D01*
X154262496Y-85351386D01*
X154141462Y-85429171D01*
X154141451Y-85429179D01*
X154088659Y-85474923D01*
X153994433Y-85583664D01*
X153994430Y-85583668D01*
X153934664Y-85714534D01*
X153914976Y-85781582D01*
X153909949Y-85816549D01*
X153894502Y-85923990D01*
X153894500Y-85924001D01*
X153894500Y-91370500D01*
X153874815Y-91437539D01*
X153822011Y-91483294D01*
X153770500Y-91494500D01*
X149124000Y-91494500D01*
X149123991Y-91494500D01*
X149123990Y-91494501D01*
X149016549Y-91506052D01*
X149016537Y-91506054D01*
X148965027Y-91517260D01*
X148862502Y-91551383D01*
X148862496Y-91551386D01*
X148741462Y-91629171D01*
X148741451Y-91629179D01*
X148688659Y-91674923D01*
X148594433Y-91783664D01*
X148594430Y-91783668D01*
X148534664Y-91914534D01*
X148514976Y-91981582D01*
X148494500Y-92124001D01*
X148494500Y-93669056D01*
X148496353Y-93712300D01*
X148498169Y-93733450D01*
X148503718Y-93776383D01*
X148548180Y-93913230D01*
X148578979Y-93975874D01*
X148579006Y-93975927D01*
X148579006Y-93975928D01*
X148653901Y-94085459D01*
X148660219Y-94094699D01*
X148771602Y-94185777D01*
X148815878Y-94212476D01*
X148828783Y-94220259D01*
X148831009Y-94221678D01*
X148831435Y-94221858D01*
X148831436Y-94221859D01*
X148963967Y-94277867D01*
X149106910Y-94294269D01*
X149106911Y-94294268D01*
X149110162Y-94294642D01*
X149174520Y-94321841D01*
X149183707Y-94330153D01*
X149366508Y-94512954D01*
X149305077Y-94529415D01*
X149189922Y-94595899D01*
X149095899Y-94689922D01*
X149029415Y-94805077D01*
X149012954Y-94866507D01*
X148450951Y-94304505D01*
X148450950Y-94304505D01*
X148424489Y-94340927D01*
X148424488Y-94340929D01*
X148334632Y-94517278D01*
X148273464Y-94705534D01*
X148242500Y-94901033D01*
X148242500Y-95098966D01*
X148273464Y-95294465D01*
X148334630Y-95482716D01*
X148424488Y-95659069D01*
X148450951Y-95695493D01*
X149012954Y-95133491D01*
X149029415Y-95194923D01*
X149095899Y-95310078D01*
X149189922Y-95404101D01*
X149305077Y-95470585D01*
X149366507Y-95487045D01*
X148804504Y-96049047D01*
X148804505Y-96049048D01*
X148815688Y-96057173D01*
X148858355Y-96112503D01*
X148864334Y-96182116D01*
X148831729Y-96243911D01*
X148770891Y-96278269D01*
X148723407Y-96279965D01*
X148613134Y-96262500D01*
X148386867Y-96262500D01*
X148163388Y-96297895D01*
X147948189Y-96367818D01*
X147746587Y-96470539D01*
X147675639Y-96522085D01*
X148271646Y-97118092D01*
X148203952Y-97146132D01*
X148101586Y-97214531D01*
X148014531Y-97301586D01*
X147946132Y-97403952D01*
X147918092Y-97471645D01*
X147322085Y-96875639D01*
X147270539Y-96946587D01*
X147167818Y-97148189D01*
X147097895Y-97363388D01*
X147062500Y-97586866D01*
X102500500Y-97586866D01*
X102500500Y-94859041D01*
X105349500Y-94859041D01*
X105349500Y-95140958D01*
X105386295Y-95420439D01*
X105459259Y-95692743D01*
X105567135Y-95953179D01*
X105567140Y-95953190D01*
X105708083Y-96197309D01*
X105708088Y-96197317D01*
X105876252Y-96416471D01*
X105879704Y-96420970D01*
X106079029Y-96620295D01*
X106079033Y-96620298D01*
X106079035Y-96620300D01*
X106302683Y-96791912D01*
X106302690Y-96791916D01*
X106546809Y-96932859D01*
X106546814Y-96932861D01*
X106546817Y-96932863D01*
X106807261Y-97040742D01*
X107079558Y-97113704D01*
X107359049Y-97150500D01*
X107359056Y-97150500D01*
X107640944Y-97150500D01*
X107640951Y-97150500D01*
X107920442Y-97113704D01*
X108192739Y-97040742D01*
X108453183Y-96932863D01*
X108697317Y-96791912D01*
X108920965Y-96620300D01*
X109120300Y-96420965D01*
X109291912Y-96197317D01*
X109432863Y-95953183D01*
X109432867Y-95953174D01*
X109444046Y-95926186D01*
X109444046Y-95926185D01*
X109479403Y-95840826D01*
X109540742Y-95692739D01*
X109613704Y-95420442D01*
X109650500Y-95140951D01*
X109650500Y-94859049D01*
X109613704Y-94579558D01*
X109540742Y-94307261D01*
X109432863Y-94046817D01*
X109432861Y-94046814D01*
X109432859Y-94046809D01*
X109291916Y-93802690D01*
X109291912Y-93802683D01*
X109120300Y-93579035D01*
X109120298Y-93579033D01*
X109120295Y-93579029D01*
X108920970Y-93379704D01*
X108920963Y-93379698D01*
X108715736Y-93222221D01*
X108715732Y-93222218D01*
X108697317Y-93208088D01*
X108697312Y-93208085D01*
X108697309Y-93208083D01*
X108559837Y-93128713D01*
X143149500Y-93128713D01*
X143149500Y-93341287D01*
X143182754Y-93551243D01*
X143191784Y-93579035D01*
X143248444Y-93753414D01*
X143344951Y-93942820D01*
X143469890Y-94114786D01*
X143583818Y-94228714D01*
X143617303Y-94290037D01*
X143612319Y-94359729D01*
X143570447Y-94415662D01*
X143539471Y-94432577D01*
X143407912Y-94481646D01*
X143407906Y-94481649D01*
X143292812Y-94567809D01*
X143292809Y-94567812D01*
X143206649Y-94682906D01*
X143206645Y-94682913D01*
X143156403Y-94817620D01*
X143156401Y-94817627D01*
X143150000Y-94877155D01*
X143150000Y-95525000D01*
X144066988Y-95525000D01*
X144034075Y-95582007D01*
X144000000Y-95709174D01*
X144000000Y-95840826D01*
X144034075Y-95967993D01*
X144066988Y-96025000D01*
X143150000Y-96025000D01*
X143150000Y-96672844D01*
X143156401Y-96732372D01*
X143156403Y-96732379D01*
X143206645Y-96867086D01*
X143206649Y-96867093D01*
X143292809Y-96982187D01*
X143292812Y-96982190D01*
X143407906Y-97068350D01*
X143407913Y-97068354D01*
X143542620Y-97118596D01*
X143542627Y-97118598D01*
X143602155Y-97124999D01*
X143602172Y-97125000D01*
X144250000Y-97125000D01*
X144250000Y-96208012D01*
X144307007Y-96240925D01*
X144434174Y-96275000D01*
X144565826Y-96275000D01*
X144692993Y-96240925D01*
X144750000Y-96208012D01*
X144750000Y-97125000D01*
X145397828Y-97125000D01*
X145397844Y-97124999D01*
X145457372Y-97118598D01*
X145457379Y-97118596D01*
X145592086Y-97068354D01*
X145592093Y-97068350D01*
X145707187Y-96982190D01*
X145707190Y-96982187D01*
X145793350Y-96867093D01*
X145793354Y-96867086D01*
X145843596Y-96732379D01*
X145843598Y-96732372D01*
X145849999Y-96672844D01*
X145850000Y-96672827D01*
X145850000Y-96025000D01*
X144933012Y-96025000D01*
X144965925Y-95967993D01*
X145000000Y-95840826D01*
X145000000Y-95709174D01*
X144965925Y-95582007D01*
X144933012Y-95525000D01*
X145850000Y-95525000D01*
X145850000Y-94877172D01*
X145849999Y-94877155D01*
X145843598Y-94817627D01*
X145843596Y-94817620D01*
X145793354Y-94682913D01*
X145793350Y-94682906D01*
X145707190Y-94567812D01*
X145707187Y-94567809D01*
X145592093Y-94481649D01*
X145592088Y-94481646D01*
X145460528Y-94432577D01*
X145404595Y-94390705D01*
X145380178Y-94325241D01*
X145395030Y-94256968D01*
X145416175Y-94228720D01*
X145530104Y-94114792D01*
X145655051Y-93942816D01*
X145751557Y-93753412D01*
X145817246Y-93551243D01*
X145850500Y-93341287D01*
X145850500Y-93128713D01*
X145817246Y-92918757D01*
X145751557Y-92716588D01*
X145655051Y-92527184D01*
X145655049Y-92527181D01*
X145655048Y-92527179D01*
X145530109Y-92355213D01*
X145379786Y-92204890D01*
X145207820Y-92079951D01*
X145018414Y-91983444D01*
X145018413Y-91983443D01*
X145018412Y-91983443D01*
X144816243Y-91917754D01*
X144816241Y-91917753D01*
X144816240Y-91917753D01*
X144654957Y-91892208D01*
X144606287Y-91884500D01*
X144393713Y-91884500D01*
X144345042Y-91892208D01*
X144183760Y-91917753D01*
X143981585Y-91983444D01*
X143792179Y-92079951D01*
X143620213Y-92204890D01*
X143469890Y-92355213D01*
X143344951Y-92527179D01*
X143248444Y-92716585D01*
X143182753Y-92918760D01*
X143176339Y-92959258D01*
X143149500Y-93128713D01*
X108559837Y-93128713D01*
X108453190Y-93067140D01*
X108453179Y-93067135D01*
X108192743Y-92959259D01*
X107920439Y-92886295D01*
X107640958Y-92849500D01*
X107640951Y-92849500D01*
X107359049Y-92849500D01*
X107359041Y-92849500D01*
X107079560Y-92886295D01*
X106807256Y-92959259D01*
X106546820Y-93067135D01*
X106546809Y-93067140D01*
X106302690Y-93208083D01*
X106302684Y-93208087D01*
X106302683Y-93208088D01*
X106284271Y-93222216D01*
X106079029Y-93379704D01*
X105879704Y-93579029D01*
X105810629Y-93669049D01*
X105728267Y-93776386D01*
X105708089Y-93802682D01*
X105708083Y-93802690D01*
X105567140Y-94046809D01*
X105567135Y-94046820D01*
X105459259Y-94307256D01*
X105386295Y-94579560D01*
X105349500Y-94859041D01*
X102500500Y-94859041D01*
X102500500Y-87225577D01*
X102520185Y-87158538D01*
X102572989Y-87112783D01*
X102642147Y-87102839D01*
X102705703Y-87131864D01*
X102724816Y-87152689D01*
X102777772Y-87225577D01*
X102809896Y-87269792D01*
X102960213Y-87420109D01*
X103132179Y-87545048D01*
X103132181Y-87545049D01*
X103132184Y-87545051D01*
X103321588Y-87641557D01*
X103523757Y-87707246D01*
X103733713Y-87740500D01*
X103733714Y-87740500D01*
X103946286Y-87740500D01*
X103946287Y-87740500D01*
X104156243Y-87707246D01*
X104358412Y-87641557D01*
X104547816Y-87545051D01*
X104634478Y-87482088D01*
X104719786Y-87420109D01*
X104719788Y-87420106D01*
X104719792Y-87420104D01*
X104870104Y-87269792D01*
X104870106Y-87269788D01*
X104870109Y-87269786D01*
X104995048Y-87097820D01*
X104995047Y-87097820D01*
X104995051Y-87097816D01*
X104999514Y-87089054D01*
X105047488Y-87038259D01*
X105115308Y-87021463D01*
X105181444Y-87043999D01*
X105220486Y-87089056D01*
X105224951Y-87097820D01*
X105349890Y-87269786D01*
X105500213Y-87420109D01*
X105672179Y-87545048D01*
X105672181Y-87545049D01*
X105672184Y-87545051D01*
X105861588Y-87641557D01*
X106063757Y-87707246D01*
X106273713Y-87740500D01*
X106273714Y-87740500D01*
X106486286Y-87740500D01*
X106486287Y-87740500D01*
X106696243Y-87707246D01*
X106898412Y-87641557D01*
X107087816Y-87545051D01*
X107174478Y-87482088D01*
X107259784Y-87420110D01*
X107259784Y-87420109D01*
X107259792Y-87420104D01*
X107373717Y-87306178D01*
X107435036Y-87272696D01*
X107504728Y-87277680D01*
X107560662Y-87319551D01*
X107577577Y-87350528D01*
X107626646Y-87482088D01*
X107626649Y-87482093D01*
X107712809Y-87597187D01*
X107712812Y-87597190D01*
X107827906Y-87683350D01*
X107827913Y-87683354D01*
X107962620Y-87733596D01*
X107962627Y-87733598D01*
X108022155Y-87739999D01*
X108022172Y-87740000D01*
X108670000Y-87740000D01*
X108670000Y-86834560D01*
X108723147Y-86865245D01*
X108852857Y-86900000D01*
X108987143Y-86900000D01*
X109116853Y-86865245D01*
X109170000Y-86834560D01*
X109170000Y-87740000D01*
X109817828Y-87740000D01*
X109817844Y-87739999D01*
X109877372Y-87733598D01*
X109877379Y-87733596D01*
X110012086Y-87683354D01*
X110012093Y-87683350D01*
X110127187Y-87597190D01*
X110127190Y-87597187D01*
X110213350Y-87482093D01*
X110213354Y-87482086D01*
X110262422Y-87350529D01*
X110304293Y-87294595D01*
X110369757Y-87270178D01*
X110438030Y-87285030D01*
X110466285Y-87306181D01*
X110580213Y-87420109D01*
X110752179Y-87545048D01*
X110752181Y-87545049D01*
X110752184Y-87545051D01*
X110941588Y-87641557D01*
X111143757Y-87707246D01*
X111353713Y-87740500D01*
X111353714Y-87740500D01*
X111566286Y-87740500D01*
X111566287Y-87740500D01*
X111776243Y-87707246D01*
X111978412Y-87641557D01*
X112167816Y-87545051D01*
X112254478Y-87482088D01*
X112339786Y-87420109D01*
X112339788Y-87420106D01*
X112339792Y-87420104D01*
X112490104Y-87269792D01*
X112490106Y-87269788D01*
X112490109Y-87269786D01*
X112615048Y-87097820D01*
X112615047Y-87097820D01*
X112615051Y-87097816D01*
X112619514Y-87089054D01*
X112667488Y-87038259D01*
X112735308Y-87021463D01*
X112801444Y-87043999D01*
X112840486Y-87089056D01*
X112844951Y-87097820D01*
X112969890Y-87269786D01*
X113120213Y-87420109D01*
X113292179Y-87545048D01*
X113292181Y-87545049D01*
X113292184Y-87545051D01*
X113481588Y-87641557D01*
X113683757Y-87707246D01*
X113893713Y-87740500D01*
X113893714Y-87740500D01*
X114106286Y-87740500D01*
X114106287Y-87740500D01*
X114316243Y-87707246D01*
X114518412Y-87641557D01*
X114707816Y-87545051D01*
X114794478Y-87482088D01*
X114879786Y-87420109D01*
X114879788Y-87420106D01*
X114879792Y-87420104D01*
X115030104Y-87269792D01*
X115030106Y-87269788D01*
X115030109Y-87269786D01*
X115155048Y-87097820D01*
X115155047Y-87097820D01*
X115155051Y-87097816D01*
X115159514Y-87089054D01*
X115207488Y-87038259D01*
X115275308Y-87021463D01*
X115341444Y-87043999D01*
X115380486Y-87089056D01*
X115384951Y-87097820D01*
X115509890Y-87269786D01*
X115660213Y-87420109D01*
X115832179Y-87545048D01*
X115832181Y-87545049D01*
X115832184Y-87545051D01*
X116021588Y-87641557D01*
X116223757Y-87707246D01*
X116433713Y-87740500D01*
X116433714Y-87740500D01*
X116646286Y-87740500D01*
X116646287Y-87740500D01*
X116856243Y-87707246D01*
X117058412Y-87641557D01*
X117247816Y-87545051D01*
X117334478Y-87482088D01*
X117419786Y-87420109D01*
X117419788Y-87420106D01*
X117419792Y-87420104D01*
X117570104Y-87269792D01*
X117570106Y-87269788D01*
X117570109Y-87269786D01*
X117695048Y-87097820D01*
X117695047Y-87097820D01*
X117695051Y-87097816D01*
X117699514Y-87089054D01*
X117747488Y-87038259D01*
X117815308Y-87021463D01*
X117881444Y-87043999D01*
X117920486Y-87089056D01*
X117924951Y-87097820D01*
X118049890Y-87269786D01*
X118200213Y-87420109D01*
X118372179Y-87545048D01*
X118372181Y-87545049D01*
X118372184Y-87545051D01*
X118561588Y-87641557D01*
X118763757Y-87707246D01*
X118973713Y-87740500D01*
X118973714Y-87740500D01*
X119186286Y-87740500D01*
X119186287Y-87740500D01*
X119396243Y-87707246D01*
X119598412Y-87641557D01*
X119787816Y-87545051D01*
X119874478Y-87482088D01*
X119959784Y-87420110D01*
X119959784Y-87420109D01*
X119959792Y-87420104D01*
X120073717Y-87306178D01*
X120135036Y-87272696D01*
X120204728Y-87277680D01*
X120260662Y-87319551D01*
X120277577Y-87350528D01*
X120326646Y-87482088D01*
X120326649Y-87482093D01*
X120412809Y-87597187D01*
X120412812Y-87597190D01*
X120527906Y-87683350D01*
X120527913Y-87683354D01*
X120662620Y-87733596D01*
X120662627Y-87733598D01*
X120722155Y-87739999D01*
X120722172Y-87740000D01*
X121370000Y-87740000D01*
X121370000Y-86834560D01*
X121423147Y-86865245D01*
X121552857Y-86900000D01*
X121687143Y-86900000D01*
X121816853Y-86865245D01*
X121870000Y-86834560D01*
X121870000Y-87740000D01*
X122517828Y-87740000D01*
X122517844Y-87739999D01*
X122577372Y-87733598D01*
X122577379Y-87733596D01*
X122712086Y-87683354D01*
X122712093Y-87683350D01*
X122827187Y-87597190D01*
X122827190Y-87597187D01*
X122913350Y-87482093D01*
X122913354Y-87482086D01*
X122962422Y-87350529D01*
X123004293Y-87294595D01*
X123069757Y-87270178D01*
X123138030Y-87285030D01*
X123166285Y-87306181D01*
X123280213Y-87420109D01*
X123452179Y-87545048D01*
X123452181Y-87545049D01*
X123452184Y-87545051D01*
X123641588Y-87641557D01*
X123843757Y-87707246D01*
X124053713Y-87740500D01*
X124053714Y-87740500D01*
X124266286Y-87740500D01*
X124266287Y-87740500D01*
X124476243Y-87707246D01*
X124678412Y-87641557D01*
X124719205Y-87620772D01*
X124787874Y-87607876D01*
X124852615Y-87634152D01*
X124892872Y-87691259D01*
X124899500Y-87731257D01*
X124899500Y-88199902D01*
X124879815Y-88266941D01*
X124863181Y-88287583D01*
X124287584Y-88863181D01*
X124226261Y-88896666D01*
X124199903Y-88899500D01*
X116579057Y-88899500D01*
X116420943Y-88899500D01*
X116268215Y-88940423D01*
X116268214Y-88940423D01*
X116268212Y-88940424D01*
X116268209Y-88940425D01*
X116218096Y-88969359D01*
X116218095Y-88969360D01*
X116174689Y-88994420D01*
X116131285Y-89019479D01*
X116131282Y-89019481D01*
X116052570Y-89098194D01*
X116019480Y-89131284D01*
X116019478Y-89131286D01*
X115761446Y-89389319D01*
X115537584Y-89613181D01*
X115510656Y-89627884D01*
X115484838Y-89644477D01*
X115478637Y-89645368D01*
X115476261Y-89646666D01*
X115449903Y-89649500D01*
X115394766Y-89649500D01*
X115327727Y-89629815D01*
X115325875Y-89628602D01*
X115194185Y-89540609D01*
X115194172Y-89540602D01*
X115048501Y-89480264D01*
X115048489Y-89480261D01*
X114893845Y-89449500D01*
X114893842Y-89449500D01*
X114736158Y-89449500D01*
X114736155Y-89449500D01*
X114581510Y-89480261D01*
X114581498Y-89480264D01*
X114435827Y-89540602D01*
X114435814Y-89540609D01*
X114304711Y-89628210D01*
X114304707Y-89628213D01*
X114193213Y-89739707D01*
X114193210Y-89739711D01*
X114105609Y-89870814D01*
X114105602Y-89870827D01*
X114045264Y-90016498D01*
X114045261Y-90016510D01*
X114014500Y-90171153D01*
X114014500Y-90328846D01*
X114045261Y-90483489D01*
X114045264Y-90483501D01*
X114105602Y-90629172D01*
X114105609Y-90629185D01*
X114193210Y-90760288D01*
X114193213Y-90760292D01*
X114304707Y-90871786D01*
X114304711Y-90871789D01*
X114435814Y-90959390D01*
X114435827Y-90959397D01*
X114581498Y-91019735D01*
X114581503Y-91019737D01*
X114736153Y-91050499D01*
X114736156Y-91050500D01*
X114736158Y-91050500D01*
X114893844Y-91050500D01*
X114893845Y-91050499D01*
X115048497Y-91019737D01*
X115190703Y-90960834D01*
X115194172Y-90959397D01*
X115194172Y-90959396D01*
X115194179Y-90959394D01*
X115208238Y-90950000D01*
X115325875Y-90871398D01*
X115392553Y-90850520D01*
X115394766Y-90850500D01*
X115663331Y-90850500D01*
X115663347Y-90850501D01*
X115670943Y-90850501D01*
X115829054Y-90850501D01*
X115829057Y-90850501D01*
X115981785Y-90809577D01*
X116037775Y-90777251D01*
X116118716Y-90730520D01*
X116230520Y-90618716D01*
X116230520Y-90618714D01*
X116240724Y-90608511D01*
X116240727Y-90608506D01*
X116712416Y-90136819D01*
X116773739Y-90103334D01*
X116800097Y-90100500D01*
X120140500Y-90100500D01*
X120207539Y-90120185D01*
X120253294Y-90172989D01*
X120264500Y-90224500D01*
X120264500Y-90328846D01*
X120295261Y-90483489D01*
X120295264Y-90483501D01*
X120355602Y-90629172D01*
X120355609Y-90629185D01*
X120443210Y-90760288D01*
X120443213Y-90760292D01*
X120554707Y-90871786D01*
X120554711Y-90871789D01*
X120685814Y-90959390D01*
X120685827Y-90959397D01*
X120831498Y-91019735D01*
X120831503Y-91019737D01*
X120986153Y-91050499D01*
X120986156Y-91050500D01*
X120986158Y-91050500D01*
X121143844Y-91050500D01*
X121143845Y-91050499D01*
X121298497Y-91019737D01*
X121440703Y-90960834D01*
X121444172Y-90959397D01*
X121444172Y-90959396D01*
X121444179Y-90959394D01*
X121458238Y-90950000D01*
X121575875Y-90871398D01*
X121642553Y-90850520D01*
X121644766Y-90850500D01*
X125913331Y-90850500D01*
X125913347Y-90850501D01*
X125920943Y-90850501D01*
X126079054Y-90850501D01*
X126079057Y-90850501D01*
X126231785Y-90809577D01*
X126287775Y-90777251D01*
X126368716Y-90730520D01*
X126449886Y-90649349D01*
X126455909Y-90644654D01*
X126481572Y-90634504D01*
X126505794Y-90621278D01*
X126513601Y-90621836D01*
X126520882Y-90618957D01*
X126547959Y-90624293D01*
X126575486Y-90626262D01*
X126581753Y-90630953D01*
X126589433Y-90632467D01*
X126609324Y-90651593D01*
X126631420Y-90668133D01*
X126635255Y-90673553D01*
X126693210Y-90760288D01*
X126693213Y-90760292D01*
X126804707Y-90871786D01*
X126804711Y-90871789D01*
X126935814Y-90959390D01*
X126935827Y-90959397D01*
X127081498Y-91019735D01*
X127081503Y-91019737D01*
X127236153Y-91050499D01*
X127236156Y-91050500D01*
X127236158Y-91050500D01*
X127393844Y-91050500D01*
X127393845Y-91050499D01*
X127548497Y-91019737D01*
X127690703Y-90960834D01*
X127694172Y-90959397D01*
X127694172Y-90959396D01*
X127694179Y-90959394D01*
X127708238Y-90950000D01*
X127825875Y-90871398D01*
X127892553Y-90850520D01*
X127894766Y-90850500D01*
X128163331Y-90850500D01*
X128163347Y-90850501D01*
X128170943Y-90850501D01*
X128329054Y-90850501D01*
X128329057Y-90850501D01*
X128481785Y-90809577D01*
X128537775Y-90777251D01*
X128618716Y-90730520D01*
X128730520Y-90618716D01*
X128730520Y-90618714D01*
X128740724Y-90608511D01*
X128740727Y-90608506D01*
X130980520Y-88368716D01*
X131059577Y-88231784D01*
X131100501Y-88079057D01*
X131100501Y-87920942D01*
X131100501Y-87913347D01*
X131100500Y-87913329D01*
X131100500Y-87759887D01*
X131120185Y-87692848D01*
X131172989Y-87647093D01*
X131242147Y-87637149D01*
X131262810Y-87641954D01*
X131463757Y-87707246D01*
X131673713Y-87740500D01*
X131673714Y-87740500D01*
X131886286Y-87740500D01*
X131886287Y-87740500D01*
X132096243Y-87707246D01*
X132298412Y-87641557D01*
X132487816Y-87545051D01*
X132574478Y-87482088D01*
X132659784Y-87420110D01*
X132659784Y-87420109D01*
X132659792Y-87420104D01*
X132773717Y-87306178D01*
X132835036Y-87272696D01*
X132904728Y-87277680D01*
X132960662Y-87319551D01*
X132977577Y-87350528D01*
X133026646Y-87482088D01*
X133026649Y-87482093D01*
X133112809Y-87597187D01*
X133112812Y-87597190D01*
X133227906Y-87683350D01*
X133227913Y-87683354D01*
X133362620Y-87733596D01*
X133362627Y-87733598D01*
X133422155Y-87739999D01*
X133422172Y-87740000D01*
X134070000Y-87740000D01*
X134070000Y-86834560D01*
X134123147Y-86865245D01*
X134252857Y-86900000D01*
X134387143Y-86900000D01*
X134516853Y-86865245D01*
X134570000Y-86834560D01*
X134570000Y-87740000D01*
X135217828Y-87740000D01*
X135217844Y-87739999D01*
X135277372Y-87733598D01*
X135277379Y-87733596D01*
X135412086Y-87683354D01*
X135412093Y-87683350D01*
X135527187Y-87597190D01*
X135527190Y-87597187D01*
X135613350Y-87482093D01*
X135613354Y-87482086D01*
X135662422Y-87350529D01*
X135704293Y-87294595D01*
X135769757Y-87270178D01*
X135838030Y-87285030D01*
X135866285Y-87306181D01*
X135980213Y-87420109D01*
X136152179Y-87545048D01*
X136152181Y-87545049D01*
X136152184Y-87545051D01*
X136341588Y-87641557D01*
X136543757Y-87707246D01*
X136753713Y-87740500D01*
X136753714Y-87740500D01*
X136966286Y-87740500D01*
X136966287Y-87740500D01*
X137176243Y-87707246D01*
X137378412Y-87641557D01*
X137567816Y-87545051D01*
X137654478Y-87482088D01*
X137739786Y-87420109D01*
X137739788Y-87420106D01*
X137739792Y-87420104D01*
X137890104Y-87269792D01*
X137890106Y-87269788D01*
X137890109Y-87269786D01*
X138015048Y-87097820D01*
X138015047Y-87097820D01*
X138015051Y-87097816D01*
X138019514Y-87089054D01*
X138067488Y-87038259D01*
X138135308Y-87021463D01*
X138201444Y-87043999D01*
X138240486Y-87089056D01*
X138244951Y-87097820D01*
X138369890Y-87269786D01*
X138520213Y-87420109D01*
X138692179Y-87545048D01*
X138692181Y-87545049D01*
X138692184Y-87545051D01*
X138881588Y-87641557D01*
X139083757Y-87707246D01*
X139293713Y-87740500D01*
X139293714Y-87740500D01*
X139506286Y-87740500D01*
X139506287Y-87740500D01*
X139716243Y-87707246D01*
X139918412Y-87641557D01*
X140107816Y-87545051D01*
X140194478Y-87482088D01*
X140279786Y-87420109D01*
X140279788Y-87420106D01*
X140279792Y-87420104D01*
X140430104Y-87269792D01*
X140430106Y-87269788D01*
X140430109Y-87269786D01*
X140555048Y-87097820D01*
X140555047Y-87097820D01*
X140555051Y-87097816D01*
X140559514Y-87089054D01*
X140607488Y-87038259D01*
X140675308Y-87021463D01*
X140741444Y-87043999D01*
X140780486Y-87089056D01*
X140784951Y-87097820D01*
X140909890Y-87269786D01*
X141060213Y-87420109D01*
X141232179Y-87545048D01*
X141232181Y-87545049D01*
X141232184Y-87545051D01*
X141421588Y-87641557D01*
X141623757Y-87707246D01*
X141833713Y-87740500D01*
X141833714Y-87740500D01*
X142046286Y-87740500D01*
X142046287Y-87740500D01*
X142256243Y-87707246D01*
X142458412Y-87641557D01*
X142647816Y-87545051D01*
X142734478Y-87482088D01*
X142819786Y-87420109D01*
X142819788Y-87420106D01*
X142819792Y-87420104D01*
X142970104Y-87269792D01*
X142970106Y-87269788D01*
X142970109Y-87269786D01*
X143095048Y-87097820D01*
X143095047Y-87097820D01*
X143095051Y-87097816D01*
X143099514Y-87089054D01*
X143147488Y-87038259D01*
X143215308Y-87021463D01*
X143281444Y-87043999D01*
X143320486Y-87089056D01*
X143324951Y-87097820D01*
X143449890Y-87269786D01*
X143600213Y-87420109D01*
X143772179Y-87545048D01*
X143772181Y-87545049D01*
X143772184Y-87545051D01*
X143961588Y-87641557D01*
X144163757Y-87707246D01*
X144373713Y-87740500D01*
X144373714Y-87740500D01*
X144586286Y-87740500D01*
X144586287Y-87740500D01*
X144796243Y-87707246D01*
X144998412Y-87641557D01*
X145187816Y-87545051D01*
X145274478Y-87482088D01*
X145359784Y-87420110D01*
X145359784Y-87420109D01*
X145359792Y-87420104D01*
X145473717Y-87306178D01*
X145535036Y-87272696D01*
X145604728Y-87277680D01*
X145660662Y-87319551D01*
X145677577Y-87350528D01*
X145726646Y-87482088D01*
X145726649Y-87482093D01*
X145812809Y-87597187D01*
X145812812Y-87597190D01*
X145927906Y-87683350D01*
X145927913Y-87683354D01*
X146062620Y-87733596D01*
X146062627Y-87733598D01*
X146122155Y-87739999D01*
X146122172Y-87740000D01*
X146770000Y-87740000D01*
X146770000Y-86834560D01*
X146823147Y-86865245D01*
X146952857Y-86900000D01*
X147087143Y-86900000D01*
X147216853Y-86865245D01*
X147270000Y-86834560D01*
X147270000Y-87740000D01*
X147917828Y-87740000D01*
X147917844Y-87739999D01*
X147977372Y-87733598D01*
X147977379Y-87733596D01*
X148112086Y-87683354D01*
X148112093Y-87683350D01*
X148227187Y-87597190D01*
X148227190Y-87597187D01*
X148313350Y-87482093D01*
X148313354Y-87482086D01*
X148362422Y-87350529D01*
X148404293Y-87294595D01*
X148469757Y-87270178D01*
X148538030Y-87285030D01*
X148566285Y-87306181D01*
X148680213Y-87420109D01*
X148852179Y-87545048D01*
X148852181Y-87545049D01*
X148852184Y-87545051D01*
X149041588Y-87641557D01*
X149243757Y-87707246D01*
X149453713Y-87740500D01*
X149453714Y-87740500D01*
X149666286Y-87740500D01*
X149666287Y-87740500D01*
X149876243Y-87707246D01*
X150078412Y-87641557D01*
X150267816Y-87545051D01*
X150354478Y-87482088D01*
X150439786Y-87420109D01*
X150439788Y-87420106D01*
X150439792Y-87420104D01*
X150590104Y-87269792D01*
X150590106Y-87269788D01*
X150590109Y-87269786D01*
X150715048Y-87097820D01*
X150715047Y-87097820D01*
X150715051Y-87097816D01*
X150719514Y-87089054D01*
X150767488Y-87038259D01*
X150835308Y-87021463D01*
X150901444Y-87043999D01*
X150940486Y-87089056D01*
X150944951Y-87097820D01*
X151069890Y-87269786D01*
X151220213Y-87420109D01*
X151392179Y-87545048D01*
X151392181Y-87545049D01*
X151392184Y-87545051D01*
X151581588Y-87641557D01*
X151783757Y-87707246D01*
X151993713Y-87740500D01*
X151993714Y-87740500D01*
X152206286Y-87740500D01*
X152206287Y-87740500D01*
X152416243Y-87707246D01*
X152618412Y-87641557D01*
X152807816Y-87545051D01*
X152894478Y-87482088D01*
X152979786Y-87420109D01*
X152979788Y-87420106D01*
X152979792Y-87420104D01*
X153130104Y-87269792D01*
X153130106Y-87269788D01*
X153130109Y-87269786D01*
X153255048Y-87097820D01*
X153255047Y-87097820D01*
X153255051Y-87097816D01*
X153351557Y-86908412D01*
X153417246Y-86706243D01*
X153450500Y-86496287D01*
X153450500Y-86283713D01*
X153417246Y-86073757D01*
X153351557Y-85871588D01*
X153255051Y-85682184D01*
X153255049Y-85682181D01*
X153255048Y-85682179D01*
X153130109Y-85510213D01*
X152979786Y-85359890D01*
X152807820Y-85234951D01*
X152618414Y-85138444D01*
X152618413Y-85138443D01*
X152618412Y-85138443D01*
X152416243Y-85072754D01*
X152416241Y-85072753D01*
X152416240Y-85072753D01*
X152254957Y-85047208D01*
X152206287Y-85039500D01*
X151993713Y-85039500D01*
X151945042Y-85047208D01*
X151783760Y-85072753D01*
X151581585Y-85138444D01*
X151392179Y-85234951D01*
X151220213Y-85359890D01*
X151069890Y-85510213D01*
X150944949Y-85682182D01*
X150940484Y-85690946D01*
X150892509Y-85741742D01*
X150824688Y-85758536D01*
X150758553Y-85735998D01*
X150719516Y-85690946D01*
X150715050Y-85682182D01*
X150590109Y-85510213D01*
X150439786Y-85359890D01*
X150267820Y-85234951D01*
X150078414Y-85138444D01*
X150078413Y-85138443D01*
X150078412Y-85138443D01*
X149876243Y-85072754D01*
X149876241Y-85072753D01*
X149876240Y-85072753D01*
X149714957Y-85047208D01*
X149666287Y-85039500D01*
X149453713Y-85039500D01*
X149405042Y-85047208D01*
X149243760Y-85072753D01*
X149041585Y-85138444D01*
X148852179Y-85234951D01*
X148680215Y-85359889D01*
X148566285Y-85473819D01*
X148504962Y-85507303D01*
X148435270Y-85502319D01*
X148379337Y-85460447D01*
X148362422Y-85429470D01*
X148313354Y-85297913D01*
X148313350Y-85297906D01*
X148227190Y-85182812D01*
X148227187Y-85182809D01*
X148112093Y-85096649D01*
X148112086Y-85096645D01*
X147977379Y-85046403D01*
X147977372Y-85046401D01*
X147917844Y-85040000D01*
X147270000Y-85040000D01*
X147270000Y-85945439D01*
X147216853Y-85914755D01*
X147087143Y-85880000D01*
X146952857Y-85880000D01*
X146823147Y-85914755D01*
X146770000Y-85945439D01*
X146770000Y-85040000D01*
X146122155Y-85040000D01*
X146062627Y-85046401D01*
X146062620Y-85046403D01*
X145927913Y-85096645D01*
X145927906Y-85096649D01*
X145812812Y-85182809D01*
X145812809Y-85182812D01*
X145726649Y-85297906D01*
X145726646Y-85297912D01*
X145677577Y-85429471D01*
X145635705Y-85485404D01*
X145570241Y-85509821D01*
X145501968Y-85494969D01*
X145473714Y-85473818D01*
X145359786Y-85359890D01*
X145187820Y-85234951D01*
X144998414Y-85138444D01*
X144998413Y-85138443D01*
X144998412Y-85138443D01*
X144796243Y-85072754D01*
X144796241Y-85072753D01*
X144796240Y-85072753D01*
X144634957Y-85047208D01*
X144586287Y-85039500D01*
X144373713Y-85039500D01*
X144325042Y-85047208D01*
X144163760Y-85072753D01*
X143961585Y-85138444D01*
X143772179Y-85234951D01*
X143600213Y-85359890D01*
X143449890Y-85510213D01*
X143324949Y-85682182D01*
X143320484Y-85690946D01*
X143272509Y-85741742D01*
X143204688Y-85758536D01*
X143138553Y-85735998D01*
X143099516Y-85690946D01*
X143095050Y-85682182D01*
X142970109Y-85510213D01*
X142819786Y-85359890D01*
X142647820Y-85234951D01*
X142458414Y-85138444D01*
X142458413Y-85138443D01*
X142458412Y-85138443D01*
X142256243Y-85072754D01*
X142256241Y-85072753D01*
X142256240Y-85072753D01*
X142094957Y-85047208D01*
X142046287Y-85039500D01*
X141833713Y-85039500D01*
X141785042Y-85047208D01*
X141623760Y-85072753D01*
X141421585Y-85138444D01*
X141232179Y-85234951D01*
X141060213Y-85359890D01*
X140909890Y-85510213D01*
X140784949Y-85682182D01*
X140780484Y-85690946D01*
X140732509Y-85741742D01*
X140664688Y-85758536D01*
X140598553Y-85735998D01*
X140559516Y-85690946D01*
X140555050Y-85682182D01*
X140430109Y-85510213D01*
X140279786Y-85359890D01*
X140107820Y-85234951D01*
X139918414Y-85138444D01*
X139918413Y-85138443D01*
X139918412Y-85138443D01*
X139716243Y-85072754D01*
X139716241Y-85072753D01*
X139716240Y-85072753D01*
X139554957Y-85047208D01*
X139506287Y-85039500D01*
X139293713Y-85039500D01*
X139245042Y-85047208D01*
X139083760Y-85072753D01*
X138881585Y-85138444D01*
X138692179Y-85234951D01*
X138520213Y-85359890D01*
X138369890Y-85510213D01*
X138244949Y-85682182D01*
X138240484Y-85690946D01*
X138192509Y-85741742D01*
X138124688Y-85758536D01*
X138058553Y-85735998D01*
X138019516Y-85690946D01*
X138015050Y-85682182D01*
X137890109Y-85510213D01*
X137739786Y-85359890D01*
X137567820Y-85234951D01*
X137378414Y-85138444D01*
X137378413Y-85138443D01*
X137378412Y-85138443D01*
X137176243Y-85072754D01*
X137176241Y-85072753D01*
X137176240Y-85072753D01*
X137014957Y-85047208D01*
X136966287Y-85039500D01*
X136753713Y-85039500D01*
X136705042Y-85047208D01*
X136543760Y-85072753D01*
X136341585Y-85138444D01*
X136152179Y-85234951D01*
X135980215Y-85359889D01*
X135866285Y-85473819D01*
X135804962Y-85507303D01*
X135735270Y-85502319D01*
X135679337Y-85460447D01*
X135662422Y-85429470D01*
X135613354Y-85297913D01*
X135613350Y-85297906D01*
X135527190Y-85182812D01*
X135527187Y-85182809D01*
X135412093Y-85096649D01*
X135412086Y-85096645D01*
X135277379Y-85046403D01*
X135277372Y-85046401D01*
X135217844Y-85040000D01*
X134570000Y-85040000D01*
X134570000Y-85945439D01*
X134516853Y-85914755D01*
X134387143Y-85880000D01*
X134252857Y-85880000D01*
X134123147Y-85914755D01*
X134070000Y-85945439D01*
X134070000Y-85040000D01*
X133422155Y-85040000D01*
X133362627Y-85046401D01*
X133362620Y-85046403D01*
X133227913Y-85096645D01*
X133227906Y-85096649D01*
X133112812Y-85182809D01*
X133112809Y-85182812D01*
X133026649Y-85297906D01*
X133026646Y-85297912D01*
X132977577Y-85429471D01*
X132935705Y-85485404D01*
X132870241Y-85509821D01*
X132801968Y-85494969D01*
X132773714Y-85473818D01*
X132659786Y-85359890D01*
X132487820Y-85234951D01*
X132298414Y-85138444D01*
X132298413Y-85138443D01*
X132298412Y-85138443D01*
X132096243Y-85072754D01*
X132096241Y-85072753D01*
X132096240Y-85072753D01*
X131934957Y-85047208D01*
X131886287Y-85039500D01*
X131673713Y-85039500D01*
X131634202Y-85045757D01*
X131463759Y-85072753D01*
X131262818Y-85138043D01*
X131192977Y-85140038D01*
X131133144Y-85103958D01*
X131102316Y-85041257D01*
X131100500Y-85020112D01*
X131100500Y-83276765D01*
X131120185Y-83209726D01*
X131121398Y-83207874D01*
X131127018Y-83199464D01*
X131209394Y-83076179D01*
X131269737Y-82930497D01*
X131300500Y-82775842D01*
X131300500Y-82618158D01*
X131300500Y-82618155D01*
X131300499Y-82618153D01*
X131269738Y-82463510D01*
X131269738Y-82463508D01*
X131269737Y-82463503D01*
X131267113Y-82457167D01*
X131209397Y-82317827D01*
X131209390Y-82317814D01*
X131121789Y-82186711D01*
X131121786Y-82186707D01*
X131010292Y-82075213D01*
X131010288Y-82075210D01*
X130879185Y-81987609D01*
X130879172Y-81987602D01*
X130733501Y-81927264D01*
X130733489Y-81927261D01*
X130578845Y-81896500D01*
X130578842Y-81896500D01*
X130421158Y-81896500D01*
X130421155Y-81896500D01*
X130266510Y-81927261D01*
X130266498Y-81927264D01*
X130120827Y-81987602D01*
X130120814Y-81987609D01*
X129989711Y-82075210D01*
X129989707Y-82075213D01*
X129878213Y-82186707D01*
X129878210Y-82186711D01*
X129790609Y-82317814D01*
X129790602Y-82317827D01*
X129730264Y-82463498D01*
X129730261Y-82463510D01*
X129699500Y-82618153D01*
X129699500Y-82775846D01*
X129730261Y-82930489D01*
X129730264Y-82930501D01*
X129790602Y-83076172D01*
X129790609Y-83076185D01*
X129869595Y-83194395D01*
X129872982Y-83199464D01*
X129878602Y-83207874D01*
X129899480Y-83274551D01*
X129899500Y-83276765D01*
X129899500Y-85013614D01*
X129879815Y-85080653D01*
X129827011Y-85126408D01*
X129757853Y-85136352D01*
X129737182Y-85131545D01*
X129652278Y-85103958D01*
X129556243Y-85072754D01*
X129556240Y-85072753D01*
X129394957Y-85047208D01*
X129346287Y-85039500D01*
X129133713Y-85039500D01*
X129094202Y-85045757D01*
X128923759Y-85072753D01*
X128762818Y-85125046D01*
X128692977Y-85127041D01*
X128633144Y-85090960D01*
X128602316Y-85028259D01*
X128600500Y-85007115D01*
X128600500Y-83276765D01*
X128620185Y-83209726D01*
X128621398Y-83207874D01*
X128627018Y-83199464D01*
X128709394Y-83076179D01*
X128769737Y-82930497D01*
X128800500Y-82775842D01*
X128800500Y-82618158D01*
X128800500Y-82618155D01*
X128800499Y-82618153D01*
X128769738Y-82463510D01*
X128769738Y-82463508D01*
X128769737Y-82463503D01*
X128767113Y-82457167D01*
X128709397Y-82317827D01*
X128709390Y-82317814D01*
X128621789Y-82186711D01*
X128621786Y-82186707D01*
X128510292Y-82075213D01*
X128510288Y-82075210D01*
X128379185Y-81987609D01*
X128379172Y-81987602D01*
X128233501Y-81927264D01*
X128233489Y-81927261D01*
X128078845Y-81896500D01*
X128078842Y-81896500D01*
X127921158Y-81896500D01*
X127921155Y-81896500D01*
X127766510Y-81927261D01*
X127766498Y-81927264D01*
X127620827Y-81987602D01*
X127620814Y-81987609D01*
X127489711Y-82075210D01*
X127489707Y-82075213D01*
X127378213Y-82186707D01*
X127378210Y-82186711D01*
X127290609Y-82317814D01*
X127290604Y-82317823D01*
X127264561Y-82380699D01*
X127220720Y-82435102D01*
X127154426Y-82457167D01*
X127086727Y-82439888D01*
X127039116Y-82388751D01*
X127035439Y-82380699D01*
X127009395Y-82317823D01*
X127009390Y-82317814D01*
X126921789Y-82186711D01*
X126921786Y-82186707D01*
X126810292Y-82075213D01*
X126810288Y-82075210D01*
X126679185Y-81987609D01*
X126679172Y-81987602D01*
X126533501Y-81927264D01*
X126533489Y-81927261D01*
X126378845Y-81896500D01*
X126378842Y-81896500D01*
X126221158Y-81896500D01*
X126221155Y-81896500D01*
X126066510Y-81927261D01*
X126066498Y-81927264D01*
X125920827Y-81987602D01*
X125920814Y-81987609D01*
X125789711Y-82075210D01*
X125789707Y-82075213D01*
X125678213Y-82186707D01*
X125678210Y-82186711D01*
X125590609Y-82317814D01*
X125590602Y-82317827D01*
X125530264Y-82463498D01*
X125530261Y-82463508D01*
X125498616Y-82622594D01*
X125466231Y-82684505D01*
X125464680Y-82686083D01*
X125131286Y-83019478D01*
X125019481Y-83131282D01*
X125019475Y-83131290D01*
X124980117Y-83199462D01*
X124980117Y-83199464D01*
X124940423Y-83268214D01*
X124940423Y-83268215D01*
X124899499Y-83420943D01*
X124899499Y-83420945D01*
X124899499Y-83589046D01*
X124899500Y-83589059D01*
X124899500Y-85048743D01*
X124879815Y-85115782D01*
X124827011Y-85161537D01*
X124757853Y-85171481D01*
X124719205Y-85159228D01*
X124678414Y-85138444D01*
X124678413Y-85138443D01*
X124678412Y-85138443D01*
X124476243Y-85072754D01*
X124476241Y-85072753D01*
X124476240Y-85072753D01*
X124314957Y-85047208D01*
X124266287Y-85039500D01*
X124053713Y-85039500D01*
X124005042Y-85047208D01*
X123843760Y-85072753D01*
X123641585Y-85138444D01*
X123452179Y-85234951D01*
X123280215Y-85359889D01*
X123166285Y-85473819D01*
X123104962Y-85507303D01*
X123035270Y-85502319D01*
X122979337Y-85460447D01*
X122962422Y-85429470D01*
X122913354Y-85297913D01*
X122913350Y-85297906D01*
X122827190Y-85182812D01*
X122827187Y-85182809D01*
X122712093Y-85096649D01*
X122712086Y-85096645D01*
X122577379Y-85046403D01*
X122577372Y-85046401D01*
X122517844Y-85040000D01*
X121870000Y-85040000D01*
X121870000Y-85945439D01*
X121816853Y-85914755D01*
X121687143Y-85880000D01*
X121552857Y-85880000D01*
X121423147Y-85914755D01*
X121370000Y-85945439D01*
X121370000Y-85040000D01*
X120722155Y-85040000D01*
X120662627Y-85046401D01*
X120662620Y-85046403D01*
X120527913Y-85096645D01*
X120527906Y-85096649D01*
X120412812Y-85182809D01*
X120412809Y-85182812D01*
X120326649Y-85297906D01*
X120326646Y-85297912D01*
X120277577Y-85429471D01*
X120235705Y-85485404D01*
X120170241Y-85509821D01*
X120101968Y-85494969D01*
X120073714Y-85473818D01*
X119959786Y-85359890D01*
X119787820Y-85234951D01*
X119598414Y-85138444D01*
X119598413Y-85138443D01*
X119598412Y-85138443D01*
X119396243Y-85072754D01*
X119396241Y-85072753D01*
X119396240Y-85072753D01*
X119234957Y-85047208D01*
X119186287Y-85039500D01*
X118973713Y-85039500D01*
X118925042Y-85047208D01*
X118763760Y-85072753D01*
X118561585Y-85138444D01*
X118372179Y-85234951D01*
X118200213Y-85359890D01*
X118049890Y-85510213D01*
X117924949Y-85682182D01*
X117920484Y-85690946D01*
X117872509Y-85741742D01*
X117804688Y-85758536D01*
X117738553Y-85735998D01*
X117699516Y-85690946D01*
X117695050Y-85682182D01*
X117570109Y-85510213D01*
X117419786Y-85359890D01*
X117247820Y-85234951D01*
X117058414Y-85138444D01*
X117058413Y-85138443D01*
X117058412Y-85138443D01*
X116856243Y-85072754D01*
X116856241Y-85072753D01*
X116856240Y-85072753D01*
X116694957Y-85047208D01*
X116646287Y-85039500D01*
X116433713Y-85039500D01*
X116385042Y-85047208D01*
X116223760Y-85072753D01*
X116021585Y-85138444D01*
X115832179Y-85234951D01*
X115660213Y-85359890D01*
X115509890Y-85510213D01*
X115384949Y-85682182D01*
X115380484Y-85690946D01*
X115332509Y-85741742D01*
X115264688Y-85758536D01*
X115198553Y-85735998D01*
X115159516Y-85690946D01*
X115155050Y-85682182D01*
X115030109Y-85510213D01*
X114879786Y-85359890D01*
X114707820Y-85234951D01*
X114518414Y-85138444D01*
X114518413Y-85138443D01*
X114518412Y-85138443D01*
X114316243Y-85072754D01*
X114316241Y-85072753D01*
X114316240Y-85072753D01*
X114154957Y-85047208D01*
X114106287Y-85039500D01*
X113893713Y-85039500D01*
X113845042Y-85047208D01*
X113683760Y-85072753D01*
X113481585Y-85138444D01*
X113292179Y-85234951D01*
X113120213Y-85359890D01*
X112969890Y-85510213D01*
X112844949Y-85682182D01*
X112840484Y-85690946D01*
X112792509Y-85741742D01*
X112724688Y-85758536D01*
X112658553Y-85735998D01*
X112619516Y-85690946D01*
X112615050Y-85682182D01*
X112490109Y-85510213D01*
X112339786Y-85359890D01*
X112167820Y-85234951D01*
X111978414Y-85138444D01*
X111978413Y-85138443D01*
X111978412Y-85138443D01*
X111776243Y-85072754D01*
X111776241Y-85072753D01*
X111776240Y-85072753D01*
X111614957Y-85047208D01*
X111566287Y-85039500D01*
X111353713Y-85039500D01*
X111305042Y-85047208D01*
X111143760Y-85072753D01*
X110941585Y-85138444D01*
X110752179Y-85234951D01*
X110580215Y-85359889D01*
X110466285Y-85473819D01*
X110404962Y-85507303D01*
X110335270Y-85502319D01*
X110279337Y-85460447D01*
X110262422Y-85429470D01*
X110213354Y-85297913D01*
X110213350Y-85297906D01*
X110127190Y-85182812D01*
X110127187Y-85182809D01*
X110012093Y-85096649D01*
X110012086Y-85096645D01*
X109877379Y-85046403D01*
X109877372Y-85046401D01*
X109817844Y-85040000D01*
X109170000Y-85040000D01*
X109170000Y-85945439D01*
X109116853Y-85914755D01*
X108987143Y-85880000D01*
X108852857Y-85880000D01*
X108723147Y-85914755D01*
X108670000Y-85945439D01*
X108670000Y-85040000D01*
X108022155Y-85040000D01*
X107962627Y-85046401D01*
X107962620Y-85046403D01*
X107827913Y-85096645D01*
X107827906Y-85096649D01*
X107712812Y-85182809D01*
X107712809Y-85182812D01*
X107626649Y-85297906D01*
X107626646Y-85297912D01*
X107577577Y-85429471D01*
X107535705Y-85485404D01*
X107470241Y-85509821D01*
X107401968Y-85494969D01*
X107373714Y-85473818D01*
X107259786Y-85359890D01*
X107087820Y-85234951D01*
X106898414Y-85138444D01*
X106898413Y-85138443D01*
X106898412Y-85138443D01*
X106696243Y-85072754D01*
X106696241Y-85072753D01*
X106696240Y-85072753D01*
X106534957Y-85047208D01*
X106486287Y-85039500D01*
X106273713Y-85039500D01*
X106225042Y-85047208D01*
X106063760Y-85072753D01*
X105861585Y-85138444D01*
X105672179Y-85234951D01*
X105500213Y-85359890D01*
X105349890Y-85510213D01*
X105224949Y-85682182D01*
X105220484Y-85690946D01*
X105172509Y-85741742D01*
X105104688Y-85758536D01*
X105038553Y-85735998D01*
X104999516Y-85690946D01*
X104995050Y-85682182D01*
X104870109Y-85510213D01*
X104719786Y-85359890D01*
X104547820Y-85234951D01*
X104358414Y-85138444D01*
X104358413Y-85138443D01*
X104358412Y-85138443D01*
X104156243Y-85072754D01*
X104156241Y-85072753D01*
X104156240Y-85072753D01*
X103994957Y-85047208D01*
X103946287Y-85039500D01*
X103733713Y-85039500D01*
X103685042Y-85047208D01*
X103523760Y-85072753D01*
X103321585Y-85138444D01*
X103132179Y-85234951D01*
X102960213Y-85359890D01*
X102809894Y-85510209D01*
X102809890Y-85510214D01*
X102724818Y-85627307D01*
X102669488Y-85669973D01*
X102599875Y-85675952D01*
X102538080Y-85643347D01*
X102503723Y-85582508D01*
X102500500Y-85554422D01*
X102500500Y-80942308D01*
X102520185Y-80875269D01*
X102572989Y-80829514D01*
X102642147Y-80819570D01*
X102705703Y-80848595D01*
X102734984Y-80886011D01*
X102751528Y-80918481D01*
X102772187Y-80959025D01*
X102901752Y-81137358D01*
X102901756Y-81137363D01*
X103057636Y-81293243D01*
X103057641Y-81293247D01*
X103204138Y-81399682D01*
X103235978Y-81422815D01*
X103339130Y-81475374D01*
X103432393Y-81522895D01*
X103432396Y-81522896D01*
X103500390Y-81544988D01*
X103642049Y-81591015D01*
X103859778Y-81625500D01*
X103859779Y-81625500D01*
X104080221Y-81625500D01*
X104080222Y-81625500D01*
X104297951Y-81591015D01*
X104507606Y-81522895D01*
X104704022Y-81422815D01*
X104882365Y-81293242D01*
X105038242Y-81137365D01*
X105167815Y-80959022D01*
X105267895Y-80762606D01*
X105336015Y-80552951D01*
X105370500Y-80335222D01*
X105370500Y-80114778D01*
X105336015Y-79897049D01*
X105313118Y-79826577D01*
X105749500Y-79826577D01*
X105749500Y-80023422D01*
X105780290Y-80217826D01*
X105841117Y-80405029D01*
X105916488Y-80552952D01*
X105930476Y-80580405D01*
X106046172Y-80739646D01*
X106185354Y-80878828D01*
X106344595Y-80994524D01*
X106414782Y-81030286D01*
X106519970Y-81083882D01*
X106519972Y-81083882D01*
X106519975Y-81083884D01*
X106620317Y-81116487D01*
X106707173Y-81144709D01*
X106901578Y-81175500D01*
X106901583Y-81175500D01*
X107098422Y-81175500D01*
X107292826Y-81144709D01*
X107315428Y-81137365D01*
X107480025Y-81083884D01*
X107655405Y-80994524D01*
X107814646Y-80878828D01*
X107953828Y-80739646D01*
X108069524Y-80580405D01*
X108158884Y-80405025D01*
X108219709Y-80217826D01*
X108233238Y-80132407D01*
X108250500Y-80023422D01*
X108250500Y-79826577D01*
X108219709Y-79632173D01*
X108158882Y-79444970D01*
X108069523Y-79269594D01*
X107963742Y-79124000D01*
X134994500Y-79124000D01*
X134994500Y-83776000D01*
X134994501Y-83776009D01*
X135006052Y-83883450D01*
X135006054Y-83883462D01*
X135017260Y-83934972D01*
X135051383Y-84037497D01*
X135051386Y-84037503D01*
X135129171Y-84158537D01*
X135129179Y-84158548D01*
X135174923Y-84211340D01*
X135174926Y-84211343D01*
X135174930Y-84211347D01*
X135283664Y-84305567D01*
X135283667Y-84305568D01*
X135283668Y-84305569D01*
X135377925Y-84348616D01*
X135414541Y-84365338D01*
X135481580Y-84385023D01*
X135481584Y-84385024D01*
X135624000Y-84405500D01*
X135624003Y-84405500D01*
X139175990Y-84405500D01*
X139176000Y-84405500D01*
X139283456Y-84393947D01*
X139334967Y-84382741D01*
X139369197Y-84371347D01*
X139437497Y-84348616D01*
X139437501Y-84348613D01*
X139437504Y-84348613D01*
X139558543Y-84270825D01*
X139611347Y-84225070D01*
X139705567Y-84116336D01*
X139765338Y-83985459D01*
X139785023Y-83918420D01*
X139785024Y-83918416D01*
X139805500Y-83776000D01*
X139805500Y-79124000D01*
X139793947Y-79016544D01*
X139782741Y-78965033D01*
X139777786Y-78950145D01*
X139748616Y-78862502D01*
X139748613Y-78862496D01*
X139702413Y-78790609D01*
X139670825Y-78741457D01*
X139670820Y-78741451D01*
X139625076Y-78688659D01*
X139625072Y-78688656D01*
X139625070Y-78688653D01*
X139516336Y-78594433D01*
X139516333Y-78594431D01*
X139516331Y-78594430D01*
X139385465Y-78534664D01*
X139385460Y-78534662D01*
X139385459Y-78534662D01*
X139318420Y-78514977D01*
X139318422Y-78514977D01*
X139318417Y-78514976D01*
X139256347Y-78506052D01*
X139176000Y-78494500D01*
X135624000Y-78494500D01*
X135623991Y-78494500D01*
X135623990Y-78494501D01*
X135516549Y-78506052D01*
X135516537Y-78506054D01*
X135465027Y-78517260D01*
X135362502Y-78551383D01*
X135362496Y-78551386D01*
X135241462Y-78629171D01*
X135241451Y-78629179D01*
X135188659Y-78674923D01*
X135094433Y-78783664D01*
X135094430Y-78783668D01*
X135034664Y-78914534D01*
X135014976Y-78981582D01*
X135009949Y-79016549D01*
X134994500Y-79124000D01*
X107963742Y-79124000D01*
X107953828Y-79110354D01*
X107814646Y-78971172D01*
X107655405Y-78855476D01*
X107645637Y-78850499D01*
X107480029Y-78766117D01*
X107292826Y-78705290D01*
X107098422Y-78674500D01*
X107098417Y-78674500D01*
X106901583Y-78674500D01*
X106901578Y-78674500D01*
X106707173Y-78705290D01*
X106519970Y-78766117D01*
X106344594Y-78855476D01*
X106302175Y-78886296D01*
X106185354Y-78971172D01*
X106185352Y-78971174D01*
X106185351Y-78971174D01*
X106046174Y-79110351D01*
X106046174Y-79110352D01*
X106046172Y-79110354D01*
X106009951Y-79160208D01*
X105930476Y-79269594D01*
X105841117Y-79444970D01*
X105780290Y-79632173D01*
X105749500Y-79826577D01*
X105313118Y-79826577D01*
X105267896Y-79687396D01*
X105267895Y-79687393D01*
X105217603Y-79588692D01*
X105167815Y-79490978D01*
X105134392Y-79444975D01*
X105038247Y-79312641D01*
X105038243Y-79312636D01*
X104882363Y-79156756D01*
X104882358Y-79156752D01*
X104704025Y-79027187D01*
X104704024Y-79027186D01*
X104704022Y-79027185D01*
X104614518Y-78981580D01*
X104507606Y-78927104D01*
X104507603Y-78927103D01*
X104297952Y-78858985D01*
X104189086Y-78841742D01*
X104080222Y-78824500D01*
X103859778Y-78824500D01*
X103787201Y-78835995D01*
X103642047Y-78858985D01*
X103432396Y-78927103D01*
X103432393Y-78927104D01*
X103235974Y-79027187D01*
X103057641Y-79156752D01*
X103057636Y-79156756D01*
X102901756Y-79312636D01*
X102901752Y-79312641D01*
X102772185Y-79490976D01*
X102734984Y-79563987D01*
X102687010Y-79614782D01*
X102619189Y-79631577D01*
X102553054Y-79609039D01*
X102509603Y-79554324D01*
X102500500Y-79507691D01*
X102500500Y-75492308D01*
X102520185Y-75425269D01*
X102572989Y-75379514D01*
X102642147Y-75369570D01*
X102705703Y-75398595D01*
X102734984Y-75436011D01*
X102756589Y-75478414D01*
X102772187Y-75509025D01*
X102901752Y-75687358D01*
X102901756Y-75687363D01*
X103057636Y-75843243D01*
X103057641Y-75843247D01*
X103132988Y-75897989D01*
X103235978Y-75972815D01*
X103345903Y-76028825D01*
X103432393Y-76072895D01*
X103432396Y-76072896D01*
X103537221Y-76106955D01*
X103642049Y-76141015D01*
X103859778Y-76175500D01*
X103859779Y-76175500D01*
X104080221Y-76175500D01*
X104080222Y-76175500D01*
X104297951Y-76141015D01*
X104507606Y-76072895D01*
X104704022Y-75972815D01*
X104882365Y-75843242D01*
X105038242Y-75687365D01*
X105167815Y-75509022D01*
X105267895Y-75312606D01*
X105336015Y-75102951D01*
X105356031Y-74976577D01*
X105749500Y-74976577D01*
X105749500Y-75173422D01*
X105780290Y-75367826D01*
X105841117Y-75555029D01*
X105908545Y-75687363D01*
X105930476Y-75730405D01*
X106046172Y-75889646D01*
X106185354Y-76028828D01*
X106344595Y-76144524D01*
X106369452Y-76157189D01*
X106519970Y-76233882D01*
X106519972Y-76233882D01*
X106519975Y-76233884D01*
X106620317Y-76266487D01*
X106707173Y-76294709D01*
X106901578Y-76325500D01*
X106901583Y-76325500D01*
X107098422Y-76325500D01*
X107292826Y-76294709D01*
X107299772Y-76292452D01*
X107480025Y-76233884D01*
X107655405Y-76144524D01*
X107814646Y-76028828D01*
X107953828Y-75889646D01*
X108069524Y-75730405D01*
X108158884Y-75555025D01*
X108219709Y-75367826D01*
X108228455Y-75312606D01*
X108250500Y-75173422D01*
X108250500Y-74976577D01*
X108219709Y-74782173D01*
X108182023Y-74666189D01*
X108158884Y-74594975D01*
X108158882Y-74594972D01*
X108158882Y-74594970D01*
X108069523Y-74419594D01*
X108052145Y-74395675D01*
X107953828Y-74260354D01*
X107814646Y-74121172D01*
X107680901Y-74024000D01*
X125694500Y-74024000D01*
X125694500Y-76976000D01*
X125694501Y-76976009D01*
X125706052Y-77083450D01*
X125706054Y-77083462D01*
X125717260Y-77134972D01*
X125751383Y-77237497D01*
X125751386Y-77237503D01*
X125829171Y-77358537D01*
X125829179Y-77358548D01*
X125874923Y-77411340D01*
X125874926Y-77411343D01*
X125874930Y-77411347D01*
X125983664Y-77505567D01*
X125983667Y-77505568D01*
X125983668Y-77505569D01*
X126077925Y-77548616D01*
X126114541Y-77565338D01*
X126181580Y-77585023D01*
X126181584Y-77585024D01*
X126324000Y-77605500D01*
X126324003Y-77605500D01*
X136175990Y-77605500D01*
X136176000Y-77605500D01*
X136283456Y-77593947D01*
X136334967Y-77582741D01*
X136369197Y-77571347D01*
X136437497Y-77548616D01*
X136437501Y-77548613D01*
X136437504Y-77548613D01*
X136558543Y-77470825D01*
X136611347Y-77425070D01*
X136705567Y-77316336D01*
X136765338Y-77185459D01*
X136785023Y-77118420D01*
X136785024Y-77118416D01*
X136805500Y-76976000D01*
X136805500Y-75990297D01*
X139549984Y-75990297D01*
X139549984Y-75990300D01*
X139560248Y-76133810D01*
X139597573Y-76233882D01*
X139610530Y-76268619D01*
X139644015Y-76329942D01*
X139730239Y-76445123D01*
X139730243Y-76445127D01*
X139730248Y-76445133D01*
X143554873Y-80269757D01*
X143554891Y-80269774D01*
X143639009Y-80337561D01*
X143639019Y-80337569D01*
X143683366Y-80366070D01*
X143683371Y-80366073D01*
X143730113Y-80389470D01*
X143780015Y-80414449D01*
X143780021Y-80414450D01*
X143780023Y-80414451D01*
X143920595Y-80445030D01*
X143920599Y-80445030D01*
X143920607Y-80445032D01*
X143981576Y-80449392D01*
X143990297Y-80450016D01*
X143990299Y-80450016D01*
X143990300Y-80450016D01*
X143999878Y-80449330D01*
X144133810Y-80439752D01*
X144268619Y-80389470D01*
X144329942Y-80355985D01*
X144445123Y-80269761D01*
X144912202Y-79802682D01*
X145293732Y-79421153D01*
X147089497Y-79421153D01*
X147089497Y-79578846D01*
X147120258Y-79733489D01*
X147120261Y-79733501D01*
X147180599Y-79879172D01*
X147180606Y-79879185D01*
X147268206Y-80010287D01*
X147268207Y-80010288D01*
X147268208Y-80010289D01*
X147379708Y-80121789D01*
X147395602Y-80132408D01*
X147414382Y-80147821D01*
X147414394Y-80147830D01*
X147521281Y-80254717D01*
X147521283Y-80254718D01*
X149948084Y-82681520D01*
X149948086Y-82681521D01*
X149948090Y-82681524D01*
X150085009Y-82760573D01*
X150085016Y-82760577D01*
X150237743Y-82801501D01*
X150237745Y-82801501D01*
X150403454Y-82801501D01*
X150403470Y-82801500D01*
X157516703Y-82801500D01*
X157583742Y-82821185D01*
X157604384Y-82837819D01*
X159513181Y-84746616D01*
X159546666Y-84807939D01*
X159549500Y-84834297D01*
X159549500Y-88063330D01*
X159549499Y-88063348D01*
X159549499Y-88229054D01*
X159549498Y-88229054D01*
X159549499Y-88229057D01*
X159590423Y-88381785D01*
X159608635Y-88413329D01*
X159613029Y-88420938D01*
X159613030Y-88420942D01*
X159613031Y-88420942D01*
X159648156Y-88481782D01*
X159669479Y-88518714D01*
X159669481Y-88518717D01*
X159788349Y-88637585D01*
X159788355Y-88637590D01*
X160248959Y-89098194D01*
X160282444Y-89159517D01*
X160277460Y-89229209D01*
X160235588Y-89285142D01*
X160199367Y-89302078D01*
X160199785Y-89303198D01*
X160057671Y-89356202D01*
X160057664Y-89356206D01*
X159942455Y-89442452D01*
X159942452Y-89442455D01*
X159856206Y-89557664D01*
X159856202Y-89557671D01*
X159805908Y-89692517D01*
X159799501Y-89752116D01*
X159799500Y-89752135D01*
X159799500Y-91247870D01*
X159799501Y-91247876D01*
X159805908Y-91307483D01*
X159856202Y-91442328D01*
X159856206Y-91442335D01*
X159942452Y-91557544D01*
X159942455Y-91557547D01*
X160057664Y-91643793D01*
X160057671Y-91643797D01*
X160192517Y-91694091D01*
X160192516Y-91694091D01*
X160199444Y-91694835D01*
X160252127Y-91700500D01*
X161747872Y-91700499D01*
X161807483Y-91694091D01*
X161942331Y-91643796D01*
X162057546Y-91557546D01*
X162143796Y-91442331D01*
X162194091Y-91307483D01*
X162200500Y-91247873D01*
X162200499Y-91110410D01*
X162220183Y-91043374D01*
X162272987Y-90997619D01*
X162342145Y-90987675D01*
X162405701Y-91016699D01*
X162434984Y-91054118D01*
X162473104Y-91128933D01*
X162473240Y-91129199D01*
X162584310Y-91282073D01*
X162717927Y-91415690D01*
X162870801Y-91526760D01*
X162931218Y-91557544D01*
X163039163Y-91612545D01*
X163039165Y-91612545D01*
X163039168Y-91612547D01*
X163090356Y-91629179D01*
X163218881Y-91670940D01*
X163405514Y-91700500D01*
X163405519Y-91700500D01*
X163594486Y-91700500D01*
X163781118Y-91670940D01*
X163782623Y-91670451D01*
X163960832Y-91612547D01*
X164129199Y-91526760D01*
X164282073Y-91415690D01*
X164415690Y-91282073D01*
X164526760Y-91129199D01*
X164612547Y-90960832D01*
X164632069Y-90900748D01*
X164671507Y-90843073D01*
X164735865Y-90815875D01*
X164804712Y-90827790D01*
X164856187Y-90875034D01*
X164867930Y-90900746D01*
X164886984Y-90959390D01*
X164887454Y-90960834D01*
X164917467Y-91019738D01*
X164973240Y-91129199D01*
X165084310Y-91282073D01*
X165217927Y-91415690D01*
X165370801Y-91526760D01*
X165431218Y-91557544D01*
X165539163Y-91612545D01*
X165539165Y-91612545D01*
X165539168Y-91612547D01*
X165590356Y-91629179D01*
X165718881Y-91670940D01*
X165905514Y-91700500D01*
X165905519Y-91700500D01*
X166094486Y-91700500D01*
X166281118Y-91670940D01*
X166282623Y-91670451D01*
X166460832Y-91612547D01*
X166629199Y-91526760D01*
X166782073Y-91415690D01*
X166915690Y-91282073D01*
X167026760Y-91129199D01*
X167112547Y-90960832D01*
X167132332Y-90899938D01*
X167171768Y-90842266D01*
X167236126Y-90815067D01*
X167304973Y-90826981D01*
X167356449Y-90874225D01*
X167368193Y-90899941D01*
X167387914Y-90960637D01*
X167473666Y-91128933D01*
X167492116Y-91154328D01*
X168057861Y-90588584D01*
X168080667Y-90673694D01*
X168139910Y-90776306D01*
X168223694Y-90860090D01*
X168326306Y-90919333D01*
X168411415Y-90942138D01*
X167845669Y-91507882D01*
X167845670Y-91507883D01*
X167871059Y-91526329D01*
X168039362Y-91612085D01*
X168218997Y-91670451D01*
X168405553Y-91700000D01*
X168594447Y-91700000D01*
X168781002Y-91670451D01*
X168960637Y-91612085D01*
X169128937Y-91526331D01*
X169154328Y-91507883D01*
X169154328Y-91507882D01*
X168588584Y-90942138D01*
X168673694Y-90919333D01*
X168776306Y-90860090D01*
X168860090Y-90776306D01*
X168919333Y-90673694D01*
X168942138Y-90588584D01*
X169507882Y-91154328D01*
X169507883Y-91154328D01*
X169526331Y-91128937D01*
X169612085Y-90960637D01*
X169670451Y-90781002D01*
X169700000Y-90594447D01*
X169700000Y-90405552D01*
X169670451Y-90218997D01*
X169612085Y-90039362D01*
X169526329Y-89871059D01*
X169507883Y-89845670D01*
X169507882Y-89845669D01*
X168942137Y-90411414D01*
X168919333Y-90326306D01*
X168860090Y-90223694D01*
X168776306Y-90139910D01*
X168673694Y-90080667D01*
X168588584Y-90057861D01*
X169154328Y-89492116D01*
X169128933Y-89473666D01*
X168960637Y-89387914D01*
X168781002Y-89329548D01*
X168594447Y-89300000D01*
X168405553Y-89300000D01*
X168218997Y-89329548D01*
X168039362Y-89387914D01*
X167871060Y-89473669D01*
X167845670Y-89492116D01*
X167845669Y-89492116D01*
X168411415Y-90057861D01*
X168326306Y-90080667D01*
X168223694Y-90139910D01*
X168139910Y-90223694D01*
X168080667Y-90326306D01*
X168057861Y-90411414D01*
X167492116Y-89845669D01*
X167492116Y-89845670D01*
X167473669Y-89871060D01*
X167387915Y-90039361D01*
X167368193Y-90100059D01*
X167328755Y-90157734D01*
X167264396Y-90184932D01*
X167195550Y-90173017D01*
X167144074Y-90125773D01*
X167132332Y-90100061D01*
X167112547Y-90039168D01*
X167026760Y-89870801D01*
X166915690Y-89717927D01*
X166782073Y-89584310D01*
X166629199Y-89473240D01*
X166460836Y-89387454D01*
X166281118Y-89329059D01*
X166094486Y-89299500D01*
X166094481Y-89299500D01*
X165905519Y-89299500D01*
X165905514Y-89299500D01*
X165718881Y-89329059D01*
X165539167Y-89387453D01*
X165534664Y-89389319D01*
X165534075Y-89387897D01*
X165529053Y-89389103D01*
X165520693Y-89394476D01*
X165485761Y-89399498D01*
X165485759Y-89399499D01*
X165420943Y-89399499D01*
X165420939Y-89399499D01*
X165413333Y-89399500D01*
X165413332Y-89399499D01*
X165413331Y-89399500D01*
X165257911Y-89399500D01*
X165190872Y-89379815D01*
X165170230Y-89363181D01*
X164944404Y-89137355D01*
X164944402Y-89137352D01*
X164825531Y-89018481D01*
X164825530Y-89018480D01*
X164738718Y-88968360D01*
X164738718Y-88968359D01*
X164738714Y-88968358D01*
X164688599Y-88939423D01*
X164535871Y-88898499D01*
X164377757Y-88898499D01*
X164370161Y-88898499D01*
X164370145Y-88898500D01*
X163839041Y-88898500D01*
X163772002Y-88878815D01*
X163751360Y-88862181D01*
X161636819Y-86747640D01*
X161603334Y-86686317D01*
X161600500Y-86659959D01*
X161600500Y-84339059D01*
X161600501Y-84339046D01*
X161600501Y-84170945D01*
X161600501Y-84170943D01*
X161559577Y-84018215D01*
X161514081Y-83939414D01*
X161488599Y-83895277D01*
X161480522Y-83881287D01*
X161480521Y-83881286D01*
X161480520Y-83881284D01*
X161368716Y-83769480D01*
X161368715Y-83769479D01*
X161364385Y-83765149D01*
X161364374Y-83765139D01*
X158636590Y-81037355D01*
X158636588Y-81037352D01*
X158517717Y-80918481D01*
X158517712Y-80918477D01*
X158414778Y-80859049D01*
X158414777Y-80859048D01*
X158380790Y-80839425D01*
X158380789Y-80839424D01*
X158368263Y-80836067D01*
X158228057Y-80798499D01*
X158069943Y-80798499D01*
X158062347Y-80798499D01*
X158062331Y-80798500D01*
X153201576Y-80798500D01*
X153134537Y-80778815D01*
X153088782Y-80726011D01*
X153078838Y-80656853D01*
X153091091Y-80618205D01*
X153091253Y-80617886D01*
X153121557Y-80558412D01*
X153187246Y-80356243D01*
X153220500Y-80146287D01*
X153220500Y-79933713D01*
X153187246Y-79723757D01*
X153121557Y-79521588D01*
X153025051Y-79332184D01*
X153025049Y-79332181D01*
X153025048Y-79332179D01*
X152900109Y-79160213D01*
X152786569Y-79046673D01*
X152753084Y-78985350D01*
X152758068Y-78915658D01*
X152799940Y-78859725D01*
X152830915Y-78842810D01*
X152962331Y-78793796D01*
X153077546Y-78707546D01*
X153163796Y-78592331D01*
X153214091Y-78457483D01*
X153220500Y-78397873D01*
X153220499Y-76602128D01*
X153214091Y-76542517D01*
X153177765Y-76445123D01*
X153163797Y-76407671D01*
X153163793Y-76407664D01*
X153077547Y-76292455D01*
X153077544Y-76292452D01*
X152962335Y-76206206D01*
X152962328Y-76206202D01*
X152830917Y-76157189D01*
X152774983Y-76115318D01*
X152750566Y-76049853D01*
X152765418Y-75981580D01*
X152786563Y-75953332D01*
X152900104Y-75839792D01*
X152910489Y-75825499D01*
X153014349Y-75682546D01*
X153025051Y-75667816D01*
X153121557Y-75478412D01*
X153187246Y-75276243D01*
X153220500Y-75066287D01*
X153220500Y-74853713D01*
X153187246Y-74643757D01*
X153121557Y-74441588D01*
X153098163Y-74395675D01*
X156674500Y-74395675D01*
X156674500Y-74604324D01*
X156707137Y-74810389D01*
X156771612Y-75008820D01*
X156849142Y-75160981D01*
X156866330Y-75194714D01*
X156988965Y-75363505D01*
X157136495Y-75511035D01*
X157305286Y-75633670D01*
X157372302Y-75667816D01*
X157491179Y-75728387D01*
X157491181Y-75728387D01*
X157491184Y-75728389D01*
X157597545Y-75762948D01*
X157689610Y-75792862D01*
X157895676Y-75825500D01*
X157895681Y-75825500D01*
X158104324Y-75825500D01*
X158310389Y-75792862D01*
X158349903Y-75780023D01*
X158508816Y-75728389D01*
X158694714Y-75633670D01*
X158863505Y-75511035D01*
X159011035Y-75363505D01*
X159133670Y-75194714D01*
X159139515Y-75183243D01*
X159187489Y-75132447D01*
X159255310Y-75115651D01*
X159321445Y-75138188D01*
X159360485Y-75183243D01*
X159366328Y-75194712D01*
X159402957Y-75245126D01*
X159488965Y-75363505D01*
X159636495Y-75511035D01*
X159805286Y-75633670D01*
X159872302Y-75667816D01*
X159991179Y-75728387D01*
X159991181Y-75728387D01*
X159991184Y-75728389D01*
X160097545Y-75762948D01*
X160189610Y-75792862D01*
X160395676Y-75825500D01*
X160395681Y-75825500D01*
X160475500Y-75825500D01*
X160542539Y-75845185D01*
X160588294Y-75897989D01*
X160599500Y-75949500D01*
X160599500Y-79588696D01*
X160634103Y-79762658D01*
X160634105Y-79762666D01*
X160658377Y-79821264D01*
X160658380Y-79821270D01*
X160660581Y-79826583D01*
X160701987Y-79926547D01*
X160755064Y-80005982D01*
X160782344Y-80046809D01*
X160800537Y-80074038D01*
X160800538Y-80074039D01*
X163387267Y-82660766D01*
X163420752Y-82722089D01*
X163422059Y-82729046D01*
X163426598Y-82757701D01*
X163447225Y-82821185D01*
X163480128Y-82922447D01*
X163490931Y-82943650D01*
X163558768Y-83076788D01*
X163660586Y-83216928D01*
X163783072Y-83339414D01*
X163923212Y-83441232D01*
X164077555Y-83519873D01*
X164242299Y-83573402D01*
X164413389Y-83600500D01*
X164413390Y-83600500D01*
X164586610Y-83600500D01*
X164586611Y-83600500D01*
X164757701Y-83573402D01*
X164922445Y-83519873D01*
X165076788Y-83441232D01*
X165216928Y-83339414D01*
X165339414Y-83216928D01*
X165441232Y-83076788D01*
X165519873Y-82922445D01*
X165573402Y-82757701D01*
X165600500Y-82586611D01*
X165600500Y-82413389D01*
X165573402Y-82242299D01*
X165519873Y-82077555D01*
X165441232Y-81923212D01*
X165339414Y-81783072D01*
X165216928Y-81660586D01*
X165133975Y-81600317D01*
X165091311Y-81544988D01*
X165085332Y-81475374D01*
X165117938Y-81413579D01*
X165133976Y-81399682D01*
X165216928Y-81339414D01*
X165339414Y-81216928D01*
X165441232Y-81076788D01*
X165519873Y-80922445D01*
X165540474Y-80859041D01*
X166349500Y-80859041D01*
X166349500Y-81140958D01*
X166386295Y-81420439D01*
X166459259Y-81692743D01*
X166567135Y-81953179D01*
X166567140Y-81953190D01*
X166708083Y-82197309D01*
X166708088Y-82197317D01*
X166848803Y-82380699D01*
X166879704Y-82420970D01*
X167079029Y-82620295D01*
X167079033Y-82620298D01*
X167079035Y-82620300D01*
X167302683Y-82791912D01*
X167302690Y-82791916D01*
X167546809Y-82932859D01*
X167546814Y-82932861D01*
X167546817Y-82932863D01*
X167807261Y-83040742D01*
X168079558Y-83113704D01*
X168359049Y-83150500D01*
X168359056Y-83150500D01*
X168640944Y-83150500D01*
X168640951Y-83150500D01*
X168920442Y-83113704D01*
X169192739Y-83040742D01*
X169453183Y-82932863D01*
X169697317Y-82791912D01*
X169920965Y-82620300D01*
X170120300Y-82420965D01*
X170291912Y-82197317D01*
X170432863Y-81953183D01*
X170540742Y-81692739D01*
X170613704Y-81420442D01*
X170650500Y-81140951D01*
X170650500Y-80859049D01*
X170613704Y-80579558D01*
X170540742Y-80307261D01*
X170432863Y-80046817D01*
X170432861Y-80046814D01*
X170432859Y-80046809D01*
X170291916Y-79802690D01*
X170291912Y-79802683D01*
X170120300Y-79579035D01*
X170120298Y-79579033D01*
X170120295Y-79579029D01*
X169920970Y-79379704D01*
X169920965Y-79379700D01*
X169697317Y-79208088D01*
X169697311Y-79208084D01*
X169697309Y-79208083D01*
X169453190Y-79067140D01*
X169453179Y-79067135D01*
X169192743Y-78959259D01*
X168920439Y-78886295D01*
X168640958Y-78849500D01*
X168640951Y-78849500D01*
X168359049Y-78849500D01*
X168359041Y-78849500D01*
X168079560Y-78886295D01*
X167807256Y-78959259D01*
X167546820Y-79067135D01*
X167546809Y-79067140D01*
X167302690Y-79208083D01*
X167302682Y-79208089D01*
X167079029Y-79379704D01*
X166879704Y-79579029D01*
X166796553Y-79687394D01*
X166723139Y-79783069D01*
X166708089Y-79802682D01*
X166708083Y-79802690D01*
X166567140Y-80046809D01*
X166567135Y-80046820D01*
X166459259Y-80307256D01*
X166386295Y-80579560D01*
X166349500Y-80859041D01*
X165540474Y-80859041D01*
X165573402Y-80757701D01*
X165600500Y-80586611D01*
X165600500Y-80413389D01*
X165573402Y-80242299D01*
X165519873Y-80077555D01*
X165441232Y-79923212D01*
X165339414Y-79783072D01*
X165216928Y-79660586D01*
X165133975Y-79600317D01*
X165091311Y-79544988D01*
X165085332Y-79475374D01*
X165117938Y-79413579D01*
X165133976Y-79399682D01*
X165216928Y-79339414D01*
X165339414Y-79216928D01*
X165441232Y-79076788D01*
X165519873Y-78922445D01*
X165573402Y-78757701D01*
X165600500Y-78586611D01*
X165600500Y-78413389D01*
X165573402Y-78242299D01*
X165519873Y-78077555D01*
X165441232Y-77923212D01*
X165441229Y-77923208D01*
X165441229Y-77923207D01*
X165424182Y-77899745D01*
X165400702Y-77833939D01*
X165400500Y-77826859D01*
X165400500Y-75949500D01*
X165420185Y-75882461D01*
X165472989Y-75836706D01*
X165524500Y-75825500D01*
X165604324Y-75825500D01*
X165810389Y-75792862D01*
X165849903Y-75780023D01*
X166008816Y-75728389D01*
X166194714Y-75633670D01*
X166363505Y-75511035D01*
X166479591Y-75394948D01*
X166540910Y-75361466D01*
X166610602Y-75366450D01*
X166666536Y-75408321D01*
X166683451Y-75439299D01*
X166731202Y-75567328D01*
X166731206Y-75567335D01*
X166817452Y-75682544D01*
X166817455Y-75682547D01*
X166932664Y-75768793D01*
X166932671Y-75768797D01*
X167067517Y-75819091D01*
X167067516Y-75819091D01*
X167074444Y-75819835D01*
X167127127Y-75825500D01*
X168872872Y-75825499D01*
X168932483Y-75819091D01*
X169067331Y-75768796D01*
X169182546Y-75682546D01*
X169268796Y-75567331D01*
X169319091Y-75432483D01*
X169325500Y-75372873D01*
X169325499Y-73627128D01*
X169320299Y-73578757D01*
X169319091Y-73567516D01*
X169268797Y-73432671D01*
X169268793Y-73432664D01*
X169182547Y-73317455D01*
X169182544Y-73317452D01*
X169067335Y-73231206D01*
X169067328Y-73231202D01*
X168932482Y-73180908D01*
X168932483Y-73180908D01*
X168872883Y-73174501D01*
X168872881Y-73174500D01*
X168872873Y-73174500D01*
X168872864Y-73174500D01*
X167127129Y-73174500D01*
X167127123Y-73174501D01*
X167067516Y-73180908D01*
X166932671Y-73231202D01*
X166932664Y-73231206D01*
X166817455Y-73317452D01*
X166817452Y-73317455D01*
X166731206Y-73432664D01*
X166731202Y-73432671D01*
X166683451Y-73560700D01*
X166641580Y-73616634D01*
X166576116Y-73641051D01*
X166507843Y-73626199D01*
X166479588Y-73605048D01*
X166363506Y-73488966D01*
X166347178Y-73477103D01*
X166194714Y-73366330D01*
X166008820Y-73271612D01*
X165810389Y-73207137D01*
X165604324Y-73174500D01*
X165604319Y-73174500D01*
X165395681Y-73174500D01*
X165395676Y-73174500D01*
X165189610Y-73207137D01*
X164991179Y-73271612D01*
X164805285Y-73366330D01*
X164636493Y-73488966D01*
X164488966Y-73636493D01*
X164366330Y-73805286D01*
X164360484Y-73816759D01*
X164312508Y-73867554D01*
X164244687Y-73884348D01*
X164178553Y-73861809D01*
X164139516Y-73816759D01*
X164138303Y-73814380D01*
X164133670Y-73805286D01*
X164011035Y-73636495D01*
X163863505Y-73488965D01*
X163694714Y-73366330D01*
X163508820Y-73271612D01*
X163310389Y-73207137D01*
X163104324Y-73174500D01*
X163104319Y-73174500D01*
X162895681Y-73174500D01*
X162895676Y-73174500D01*
X162689610Y-73207137D01*
X162491179Y-73271612D01*
X162305285Y-73366330D01*
X162136493Y-73488966D01*
X161988966Y-73636493D01*
X161866330Y-73805286D01*
X161860484Y-73816759D01*
X161812508Y-73867554D01*
X161744687Y-73884348D01*
X161678553Y-73861809D01*
X161639516Y-73816759D01*
X161638303Y-73814380D01*
X161633670Y-73805286D01*
X161511035Y-73636495D01*
X161363505Y-73488965D01*
X161194714Y-73366330D01*
X161008820Y-73271612D01*
X160810389Y-73207137D01*
X160604324Y-73174500D01*
X160604319Y-73174500D01*
X160395681Y-73174500D01*
X160395676Y-73174500D01*
X160189610Y-73207137D01*
X159991179Y-73271612D01*
X159805285Y-73366330D01*
X159636493Y-73488966D01*
X159488966Y-73636493D01*
X159366330Y-73805286D01*
X159360484Y-73816759D01*
X159312508Y-73867554D01*
X159244687Y-73884348D01*
X159178553Y-73861809D01*
X159139516Y-73816759D01*
X159138303Y-73814380D01*
X159133670Y-73805286D01*
X159011035Y-73636495D01*
X158863505Y-73488965D01*
X158694714Y-73366330D01*
X158508820Y-73271612D01*
X158310389Y-73207137D01*
X158104324Y-73174500D01*
X158104319Y-73174500D01*
X157895681Y-73174500D01*
X157895676Y-73174500D01*
X157689610Y-73207137D01*
X157491179Y-73271612D01*
X157305285Y-73366330D01*
X157136493Y-73488966D01*
X156988966Y-73636493D01*
X156866330Y-73805285D01*
X156771612Y-73991179D01*
X156707137Y-74189610D01*
X156674500Y-74395675D01*
X153098163Y-74395675D01*
X153025051Y-74252184D01*
X153025049Y-74252181D01*
X153025048Y-74252179D01*
X152900109Y-74080213D01*
X152749786Y-73929890D01*
X152577820Y-73804951D01*
X152388414Y-73708444D01*
X152388413Y-73708443D01*
X152388412Y-73708443D01*
X152186243Y-73642754D01*
X152186241Y-73642753D01*
X152186240Y-73642753D01*
X152021329Y-73616634D01*
X151976287Y-73609500D01*
X151763713Y-73609500D01*
X151718671Y-73616634D01*
X151553760Y-73642753D01*
X151351585Y-73708444D01*
X151162179Y-73804951D01*
X150990213Y-73929890D01*
X150839890Y-74080213D01*
X150714951Y-74252179D01*
X150618444Y-74441585D01*
X150618443Y-74441587D01*
X150618443Y-74441588D01*
X150609192Y-74470060D01*
X150552753Y-74643760D01*
X150519500Y-74853713D01*
X150519500Y-75066286D01*
X150547825Y-75245126D01*
X150552754Y-75276243D01*
X150605734Y-75439299D01*
X150618444Y-75478414D01*
X150714951Y-75667820D01*
X150839890Y-75839786D01*
X150953430Y-75953326D01*
X150986915Y-76014649D01*
X150981931Y-76084341D01*
X150940059Y-76140274D01*
X150909083Y-76157189D01*
X150777669Y-76206203D01*
X150777664Y-76206206D01*
X150662455Y-76292452D01*
X150662452Y-76292455D01*
X150576206Y-76407664D01*
X150576202Y-76407671D01*
X150525908Y-76542517D01*
X150519501Y-76602116D01*
X150519501Y-76602123D01*
X150519500Y-76602135D01*
X150519500Y-78397870D01*
X150519501Y-78397876D01*
X150525908Y-78457483D01*
X150576202Y-78592328D01*
X150576206Y-78592335D01*
X150662452Y-78707544D01*
X150662455Y-78707547D01*
X150777664Y-78793793D01*
X150777671Y-78793797D01*
X150909082Y-78842810D01*
X150965016Y-78884681D01*
X150989433Y-78950145D01*
X150974582Y-79018418D01*
X150953431Y-79046673D01*
X150839889Y-79160215D01*
X150714951Y-79332179D01*
X150618444Y-79521585D01*
X150552753Y-79723760D01*
X150519500Y-79933713D01*
X150519500Y-80120903D01*
X150513261Y-80142148D01*
X150511682Y-80164237D01*
X150503609Y-80175020D01*
X150499815Y-80187942D01*
X150483081Y-80202441D01*
X150469810Y-80220170D01*
X150457189Y-80224877D01*
X150447011Y-80233697D01*
X150425093Y-80236848D01*
X150404346Y-80244587D01*
X150391185Y-80241724D01*
X150377853Y-80243641D01*
X150357709Y-80234441D01*
X150336073Y-80229735D01*
X150318347Y-80216466D01*
X150314297Y-80214616D01*
X150307819Y-80208584D01*
X150188834Y-80089599D01*
X150155349Y-80028276D01*
X150160333Y-79958584D01*
X150173410Y-79933032D01*
X150209394Y-79879179D01*
X150269737Y-79733497D01*
X150300500Y-79578842D01*
X150300500Y-79421158D01*
X150300500Y-79421155D01*
X150300499Y-79421153D01*
X150270352Y-79269595D01*
X150269737Y-79266503D01*
X150269735Y-79266498D01*
X150209397Y-79120827D01*
X150209390Y-79120814D01*
X150121789Y-78989711D01*
X150121786Y-78989707D01*
X150010292Y-78878213D01*
X150010288Y-78878210D01*
X149879185Y-78790609D01*
X149879172Y-78790602D01*
X149733501Y-78730264D01*
X149733489Y-78730261D01*
X149578845Y-78699500D01*
X149578842Y-78699500D01*
X149421158Y-78699500D01*
X149421155Y-78699500D01*
X149266510Y-78730261D01*
X149266498Y-78730264D01*
X149142452Y-78781645D01*
X149072982Y-78789114D01*
X149047548Y-78781645D01*
X148923501Y-78730264D01*
X148923489Y-78730261D01*
X148768845Y-78699500D01*
X148768842Y-78699500D01*
X148611158Y-78699500D01*
X148611155Y-78699500D01*
X148456510Y-78730261D01*
X148456498Y-78730264D01*
X148337450Y-78779575D01*
X148267980Y-78787044D01*
X148242546Y-78779575D01*
X148123498Y-78730264D01*
X148123486Y-78730261D01*
X147968842Y-78699500D01*
X147968839Y-78699500D01*
X147811155Y-78699500D01*
X147811152Y-78699500D01*
X147656507Y-78730261D01*
X147656495Y-78730264D01*
X147510824Y-78790602D01*
X147510811Y-78790609D01*
X147379708Y-78878210D01*
X147379704Y-78878213D01*
X147268210Y-78989707D01*
X147268207Y-78989711D01*
X147180606Y-79120814D01*
X147180599Y-79120827D01*
X147120261Y-79266498D01*
X147120258Y-79266510D01*
X147089497Y-79421153D01*
X145293732Y-79421153D01*
X145387500Y-79327385D01*
X148446270Y-76268614D01*
X149469761Y-75245123D01*
X149469767Y-75245114D01*
X149469774Y-75245108D01*
X149510386Y-75194712D01*
X149537569Y-75160981D01*
X149566070Y-75116634D01*
X149614449Y-75019985D01*
X149645032Y-74879393D01*
X149650016Y-74809701D01*
X149639752Y-74666190D01*
X149589470Y-74531381D01*
X149555985Y-74470058D01*
X149469761Y-74354877D01*
X149469756Y-74354872D01*
X149469751Y-74354866D01*
X145645126Y-70530242D01*
X145645108Y-70530225D01*
X145560990Y-70462438D01*
X145560985Y-70462434D01*
X145560983Y-70462433D01*
X145560981Y-70462431D01*
X145516634Y-70433930D01*
X145516635Y-70433930D01*
X145516628Y-70433926D01*
X145419987Y-70385552D01*
X145419986Y-70385551D01*
X145419985Y-70385551D01*
X145419983Y-70385550D01*
X145419976Y-70385548D01*
X145279404Y-70354969D01*
X145279393Y-70354968D01*
X145256162Y-70353306D01*
X145209703Y-70349984D01*
X145209700Y-70349984D01*
X145066189Y-70360248D01*
X144931385Y-70410528D01*
X144870060Y-70444013D01*
X144754878Y-70530238D01*
X144754866Y-70530248D01*
X139730242Y-75554873D01*
X139730225Y-75554891D01*
X139662438Y-75639009D01*
X139662434Y-75639014D01*
X139633926Y-75683371D01*
X139585552Y-75780012D01*
X139585548Y-75780023D01*
X139554969Y-75920595D01*
X139554968Y-75920607D01*
X139549984Y-75990297D01*
X136805500Y-75990297D01*
X136805500Y-74024000D01*
X136793947Y-73916544D01*
X136782741Y-73865033D01*
X136779498Y-73855290D01*
X136748616Y-73762502D01*
X136748613Y-73762496D01*
X136697950Y-73683664D01*
X136670825Y-73641457D01*
X136670473Y-73641051D01*
X136625076Y-73588659D01*
X136625072Y-73588656D01*
X136625070Y-73588653D01*
X136516336Y-73494433D01*
X136516333Y-73494431D01*
X136516331Y-73494430D01*
X136385465Y-73434664D01*
X136385460Y-73434662D01*
X136385459Y-73434662D01*
X136318420Y-73414977D01*
X136318422Y-73414977D01*
X136318417Y-73414976D01*
X136256347Y-73406052D01*
X136176000Y-73394500D01*
X126324000Y-73394500D01*
X126323991Y-73394500D01*
X126323990Y-73394501D01*
X126216549Y-73406052D01*
X126216537Y-73406054D01*
X126165027Y-73417260D01*
X126062502Y-73451383D01*
X126062496Y-73451386D01*
X125941462Y-73529171D01*
X125941451Y-73529179D01*
X125888659Y-73574923D01*
X125794433Y-73683664D01*
X125794430Y-73683668D01*
X125734664Y-73814534D01*
X125714976Y-73881582D01*
X125709949Y-73916549D01*
X125694500Y-74024000D01*
X107680901Y-74024000D01*
X107655405Y-74005476D01*
X107480029Y-73916117D01*
X107292826Y-73855290D01*
X107098422Y-73824500D01*
X107098417Y-73824500D01*
X106901583Y-73824500D01*
X106901578Y-73824500D01*
X106707173Y-73855290D01*
X106519970Y-73916117D01*
X106344594Y-74005476D01*
X106272722Y-74057695D01*
X106185354Y-74121172D01*
X106185352Y-74121174D01*
X106185351Y-74121174D01*
X106046174Y-74260351D01*
X106046174Y-74260352D01*
X106046172Y-74260354D01*
X105996485Y-74328741D01*
X105930476Y-74419594D01*
X105841117Y-74594970D01*
X105780290Y-74782173D01*
X105749500Y-74976577D01*
X105356031Y-74976577D01*
X105370500Y-74885222D01*
X105370500Y-74664778D01*
X105336015Y-74447049D01*
X105275355Y-74260354D01*
X105267896Y-74237396D01*
X105267895Y-74237393D01*
X105208676Y-74121172D01*
X105167815Y-74040978D01*
X105087110Y-73929896D01*
X105038247Y-73862641D01*
X105038243Y-73862636D01*
X104882363Y-73706756D01*
X104882358Y-73706752D01*
X104704025Y-73577187D01*
X104704024Y-73577186D01*
X104704022Y-73577185D01*
X104609806Y-73529179D01*
X104507606Y-73477104D01*
X104507603Y-73477103D01*
X104297952Y-73408985D01*
X104189086Y-73391742D01*
X104080222Y-73374500D01*
X103859778Y-73374500D01*
X103787201Y-73385995D01*
X103642047Y-73408985D01*
X103432396Y-73477103D01*
X103432393Y-73477104D01*
X103235974Y-73577187D01*
X103057641Y-73706752D01*
X103057636Y-73706756D01*
X102901756Y-73862636D01*
X102901752Y-73862641D01*
X102772185Y-74040976D01*
X102734984Y-74113987D01*
X102687010Y-74164782D01*
X102619189Y-74181577D01*
X102553054Y-74159039D01*
X102509603Y-74104324D01*
X102500500Y-74057691D01*
X102500500Y-69445577D01*
X102520185Y-69378538D01*
X102572989Y-69332783D01*
X102642147Y-69322839D01*
X102705703Y-69351864D01*
X102724816Y-69372689D01*
X102729066Y-69378538D01*
X102809896Y-69489792D01*
X102960213Y-69640109D01*
X103132179Y-69765048D01*
X103132181Y-69765049D01*
X103132184Y-69765051D01*
X103321588Y-69861557D01*
X103523757Y-69927246D01*
X103733713Y-69960500D01*
X103733714Y-69960500D01*
X103946286Y-69960500D01*
X103946287Y-69960500D01*
X104156243Y-69927246D01*
X104358412Y-69861557D01*
X104547816Y-69765051D01*
X104634138Y-69702335D01*
X104719786Y-69640109D01*
X104719788Y-69640106D01*
X104719792Y-69640104D01*
X104870104Y-69489792D01*
X104870106Y-69489788D01*
X104870109Y-69489786D01*
X104995048Y-69317820D01*
X104995047Y-69317820D01*
X104995051Y-69317816D01*
X104999514Y-69309054D01*
X105047488Y-69258259D01*
X105115308Y-69241463D01*
X105181444Y-69263999D01*
X105220486Y-69309056D01*
X105224951Y-69317820D01*
X105349890Y-69489786D01*
X105500213Y-69640109D01*
X105672179Y-69765048D01*
X105672181Y-69765049D01*
X105672184Y-69765051D01*
X105861588Y-69861557D01*
X106063757Y-69927246D01*
X106273713Y-69960500D01*
X106273714Y-69960500D01*
X106486286Y-69960500D01*
X106486287Y-69960500D01*
X106696243Y-69927246D01*
X106898412Y-69861557D01*
X107087816Y-69765051D01*
X107174478Y-69702088D01*
X107259784Y-69640110D01*
X107259784Y-69640109D01*
X107259792Y-69640104D01*
X107373717Y-69526178D01*
X107435036Y-69492696D01*
X107504728Y-69497680D01*
X107560662Y-69539551D01*
X107577577Y-69570528D01*
X107626646Y-69702088D01*
X107626649Y-69702093D01*
X107712809Y-69817187D01*
X107712812Y-69817190D01*
X107827906Y-69903350D01*
X107827913Y-69903354D01*
X107962620Y-69953596D01*
X107962627Y-69953598D01*
X108022155Y-69959999D01*
X108022172Y-69960000D01*
X108670000Y-69960000D01*
X108670000Y-69054560D01*
X108723147Y-69085245D01*
X108852857Y-69120000D01*
X108987143Y-69120000D01*
X109116853Y-69085245D01*
X109170000Y-69054560D01*
X109170000Y-69960000D01*
X109817828Y-69960000D01*
X109817844Y-69959999D01*
X109877372Y-69953598D01*
X109877379Y-69953596D01*
X110012086Y-69903354D01*
X110012093Y-69903350D01*
X110127187Y-69817190D01*
X110127190Y-69817187D01*
X110213350Y-69702093D01*
X110213354Y-69702086D01*
X110262422Y-69570529D01*
X110304293Y-69514595D01*
X110369757Y-69490178D01*
X110438030Y-69505030D01*
X110466285Y-69526181D01*
X110580213Y-69640109D01*
X110752179Y-69765048D01*
X110752181Y-69765049D01*
X110752184Y-69765051D01*
X110941588Y-69861557D01*
X111143757Y-69927246D01*
X111353713Y-69960500D01*
X111353714Y-69960500D01*
X111566286Y-69960500D01*
X111566287Y-69960500D01*
X111776243Y-69927246D01*
X111978412Y-69861557D01*
X112167816Y-69765051D01*
X112254138Y-69702335D01*
X112339786Y-69640109D01*
X112339788Y-69640106D01*
X112339792Y-69640104D01*
X112490104Y-69489792D01*
X112490106Y-69489788D01*
X112490109Y-69489786D01*
X112615048Y-69317820D01*
X112615047Y-69317820D01*
X112615051Y-69317816D01*
X112619514Y-69309054D01*
X112667488Y-69258259D01*
X112735308Y-69241463D01*
X112801444Y-69263999D01*
X112840486Y-69309056D01*
X112844951Y-69317820D01*
X112969890Y-69489786D01*
X113120213Y-69640109D01*
X113292179Y-69765048D01*
X113292181Y-69765049D01*
X113292184Y-69765051D01*
X113481588Y-69861557D01*
X113683757Y-69927246D01*
X113893713Y-69960500D01*
X113893714Y-69960500D01*
X114106286Y-69960500D01*
X114106287Y-69960500D01*
X114316243Y-69927246D01*
X114518412Y-69861557D01*
X114707816Y-69765051D01*
X114794138Y-69702335D01*
X114879786Y-69640109D01*
X114879788Y-69640106D01*
X114879792Y-69640104D01*
X115030104Y-69489792D01*
X115030106Y-69489788D01*
X115030109Y-69489786D01*
X115155048Y-69317820D01*
X115155047Y-69317820D01*
X115155051Y-69317816D01*
X115159514Y-69309054D01*
X115207488Y-69258259D01*
X115275308Y-69241463D01*
X115341444Y-69263999D01*
X115380486Y-69309056D01*
X115384951Y-69317820D01*
X115509890Y-69489786D01*
X115660213Y-69640109D01*
X115832179Y-69765048D01*
X115832181Y-69765049D01*
X115832184Y-69765051D01*
X116021588Y-69861557D01*
X116223757Y-69927246D01*
X116433713Y-69960500D01*
X116433714Y-69960500D01*
X116646286Y-69960500D01*
X116646287Y-69960500D01*
X116856243Y-69927246D01*
X117058412Y-69861557D01*
X117247816Y-69765051D01*
X117334138Y-69702335D01*
X117419786Y-69640109D01*
X117419788Y-69640106D01*
X117419792Y-69640104D01*
X117570104Y-69489792D01*
X117570106Y-69489788D01*
X117570109Y-69489786D01*
X117695048Y-69317820D01*
X117695047Y-69317820D01*
X117695051Y-69317816D01*
X117699514Y-69309054D01*
X117747488Y-69258259D01*
X117815308Y-69241463D01*
X117881444Y-69263999D01*
X117920486Y-69309056D01*
X117924951Y-69317820D01*
X118049890Y-69489786D01*
X118200213Y-69640109D01*
X118372179Y-69765048D01*
X118372181Y-69765049D01*
X118372184Y-69765051D01*
X118561588Y-69861557D01*
X118763757Y-69927246D01*
X118973713Y-69960500D01*
X118973714Y-69960500D01*
X119186286Y-69960500D01*
X119186287Y-69960500D01*
X119396243Y-69927246D01*
X119598412Y-69861557D01*
X119787816Y-69765051D01*
X119874478Y-69702088D01*
X119959784Y-69640110D01*
X119959784Y-69640109D01*
X119959792Y-69640104D01*
X120073329Y-69526566D01*
X120134648Y-69493084D01*
X120204340Y-69498068D01*
X120260274Y-69539939D01*
X120277189Y-69570917D01*
X120326202Y-69702328D01*
X120326206Y-69702335D01*
X120412452Y-69817544D01*
X120412455Y-69817547D01*
X120527664Y-69903793D01*
X120527671Y-69903797D01*
X120662517Y-69954091D01*
X120662516Y-69954091D01*
X120669444Y-69954835D01*
X120722127Y-69960500D01*
X122517872Y-69960499D01*
X122577483Y-69954091D01*
X122712331Y-69903796D01*
X122827546Y-69817546D01*
X122913796Y-69702331D01*
X122962810Y-69570916D01*
X123004681Y-69514984D01*
X123070145Y-69490566D01*
X123138418Y-69505417D01*
X123166673Y-69526569D01*
X123280213Y-69640109D01*
X123452179Y-69765048D01*
X123452181Y-69765049D01*
X123452184Y-69765051D01*
X123641588Y-69861557D01*
X123843757Y-69927246D01*
X124053713Y-69960500D01*
X124053714Y-69960500D01*
X124266286Y-69960500D01*
X124266287Y-69960500D01*
X124476243Y-69927246D01*
X124678412Y-69861557D01*
X124867816Y-69765051D01*
X124954138Y-69702335D01*
X125039786Y-69640109D01*
X125039788Y-69640106D01*
X125039792Y-69640104D01*
X125190104Y-69489792D01*
X125190106Y-69489788D01*
X125190109Y-69489786D01*
X125315048Y-69317820D01*
X125315047Y-69317820D01*
X125315051Y-69317816D01*
X125319514Y-69309054D01*
X125367488Y-69258259D01*
X125435308Y-69241463D01*
X125501444Y-69263999D01*
X125540486Y-69309056D01*
X125544951Y-69317820D01*
X125669890Y-69489786D01*
X125820213Y-69640109D01*
X125992179Y-69765048D01*
X125992181Y-69765049D01*
X125992184Y-69765051D01*
X126181588Y-69861557D01*
X126383757Y-69927246D01*
X126593713Y-69960500D01*
X126593714Y-69960500D01*
X126806286Y-69960500D01*
X126806287Y-69960500D01*
X127016243Y-69927246D01*
X127218412Y-69861557D01*
X127407816Y-69765051D01*
X127494138Y-69702335D01*
X127579786Y-69640109D01*
X127579788Y-69640106D01*
X127579792Y-69640104D01*
X127730104Y-69489792D01*
X127730106Y-69489788D01*
X127730109Y-69489786D01*
X127855048Y-69317820D01*
X127855047Y-69317820D01*
X127855051Y-69317816D01*
X127859514Y-69309054D01*
X127907488Y-69258259D01*
X127975308Y-69241463D01*
X128041444Y-69263999D01*
X128080486Y-69309056D01*
X128084951Y-69317820D01*
X128209890Y-69489786D01*
X128360213Y-69640109D01*
X128532179Y-69765048D01*
X128532181Y-69765049D01*
X128532184Y-69765051D01*
X128721588Y-69861557D01*
X128923757Y-69927246D01*
X129133713Y-69960500D01*
X129133714Y-69960500D01*
X129346286Y-69960500D01*
X129346287Y-69960500D01*
X129556243Y-69927246D01*
X129758412Y-69861557D01*
X129947816Y-69765051D01*
X130034138Y-69702335D01*
X130119786Y-69640109D01*
X130119788Y-69640106D01*
X130119792Y-69640104D01*
X130270104Y-69489792D01*
X130270106Y-69489788D01*
X130270109Y-69489786D01*
X130395048Y-69317820D01*
X130395047Y-69317820D01*
X130395051Y-69317816D01*
X130399514Y-69309054D01*
X130447488Y-69258259D01*
X130515308Y-69241463D01*
X130581444Y-69263999D01*
X130620486Y-69309056D01*
X130624951Y-69317820D01*
X130749890Y-69489786D01*
X130900213Y-69640109D01*
X131072179Y-69765048D01*
X131072181Y-69765049D01*
X131072184Y-69765051D01*
X131261588Y-69861557D01*
X131313818Y-69878527D01*
X131371492Y-69917963D01*
X131398692Y-69982321D01*
X131399500Y-69996458D01*
X131399500Y-71670234D01*
X131379815Y-71737273D01*
X131378602Y-71739125D01*
X131290609Y-71870814D01*
X131290602Y-71870827D01*
X131230264Y-72016498D01*
X131230261Y-72016510D01*
X131199500Y-72171153D01*
X131199500Y-72328846D01*
X131230261Y-72483489D01*
X131230264Y-72483501D01*
X131290602Y-72629172D01*
X131290609Y-72629185D01*
X131378210Y-72760288D01*
X131378213Y-72760292D01*
X131489707Y-72871786D01*
X131489711Y-72871789D01*
X131620814Y-72959390D01*
X131620827Y-72959397D01*
X131766498Y-73019735D01*
X131766503Y-73019737D01*
X131921153Y-73050499D01*
X131921156Y-73050500D01*
X131921158Y-73050500D01*
X132078844Y-73050500D01*
X132078845Y-73050499D01*
X132233497Y-73019737D01*
X132379179Y-72959394D01*
X132510289Y-72871789D01*
X132621789Y-72760289D01*
X132709394Y-72629179D01*
X132769737Y-72483497D01*
X132800500Y-72328842D01*
X132800500Y-72171158D01*
X132800500Y-72171155D01*
X132800499Y-72171153D01*
X132769738Y-72016510D01*
X132769737Y-72016503D01*
X132769735Y-72016498D01*
X132709397Y-71870827D01*
X132709390Y-71870814D01*
X132621398Y-71739125D01*
X132600520Y-71672447D01*
X132600500Y-71670234D01*
X132600500Y-69746363D01*
X132609416Y-69715997D01*
X132616651Y-69685169D01*
X132619358Y-69682139D01*
X132620185Y-69679324D01*
X132638260Y-69657263D01*
X132644538Y-69651185D01*
X132659792Y-69640104D01*
X132774500Y-69525395D01*
X132775155Y-69524762D01*
X132805261Y-69508954D01*
X132835036Y-69492696D01*
X132836084Y-69492770D01*
X132837016Y-69492282D01*
X132870865Y-69495258D01*
X132904728Y-69497680D01*
X132905569Y-69498309D01*
X132906618Y-69498402D01*
X132933505Y-69519222D01*
X132960661Y-69539551D01*
X132961323Y-69540763D01*
X132961861Y-69541180D01*
X132962435Y-69542800D01*
X132977577Y-69570528D01*
X133026646Y-69702088D01*
X133026649Y-69702093D01*
X133112809Y-69817187D01*
X133112812Y-69817190D01*
X133227906Y-69903350D01*
X133227913Y-69903354D01*
X133362620Y-69953596D01*
X133362627Y-69953598D01*
X133422155Y-69959999D01*
X133422172Y-69960000D01*
X134070000Y-69960000D01*
X134070000Y-69054560D01*
X134123147Y-69085245D01*
X134252857Y-69120000D01*
X134387143Y-69120000D01*
X134516853Y-69085245D01*
X134570000Y-69054560D01*
X134570000Y-69960000D01*
X135217828Y-69960000D01*
X135217844Y-69959999D01*
X135277372Y-69953598D01*
X135277379Y-69953596D01*
X135412086Y-69903354D01*
X135412093Y-69903350D01*
X135527187Y-69817190D01*
X135527190Y-69817187D01*
X135613350Y-69702093D01*
X135613354Y-69702086D01*
X135662422Y-69570529D01*
X135704293Y-69514595D01*
X135769757Y-69490178D01*
X135838030Y-69505030D01*
X135866285Y-69526181D01*
X135980211Y-69640107D01*
X136098385Y-69725964D01*
X136141051Y-69781293D01*
X136149500Y-69826282D01*
X136149500Y-71670234D01*
X136129815Y-71737273D01*
X136128602Y-71739125D01*
X136040609Y-71870814D01*
X136040602Y-71870827D01*
X135980264Y-72016498D01*
X135980261Y-72016510D01*
X135949500Y-72171153D01*
X135949500Y-72328846D01*
X135980261Y-72483489D01*
X135980264Y-72483501D01*
X136040602Y-72629172D01*
X136040609Y-72629185D01*
X136128210Y-72760288D01*
X136128213Y-72760292D01*
X136239707Y-72871786D01*
X136239711Y-72871789D01*
X136370814Y-72959390D01*
X136370827Y-72959397D01*
X136516498Y-73019735D01*
X136516503Y-73019737D01*
X136671153Y-73050499D01*
X136671156Y-73050500D01*
X136671158Y-73050500D01*
X136828844Y-73050500D01*
X136828845Y-73050499D01*
X136983497Y-73019737D01*
X137129179Y-72959394D01*
X137260289Y-72871789D01*
X137371789Y-72760289D01*
X137459394Y-72629179D01*
X137519737Y-72483497D01*
X137550500Y-72328842D01*
X137550500Y-72171158D01*
X137550500Y-72171155D01*
X137550499Y-72171153D01*
X137519738Y-72016510D01*
X137519737Y-72016503D01*
X137519735Y-72016498D01*
X137459397Y-71870827D01*
X137459390Y-71870814D01*
X137371398Y-71739125D01*
X137350520Y-71672447D01*
X137350500Y-71670234D01*
X137350500Y-69951766D01*
X137370185Y-69884727D01*
X137418203Y-69841282D01*
X137567816Y-69765051D01*
X137654138Y-69702335D01*
X137739786Y-69640109D01*
X137739788Y-69640106D01*
X137739792Y-69640104D01*
X137890104Y-69489792D01*
X137890106Y-69489788D01*
X137890109Y-69489786D01*
X138015048Y-69317820D01*
X138015047Y-69317820D01*
X138015051Y-69317816D01*
X138019514Y-69309054D01*
X138067488Y-69258259D01*
X138135308Y-69241463D01*
X138201444Y-69263999D01*
X138240486Y-69309056D01*
X138244951Y-69317820D01*
X138369890Y-69489786D01*
X138520213Y-69640109D01*
X138692182Y-69765050D01*
X138692184Y-69765051D01*
X138831795Y-69836186D01*
X138882590Y-69884159D01*
X138899500Y-69946670D01*
X138899500Y-71670234D01*
X138879815Y-71737273D01*
X138878602Y-71739125D01*
X138790609Y-71870814D01*
X138790602Y-71870827D01*
X138730264Y-72016498D01*
X138730261Y-72016510D01*
X138699500Y-72171153D01*
X138699500Y-72328846D01*
X138730261Y-72483489D01*
X138730264Y-72483501D01*
X138790602Y-72629172D01*
X138790609Y-72629185D01*
X138878210Y-72760288D01*
X138878213Y-72760292D01*
X138989707Y-72871786D01*
X138989711Y-72871789D01*
X139120814Y-72959390D01*
X139120827Y-72959397D01*
X139266498Y-73019735D01*
X139266503Y-73019737D01*
X139421153Y-73050499D01*
X139421156Y-73050500D01*
X139421158Y-73050500D01*
X139578844Y-73050500D01*
X139578845Y-73050499D01*
X139733497Y-73019737D01*
X139879179Y-72959394D01*
X140010289Y-72871789D01*
X140121789Y-72760289D01*
X140209394Y-72629179D01*
X140269737Y-72483497D01*
X140300500Y-72328842D01*
X140300500Y-72171158D01*
X140300500Y-72171155D01*
X140300499Y-72171153D01*
X140269738Y-72016510D01*
X140269737Y-72016503D01*
X140269735Y-72016498D01*
X140209397Y-71870827D01*
X140209390Y-71870814D01*
X140121398Y-71739125D01*
X140100520Y-71672447D01*
X140100500Y-71670234D01*
X140100500Y-69833547D01*
X140120185Y-69766508D01*
X140151614Y-69733230D01*
X140279792Y-69640104D01*
X140430104Y-69489792D01*
X140430106Y-69489788D01*
X140430109Y-69489786D01*
X140555048Y-69317820D01*
X140555047Y-69317820D01*
X140555051Y-69317816D01*
X140559514Y-69309054D01*
X140607488Y-69258259D01*
X140675308Y-69241463D01*
X140741444Y-69263999D01*
X140780486Y-69309056D01*
X140784951Y-69317820D01*
X140909890Y-69489786D01*
X141060213Y-69640109D01*
X141232179Y-69765048D01*
X141232181Y-69765049D01*
X141232184Y-69765051D01*
X141421588Y-69861557D01*
X141623757Y-69927246D01*
X141833713Y-69960500D01*
X141833714Y-69960500D01*
X142046286Y-69960500D01*
X142046287Y-69960500D01*
X142256243Y-69927246D01*
X142458412Y-69861557D01*
X142647816Y-69765051D01*
X142734138Y-69702335D01*
X142819786Y-69640109D01*
X142819788Y-69640106D01*
X142819792Y-69640104D01*
X142970104Y-69489792D01*
X142970106Y-69489788D01*
X142970109Y-69489786D01*
X143095048Y-69317820D01*
X143095047Y-69317820D01*
X143095051Y-69317816D01*
X143099514Y-69309054D01*
X143147488Y-69258259D01*
X143215308Y-69241463D01*
X143281444Y-69263999D01*
X143320486Y-69309056D01*
X143324951Y-69317820D01*
X143449890Y-69489786D01*
X143600213Y-69640109D01*
X143772179Y-69765048D01*
X143772181Y-69765049D01*
X143772184Y-69765051D01*
X143961588Y-69861557D01*
X144163757Y-69927246D01*
X144373713Y-69960500D01*
X144373714Y-69960500D01*
X144586286Y-69960500D01*
X144586287Y-69960500D01*
X144796243Y-69927246D01*
X144998412Y-69861557D01*
X145187816Y-69765051D01*
X145274478Y-69702088D01*
X145359784Y-69640110D01*
X145359784Y-69640109D01*
X145359792Y-69640104D01*
X145473717Y-69526178D01*
X145535036Y-69492696D01*
X145604728Y-69497680D01*
X145660662Y-69539551D01*
X145677577Y-69570528D01*
X145726646Y-69702088D01*
X145726649Y-69702093D01*
X145812809Y-69817187D01*
X145812812Y-69817190D01*
X145927906Y-69903350D01*
X145927913Y-69903354D01*
X146062620Y-69953596D01*
X146062627Y-69953598D01*
X146122155Y-69959999D01*
X146122172Y-69960000D01*
X146770000Y-69960000D01*
X146770000Y-69054560D01*
X146823147Y-69085245D01*
X146952857Y-69120000D01*
X147087143Y-69120000D01*
X147216853Y-69085245D01*
X147270000Y-69054560D01*
X147270000Y-69960000D01*
X147917828Y-69960000D01*
X147917844Y-69959999D01*
X147977372Y-69953598D01*
X147977379Y-69953596D01*
X148112086Y-69903354D01*
X148112093Y-69903350D01*
X148227187Y-69817190D01*
X148227190Y-69817187D01*
X148313350Y-69702093D01*
X148313354Y-69702086D01*
X148362422Y-69570529D01*
X148404293Y-69514595D01*
X148469757Y-69490178D01*
X148538030Y-69505030D01*
X148566285Y-69526181D01*
X148680213Y-69640109D01*
X148852179Y-69765048D01*
X148852181Y-69765049D01*
X148852184Y-69765051D01*
X149041588Y-69861557D01*
X149243757Y-69927246D01*
X149453713Y-69960500D01*
X149453714Y-69960500D01*
X149666286Y-69960500D01*
X149666287Y-69960500D01*
X149876243Y-69927246D01*
X150078412Y-69861557D01*
X150267816Y-69765051D01*
X150354138Y-69702335D01*
X150439786Y-69640109D01*
X150439788Y-69640106D01*
X150439792Y-69640104D01*
X150590104Y-69489792D01*
X150590106Y-69489788D01*
X150590109Y-69489786D01*
X150715048Y-69317820D01*
X150715047Y-69317820D01*
X150715051Y-69317816D01*
X150719514Y-69309054D01*
X150767488Y-69258259D01*
X150835308Y-69241463D01*
X150901444Y-69263999D01*
X150940486Y-69309056D01*
X150944951Y-69317820D01*
X151069890Y-69489786D01*
X151220213Y-69640109D01*
X151392179Y-69765048D01*
X151392181Y-69765049D01*
X151392184Y-69765051D01*
X151581588Y-69861557D01*
X151783757Y-69927246D01*
X151993713Y-69960500D01*
X151993714Y-69960500D01*
X152206286Y-69960500D01*
X152206287Y-69960500D01*
X152416243Y-69927246D01*
X152618412Y-69861557D01*
X152807816Y-69765051D01*
X152894138Y-69702335D01*
X152979786Y-69640109D01*
X152979788Y-69640106D01*
X152979792Y-69640104D01*
X153130104Y-69489792D01*
X153130106Y-69489788D01*
X153130109Y-69489786D01*
X153255048Y-69317820D01*
X153255047Y-69317820D01*
X153255051Y-69317816D01*
X153351557Y-69128412D01*
X153417246Y-68926243D01*
X153450500Y-68716287D01*
X153450500Y-68503713D01*
X153417246Y-68293757D01*
X153351557Y-68091588D01*
X153255051Y-67902184D01*
X153255049Y-67902181D01*
X153255048Y-67902179D01*
X153130109Y-67730213D01*
X152979786Y-67579890D01*
X152807820Y-67454951D01*
X152618414Y-67358444D01*
X152618413Y-67358443D01*
X152618412Y-67358443D01*
X152416243Y-67292754D01*
X152416241Y-67292753D01*
X152416240Y-67292753D01*
X152254957Y-67267208D01*
X152206287Y-67259500D01*
X151993713Y-67259500D01*
X151945042Y-67267208D01*
X151783760Y-67292753D01*
X151581585Y-67358444D01*
X151392179Y-67454951D01*
X151220213Y-67579890D01*
X151069890Y-67730213D01*
X150944949Y-67902182D01*
X150940484Y-67910946D01*
X150892509Y-67961742D01*
X150824688Y-67978536D01*
X150758553Y-67955998D01*
X150719516Y-67910946D01*
X150715050Y-67902182D01*
X150590109Y-67730213D01*
X150439786Y-67579890D01*
X150267820Y-67454951D01*
X150078414Y-67358444D01*
X150078413Y-67358443D01*
X150078412Y-67358443D01*
X149876243Y-67292754D01*
X149876241Y-67292753D01*
X149876240Y-67292753D01*
X149714957Y-67267208D01*
X149666287Y-67259500D01*
X149453713Y-67259500D01*
X149405042Y-67267208D01*
X149243760Y-67292753D01*
X149041585Y-67358444D01*
X148852179Y-67454951D01*
X148680215Y-67579889D01*
X148566285Y-67693819D01*
X148504962Y-67727303D01*
X148435270Y-67722319D01*
X148379337Y-67680447D01*
X148362422Y-67649470D01*
X148313354Y-67517913D01*
X148313350Y-67517906D01*
X148227190Y-67402812D01*
X148227187Y-67402809D01*
X148112093Y-67316649D01*
X148112086Y-67316645D01*
X147977379Y-67266403D01*
X147977372Y-67266401D01*
X147917844Y-67260000D01*
X147270000Y-67260000D01*
X147270000Y-68165439D01*
X147216853Y-68134755D01*
X147087143Y-68100000D01*
X146952857Y-68100000D01*
X146823147Y-68134755D01*
X146770000Y-68165439D01*
X146770000Y-67260000D01*
X146122155Y-67260000D01*
X146062627Y-67266401D01*
X146062620Y-67266403D01*
X145927913Y-67316645D01*
X145927906Y-67316649D01*
X145812812Y-67402809D01*
X145812809Y-67402812D01*
X145726649Y-67517906D01*
X145726646Y-67517912D01*
X145677577Y-67649471D01*
X145635705Y-67705404D01*
X145570241Y-67729821D01*
X145501968Y-67714969D01*
X145473714Y-67693818D01*
X145359786Y-67579890D01*
X145187820Y-67454951D01*
X144998414Y-67358444D01*
X144998413Y-67358443D01*
X144998412Y-67358443D01*
X144796243Y-67292754D01*
X144796241Y-67292753D01*
X144796240Y-67292753D01*
X144634957Y-67267208D01*
X144586287Y-67259500D01*
X144373713Y-67259500D01*
X144325042Y-67267208D01*
X144163760Y-67292753D01*
X143961585Y-67358444D01*
X143772179Y-67454951D01*
X143600213Y-67579890D01*
X143449890Y-67730213D01*
X143324949Y-67902182D01*
X143320484Y-67910946D01*
X143272509Y-67961742D01*
X143204688Y-67978536D01*
X143138553Y-67955998D01*
X143099516Y-67910946D01*
X143095050Y-67902182D01*
X142970109Y-67730213D01*
X142819786Y-67579890D01*
X142647820Y-67454951D01*
X142458414Y-67358444D01*
X142458413Y-67358443D01*
X142458412Y-67358443D01*
X142256243Y-67292754D01*
X142256241Y-67292753D01*
X142256240Y-67292753D01*
X142094957Y-67267208D01*
X142046287Y-67259500D01*
X141833713Y-67259500D01*
X141785042Y-67267208D01*
X141623760Y-67292753D01*
X141421585Y-67358444D01*
X141232179Y-67454951D01*
X141060213Y-67579890D01*
X140909890Y-67730213D01*
X140784949Y-67902182D01*
X140780484Y-67910946D01*
X140732509Y-67961742D01*
X140664688Y-67978536D01*
X140598553Y-67955998D01*
X140559516Y-67910946D01*
X140555050Y-67902182D01*
X140430109Y-67730213D01*
X140279786Y-67579890D01*
X140107820Y-67454951D01*
X139918414Y-67358444D01*
X139918413Y-67358443D01*
X139918412Y-67358443D01*
X139716243Y-67292754D01*
X139716241Y-67292753D01*
X139716240Y-67292753D01*
X139554957Y-67267208D01*
X139506287Y-67259500D01*
X139293713Y-67259500D01*
X139245042Y-67267208D01*
X139083760Y-67292753D01*
X138881585Y-67358444D01*
X138692179Y-67454951D01*
X138520213Y-67579890D01*
X138369890Y-67730213D01*
X138244949Y-67902182D01*
X138240484Y-67910946D01*
X138192509Y-67961742D01*
X138124688Y-67978536D01*
X138058553Y-67955998D01*
X138019516Y-67910946D01*
X138015050Y-67902182D01*
X137890109Y-67730213D01*
X137739786Y-67579890D01*
X137567820Y-67454951D01*
X137378414Y-67358444D01*
X137378413Y-67358443D01*
X137378412Y-67358443D01*
X137176243Y-67292754D01*
X137176241Y-67292753D01*
X137176240Y-67292753D01*
X137014957Y-67267208D01*
X136966287Y-67259500D01*
X136753713Y-67259500D01*
X136705042Y-67267208D01*
X136543760Y-67292753D01*
X136341585Y-67358444D01*
X136152179Y-67454951D01*
X135980215Y-67579889D01*
X135866285Y-67693819D01*
X135804962Y-67727303D01*
X135735270Y-67722319D01*
X135679337Y-67680447D01*
X135662422Y-67649470D01*
X135613354Y-67517913D01*
X135613350Y-67517906D01*
X135527190Y-67402812D01*
X135527187Y-67402809D01*
X135412093Y-67316649D01*
X135412086Y-67316645D01*
X135277379Y-67266403D01*
X135277372Y-67266401D01*
X135217844Y-67260000D01*
X134570000Y-67260000D01*
X134570000Y-68165439D01*
X134516853Y-68134755D01*
X134387143Y-68100000D01*
X134252857Y-68100000D01*
X134123147Y-68134755D01*
X134070000Y-68165439D01*
X134070000Y-67260000D01*
X133422155Y-67260000D01*
X133362627Y-67266401D01*
X133362620Y-67266403D01*
X133227913Y-67316645D01*
X133227906Y-67316649D01*
X133112812Y-67402809D01*
X133112809Y-67402812D01*
X133026649Y-67517906D01*
X133026646Y-67517912D01*
X132977577Y-67649471D01*
X132935705Y-67705404D01*
X132870241Y-67729821D01*
X132801968Y-67714969D01*
X132773714Y-67693818D01*
X132659786Y-67579890D01*
X132487820Y-67454951D01*
X132298414Y-67358444D01*
X132298413Y-67358443D01*
X132298412Y-67358443D01*
X132096243Y-67292754D01*
X132096241Y-67292753D01*
X132096240Y-67292753D01*
X131934957Y-67267208D01*
X131886287Y-67259500D01*
X131673713Y-67259500D01*
X131625042Y-67267208D01*
X131463760Y-67292753D01*
X131261585Y-67358444D01*
X131072179Y-67454951D01*
X130900213Y-67579890D01*
X130749890Y-67730213D01*
X130624949Y-67902182D01*
X130620484Y-67910946D01*
X130572509Y-67961742D01*
X130504688Y-67978536D01*
X130438553Y-67955998D01*
X130399516Y-67910946D01*
X130395050Y-67902182D01*
X130270109Y-67730213D01*
X130119786Y-67579890D01*
X129947820Y-67454951D01*
X129758414Y-67358444D01*
X129758413Y-67358443D01*
X129758412Y-67358443D01*
X129556243Y-67292754D01*
X129556241Y-67292753D01*
X129556240Y-67292753D01*
X129394957Y-67267208D01*
X129346287Y-67259500D01*
X129133713Y-67259500D01*
X129085042Y-67267208D01*
X128923760Y-67292753D01*
X128721585Y-67358444D01*
X128532179Y-67454951D01*
X128360213Y-67579890D01*
X128209890Y-67730213D01*
X128084949Y-67902182D01*
X128080484Y-67910946D01*
X128032509Y-67961742D01*
X127964688Y-67978536D01*
X127898553Y-67955998D01*
X127859516Y-67910946D01*
X127855050Y-67902182D01*
X127730109Y-67730213D01*
X127579786Y-67579890D01*
X127407820Y-67454951D01*
X127218414Y-67358444D01*
X127218413Y-67358443D01*
X127218412Y-67358443D01*
X127016243Y-67292754D01*
X127016241Y-67292753D01*
X127016240Y-67292753D01*
X126854957Y-67267208D01*
X126806287Y-67259500D01*
X126593713Y-67259500D01*
X126545042Y-67267208D01*
X126383760Y-67292753D01*
X126181585Y-67358444D01*
X125992179Y-67454951D01*
X125820213Y-67579890D01*
X125669890Y-67730213D01*
X125544949Y-67902182D01*
X125540484Y-67910946D01*
X125492509Y-67961742D01*
X125424688Y-67978536D01*
X125358553Y-67955998D01*
X125319516Y-67910946D01*
X125315050Y-67902182D01*
X125190109Y-67730213D01*
X125039786Y-67579890D01*
X124867820Y-67454951D01*
X124678414Y-67358444D01*
X124678413Y-67358443D01*
X124678412Y-67358443D01*
X124476243Y-67292754D01*
X124476241Y-67292753D01*
X124476240Y-67292753D01*
X124314957Y-67267208D01*
X124266287Y-67259500D01*
X124053713Y-67259500D01*
X124005042Y-67267208D01*
X123843760Y-67292753D01*
X123641585Y-67358444D01*
X123452179Y-67454951D01*
X123280215Y-67579889D01*
X123166673Y-67693431D01*
X123105350Y-67726915D01*
X123035658Y-67721931D01*
X122979725Y-67680059D01*
X122962810Y-67649082D01*
X122913797Y-67517671D01*
X122913793Y-67517664D01*
X122827547Y-67402455D01*
X122827544Y-67402452D01*
X122712335Y-67316206D01*
X122712328Y-67316202D01*
X122577482Y-67265908D01*
X122577483Y-67265908D01*
X122517883Y-67259501D01*
X122517881Y-67259500D01*
X122517873Y-67259500D01*
X122517864Y-67259500D01*
X120722129Y-67259500D01*
X120722123Y-67259501D01*
X120662516Y-67265908D01*
X120527671Y-67316202D01*
X120527664Y-67316206D01*
X120412455Y-67402452D01*
X120412452Y-67402455D01*
X120326206Y-67517664D01*
X120326203Y-67517669D01*
X120277189Y-67649083D01*
X120235317Y-67705016D01*
X120169853Y-67729433D01*
X120101580Y-67714581D01*
X120073326Y-67693430D01*
X119959786Y-67579890D01*
X119787820Y-67454951D01*
X119598414Y-67358444D01*
X119598413Y-67358443D01*
X119598412Y-67358443D01*
X119396243Y-67292754D01*
X119396241Y-67292753D01*
X119396240Y-67292753D01*
X119234957Y-67267208D01*
X119186287Y-67259500D01*
X118973713Y-67259500D01*
X118925042Y-67267208D01*
X118763760Y-67292753D01*
X118561585Y-67358444D01*
X118372179Y-67454951D01*
X118200213Y-67579890D01*
X118049890Y-67730213D01*
X117924949Y-67902182D01*
X117920484Y-67910946D01*
X117872509Y-67961742D01*
X117804688Y-67978536D01*
X117738553Y-67955998D01*
X117699516Y-67910946D01*
X117695050Y-67902182D01*
X117570109Y-67730213D01*
X117419786Y-67579890D01*
X117247820Y-67454951D01*
X117058414Y-67358444D01*
X117058413Y-67358443D01*
X117058412Y-67358443D01*
X116856243Y-67292754D01*
X116856241Y-67292753D01*
X116856240Y-67292753D01*
X116694957Y-67267208D01*
X116646287Y-67259500D01*
X116433713Y-67259500D01*
X116385042Y-67267208D01*
X116223760Y-67292753D01*
X116021585Y-67358444D01*
X115832179Y-67454951D01*
X115660213Y-67579890D01*
X115509890Y-67730213D01*
X115384949Y-67902182D01*
X115380484Y-67910946D01*
X115332509Y-67961742D01*
X115264688Y-67978536D01*
X115198553Y-67955998D01*
X115159516Y-67910946D01*
X115155050Y-67902182D01*
X115030109Y-67730213D01*
X114879786Y-67579890D01*
X114707820Y-67454951D01*
X114518414Y-67358444D01*
X114518413Y-67358443D01*
X114518412Y-67358443D01*
X114316243Y-67292754D01*
X114316241Y-67292753D01*
X114316240Y-67292753D01*
X114154957Y-67267208D01*
X114106287Y-67259500D01*
X113893713Y-67259500D01*
X113845042Y-67267208D01*
X113683760Y-67292753D01*
X113481585Y-67358444D01*
X113292179Y-67454951D01*
X113120213Y-67579890D01*
X112969890Y-67730213D01*
X112844949Y-67902182D01*
X112840484Y-67910946D01*
X112792509Y-67961742D01*
X112724688Y-67978536D01*
X112658553Y-67955998D01*
X112619516Y-67910946D01*
X112615050Y-67902182D01*
X112490109Y-67730213D01*
X112339786Y-67579890D01*
X112167820Y-67454951D01*
X111978414Y-67358444D01*
X111978413Y-67358443D01*
X111978412Y-67358443D01*
X111776243Y-67292754D01*
X111776241Y-67292753D01*
X111776240Y-67292753D01*
X111614957Y-67267208D01*
X111566287Y-67259500D01*
X111353713Y-67259500D01*
X111305042Y-67267208D01*
X111143760Y-67292753D01*
X110941585Y-67358444D01*
X110752179Y-67454951D01*
X110580215Y-67579889D01*
X110466285Y-67693819D01*
X110404962Y-67727303D01*
X110335270Y-67722319D01*
X110279337Y-67680447D01*
X110262422Y-67649470D01*
X110213354Y-67517913D01*
X110213350Y-67517906D01*
X110127190Y-67402812D01*
X110127187Y-67402809D01*
X110012093Y-67316649D01*
X110012086Y-67316645D01*
X109877379Y-67266403D01*
X109877372Y-67266401D01*
X109817844Y-67260000D01*
X109170000Y-67260000D01*
X109170000Y-68165439D01*
X109116853Y-68134755D01*
X108987143Y-68100000D01*
X108852857Y-68100000D01*
X108723147Y-68134755D01*
X108670000Y-68165439D01*
X108670000Y-67260000D01*
X108022155Y-67260000D01*
X107962627Y-67266401D01*
X107962620Y-67266403D01*
X107827913Y-67316645D01*
X107827906Y-67316649D01*
X107712812Y-67402809D01*
X107712809Y-67402812D01*
X107626649Y-67517906D01*
X107626646Y-67517912D01*
X107577577Y-67649471D01*
X107535705Y-67705404D01*
X107470241Y-67729821D01*
X107401968Y-67714969D01*
X107373714Y-67693818D01*
X107259786Y-67579890D01*
X107087820Y-67454951D01*
X106898414Y-67358444D01*
X106898413Y-67358443D01*
X106898412Y-67358443D01*
X106696243Y-67292754D01*
X106696241Y-67292753D01*
X106696240Y-67292753D01*
X106534957Y-67267208D01*
X106486287Y-67259500D01*
X106273713Y-67259500D01*
X106225042Y-67267208D01*
X106063760Y-67292753D01*
X105861585Y-67358444D01*
X105672179Y-67454951D01*
X105500213Y-67579890D01*
X105349890Y-67730213D01*
X105224949Y-67902182D01*
X105220484Y-67910946D01*
X105172509Y-67961742D01*
X105104688Y-67978536D01*
X105038553Y-67955998D01*
X104999516Y-67910946D01*
X104995050Y-67902182D01*
X104870109Y-67730213D01*
X104719786Y-67579890D01*
X104547820Y-67454951D01*
X104358414Y-67358444D01*
X104358413Y-67358443D01*
X104358412Y-67358443D01*
X104156243Y-67292754D01*
X104156241Y-67292753D01*
X104156240Y-67292753D01*
X103994957Y-67267208D01*
X103946287Y-67259500D01*
X103733713Y-67259500D01*
X103685042Y-67267208D01*
X103523760Y-67292753D01*
X103321585Y-67358444D01*
X103132179Y-67454951D01*
X102960213Y-67579890D01*
X102809894Y-67730209D01*
X102809890Y-67730214D01*
X102724818Y-67847307D01*
X102669488Y-67889973D01*
X102599875Y-67895952D01*
X102538080Y-67863347D01*
X102503723Y-67802508D01*
X102500500Y-67774422D01*
X102500500Y-65624500D01*
X102520185Y-65557461D01*
X102572989Y-65511706D01*
X102624500Y-65500500D01*
X171375500Y-65500500D01*
X171442539Y-65520185D01*
G37*
%TD.AperFunction*%
%TA.AperFunction,Conductor*%
G36*
X136243039Y-73919685D02*
G01*
X136288794Y-73972489D01*
X136300000Y-74024000D01*
X136300000Y-76976000D01*
X136280315Y-77043039D01*
X136227511Y-77088794D01*
X136176000Y-77100000D01*
X126324000Y-77100000D01*
X126256961Y-77080315D01*
X126211206Y-77027511D01*
X126200000Y-76976000D01*
X126200000Y-74024000D01*
X126219685Y-73956961D01*
X126272489Y-73911206D01*
X126324000Y-73900000D01*
X136176000Y-73900000D01*
X136243039Y-73919685D01*
G37*
%TD.AperFunction*%
M02*
