M48
; DRILL file {KiCad 9.0.1} date 2025-05-05T20:49:35-0700
; FORMAT={-:-/ absolute / metric / decimal}
; #@! TF.CreationDate,2025-05-05T20:49:35-07:00
; #@! TF.GenerationSoftware,Kicad,Pcbnew,9.0.1
; #@! TF.FileFunction,Plated,1,2,PTH
FMAT,2
METRIC
; #@! TA.AperFunction,Plated,PTH,ViaDrill
T1C0.300
; #@! TA.AperFunction,Plated,PTH,ComponentDrill
T2C0.500
; #@! TA.AperFunction,Plated,PTH,ViaDrill
T3C0.600
; #@! TA.AperFunction,Plated,PTH,ComponentDrill
T4C0.700
; #@! TA.AperFunction,Plated,PTH,ComponentDrill
T5C1.000
; #@! TA.AperFunction,Plated,PTH,ComponentDrill
T6C1.020
%
G90
G05
T1
X115.75Y-90.25
X122.0Y-90.25
X126.3Y-82.697
X128.0Y-82.697
X128.25Y-90.25
X130.5Y-82.697
X132.0Y-72.25
X136.75Y-72.25
X139.5Y-72.25
X147.89Y-79.5
X148.69Y-79.5
X149.5Y-79.5
X157.0Y-87.75
X160.15Y-89.5
X162.69Y-89.5
X165.23Y-89.5
T3
X117.935Y-97.815
X124.265Y-97.75
X127.3Y-74.8
X127.3Y-76.2
X131.0Y-97.75
X135.2Y-74.8
X135.2Y-76.2
X136.496Y-79.767
X136.5Y-83.1
X138.479Y-79.795
X138.5Y-83.1
X142.3Y-76.1
X143.8Y-77.6
X145.5Y-72.9
X147.0Y-74.4
X151.0Y-93.0
X152.7Y-93.0
X155.1Y-86.7
X155.1Y-88.9
X165.5Y-84.0
T4
X151.575Y-95.537
X156.425Y-95.537
T5
X147.0Y-93.235
X147.0Y-95.775
X157.42Y-74.5
X159.96Y-74.5
X160.15Y-90.5
X162.5Y-74.5
X162.69Y-90.5
X165.04Y-74.5
X165.23Y-90.5
X167.58Y-74.5
X167.77Y-90.5
T6
X103.84Y-68.61
X103.84Y-86.39
X106.38Y-68.61
X106.38Y-86.39
X108.92Y-68.61
X108.92Y-86.39
X111.46Y-68.61
X111.46Y-86.39
X114.0Y-68.61
X114.0Y-86.39
X116.54Y-68.61
X116.54Y-86.39
X119.08Y-68.61
X119.08Y-86.39
X121.62Y-68.61
X121.62Y-86.39
X124.16Y-68.61
X124.16Y-86.39
X126.7Y-68.61
X126.7Y-86.39
X129.24Y-68.61
X129.24Y-86.39
X131.78Y-68.61
X131.78Y-86.39
X134.32Y-68.61
X134.32Y-86.39
X136.86Y-68.61
X136.86Y-86.39
X139.4Y-68.61
X139.4Y-86.39
X141.94Y-68.61
X141.94Y-86.39
X144.48Y-68.61
X144.48Y-86.39
X147.02Y-68.61
X147.02Y-86.39
X149.56Y-68.61
X149.56Y-86.39
X151.87Y-74.96
X151.87Y-77.5
X151.87Y-80.04
X152.1Y-68.61
X152.1Y-86.39
T2
X150.4Y-97.787G85X150.4Y-98.587
G05
X157.6Y-97.787G85X157.6Y-98.587
G05
M30
