M48
; DRILL file {KiCad 9.0.1} date 2025-05-06T22:51:10-0700
; FORMAT={-:-/ absolute / metric / decimal}
; #@! TF.CreationDate,2025-05-06T22:51:10-07:00
; #@! TF.GenerationSoftware,Kicad,Pcbnew,9.0.1
; #@! TF.FileFunction,Plated,1,2,PTH
FMAT,2
METRIC
; #@! TA.AperFunction,Plated,PTH,ViaDrill
T1C0.300
; #@! TA.AperFunction,Plated,PTH,ViaDrill
T2C0.600
; #@! TA.AperFunction,Plated,PTH,ComponentDrill
T3C0.900
; #@! TA.AperFunction,Plated,PTH,ComponentDrill
T4C1.000
; #@! TA.AperFunction,Plated,PTH,ComponentDrill
T5C1.010
; #@! TA.AperFunction,Plated,PTH,ComponentDrill
T6C1.020
; #@! TA.AperFunction,Plated,PTH,ComponentDrill
T7C1.100
; #@! TA.AperFunction,Plated,PTH,ComponentDrill
T8C1.250
%
G90
G05
T1
X114.815Y-90.25
X121.065Y-90.25
X126.3Y-82.697
X127.315Y-90.25
X128.0Y-82.697
X130.5Y-82.697
X132.0Y-72.25
X136.75Y-72.25
X139.5Y-72.25
X147.89Y-79.5
X148.69Y-79.5
X149.5Y-79.5
X157.0Y-87.75
T2
X117.0Y-97.815
X123.33Y-97.75
X127.3Y-74.8
X127.3Y-76.2
X130.065Y-97.75
X135.2Y-74.8
X135.2Y-76.2
X136.496Y-79.767
X136.5Y-83.1
X138.479Y-79.795
X138.5Y-83.1
X142.3Y-76.1
X143.8Y-77.6
X145.5Y-72.9
X147.0Y-74.4
X151.0Y-93.0
X152.7Y-93.0
X155.1Y-86.7
X155.1Y-88.9
X164.5Y-78.5
X164.5Y-80.5
X164.5Y-82.5
X166.5Y-84.623
T3
X161.0Y-90.5
X163.5Y-90.5
X166.0Y-90.5
X168.5Y-90.5
T4
X144.5Y-93.235
X144.5Y-95.775
T5
X149.5Y-95.0
X154.5Y-95.0
T6
X103.84Y-68.61
X103.84Y-86.39
X106.38Y-68.61
X106.38Y-86.39
X108.92Y-68.61
X108.92Y-86.39
X111.46Y-68.61
X111.46Y-86.39
X114.0Y-68.61
X114.0Y-86.39
X116.54Y-68.61
X116.54Y-86.39
X119.08Y-68.61
X119.08Y-86.39
X121.62Y-68.61
X121.62Y-86.39
X124.16Y-68.61
X124.16Y-86.39
X126.7Y-68.61
X126.7Y-86.39
X129.24Y-68.61
X129.24Y-86.39
X131.78Y-68.61
X131.78Y-86.39
X134.32Y-68.61
X134.32Y-86.39
X136.86Y-68.61
X136.86Y-86.39
X139.4Y-68.61
X139.4Y-86.39
X141.94Y-68.61
X141.94Y-86.39
X144.48Y-68.61
X144.48Y-86.39
X147.02Y-68.61
X147.02Y-86.39
X149.56Y-68.61
X149.56Y-86.39
X151.87Y-74.96
X151.87Y-77.5
X151.87Y-80.04
X152.1Y-68.61
X152.1Y-86.39
T7
X158.0Y-74.5
X160.5Y-74.5
X163.0Y-74.5
X165.5Y-74.5
X168.0Y-74.5
T8
X148.5Y-97.7
X155.5Y-97.7
M30
