%TF.GenerationSoftware,KiCad,Pcbnew,9.0.1*%
%TF.CreationDate,2025-05-06T22:51:07-07:00*%
%TF.ProjectId,picow_motor_driver,7069636f-775f-46d6-9f74-6f725f647269,rev?*%
%TF.SameCoordinates,Original*%
%TF.FileFunction,Soldermask,Bot*%
%TF.FilePolarity,Negative*%
%FSLAX46Y46*%
G04 Gerber Fmt 4.6, Leading zero omitted, Abs format (unit mm)*
G04 Created by KiCad (PCBNEW 9.0.1) date 2025-05-06 22:51:07*
%MOMM*%
%LPD*%
G01*
G04 APERTURE LIST*
%ADD10R,1.650000X1.650000*%
%ADD11C,1.650000*%
%ADD12C,1.515000*%
%ADD13C,1.875000*%
%ADD14O,1.800000X1.800000*%
%ADD15O,1.500000X1.500000*%
%ADD16O,1.700000X1.700000*%
%ADD17R,1.700000X1.700000*%
%ADD18C,1.700000*%
%ADD19R,1.400000X1.400000*%
%ADD20C,1.400000*%
G04 APERTURE END LIST*
D10*
X168000000Y-74500000D03*
D11*
X165500000Y-74500000D03*
X163000000Y-74500000D03*
X160500000Y-74500000D03*
X158000000Y-74500000D03*
D12*
X149500000Y-95000000D03*
D13*
X148500000Y-97700000D03*
X155500000Y-97700000D03*
D12*
X154500000Y-95000000D03*
D14*
X103970000Y-80225000D03*
D15*
X107000000Y-79925000D03*
X107000000Y-75075000D03*
D14*
X103970000Y-74775000D03*
D16*
X103840000Y-86390000D03*
X106380000Y-86390000D03*
D17*
X108920000Y-86390000D03*
D16*
X111460000Y-86390000D03*
X114000000Y-86390000D03*
X116540000Y-86390000D03*
X119080000Y-86390000D03*
D17*
X121620000Y-86390000D03*
D16*
X124160000Y-86390000D03*
X126700000Y-86390000D03*
X129240000Y-86390000D03*
X131780000Y-86390000D03*
D17*
X134320000Y-86390000D03*
D16*
X136860000Y-86390000D03*
X139400000Y-86390000D03*
X141940000Y-86390000D03*
X144480000Y-86390000D03*
D17*
X147020000Y-86390000D03*
D16*
X149560000Y-86390000D03*
X152100000Y-86390000D03*
X152100000Y-68610000D03*
X149560000Y-68610000D03*
D17*
X147020000Y-68610000D03*
D16*
X144480000Y-68610000D03*
X141940000Y-68610000D03*
X139400000Y-68610000D03*
X136860000Y-68610000D03*
D17*
X134320000Y-68610000D03*
D16*
X131780000Y-68610000D03*
X129240000Y-68610000D03*
X126700000Y-68610000D03*
X124160000Y-68610000D03*
D17*
X121620000Y-68610000D03*
D16*
X119080000Y-68610000D03*
X116540000Y-68610000D03*
X114000000Y-68610000D03*
X111460000Y-68610000D03*
D17*
X108920000Y-68610000D03*
D16*
X106380000Y-68610000D03*
X103840000Y-68610000D03*
X151870000Y-80040000D03*
D17*
X151870000Y-77500000D03*
D16*
X151870000Y-74960000D03*
D17*
X144500000Y-95775000D03*
D18*
X144500000Y-93235000D03*
D19*
X161000000Y-90500000D03*
D20*
X163500000Y-90500000D03*
X166000000Y-90500000D03*
X168500000Y-90500000D03*
M02*
