%TF.GenerationSoftware,KiCad,Pcbnew,9.0.1*%
%TF.CreationDate,2025-05-06T22:51:06-07:00*%
%TF.ProjectId,picow_motor_driver,7069636f-775f-46d6-9f74-6f725f647269,rev?*%
%TF.SameCoordinates,Original*%
%TF.FileFunction,Copper,L1,Top*%
%TF.FilePolarity,Positive*%
%FSLAX46Y46*%
G04 Gerber Fmt 4.6, Leading zero omitted, Abs format (unit mm)*
G04 Created by KiCad (PCBNEW 9.0.1) date 2025-05-06 22:51:06*
%MOMM*%
%LPD*%
G01*
G04 APERTURE LIST*
G04 Aperture macros list*
%AMRoundRect*
0 Rectangle with rounded corners*
0 $1 Rounding radius*
0 $2 $3 $4 $5 $6 $7 $8 $9 X,Y pos of 4 corners*
0 Add a 4 corners polygon primitive as box body*
4,1,4,$2,$3,$4,$5,$6,$7,$8,$9,$2,$3,0*
0 Add four circle primitives for the rounded corners*
1,1,$1+$1,$2,$3*
1,1,$1+$1,$4,$5*
1,1,$1+$1,$6,$7*
1,1,$1+$1,$8,$9*
0 Add four rect primitives between the rounded corners*
20,1,$1+$1,$2,$3,$4,$5,0*
20,1,$1+$1,$4,$5,$6,$7,0*
20,1,$1+$1,$6,$7,$8,$9,0*
20,1,$1+$1,$8,$9,$2,$3,0*%
G04 Aperture macros list end*
%TA.AperFunction,ComponentPad*%
%ADD10R,1.650000X1.650000*%
%TD*%
%TA.AperFunction,ComponentPad*%
%ADD11C,1.650000*%
%TD*%
%TA.AperFunction,SMDPad,CuDef*%
%ADD12RoundRect,0.200000X0.275000X-0.200000X0.275000X0.200000X-0.275000X0.200000X-0.275000X-0.200000X0*%
%TD*%
%TA.AperFunction,SMDPad,CuDef*%
%ADD13R,1.360000X1.230000*%
%TD*%
%TA.AperFunction,SMDPad,CuDef*%
%ADD14R,0.400000X1.350000*%
%TD*%
%TA.AperFunction,ComponentPad*%
%ADD15C,1.515000*%
%TD*%
%TA.AperFunction,ComponentPad*%
%ADD16C,1.875000*%
%TD*%
%TA.AperFunction,SMDPad,CuDef*%
%ADD17R,1.250000X1.550000*%
%TD*%
%TA.AperFunction,SMDPad,CuDef*%
%ADD18RoundRect,0.200000X0.200000X0.275000X-0.200000X0.275000X-0.200000X-0.275000X0.200000X-0.275000X0*%
%TD*%
%TA.AperFunction,SMDPad,CuDef*%
%ADD19O,1.971000X0.602000*%
%TD*%
%TA.AperFunction,ComponentPad*%
%ADD20O,1.700000X1.700000*%
%TD*%
%TA.AperFunction,SMDPad,CuDef*%
%ADD21R,1.700000X3.500000*%
%TD*%
%TA.AperFunction,ComponentPad*%
%ADD22R,1.700000X1.700000*%
%TD*%
%TA.AperFunction,SMDPad,CuDef*%
%ADD23R,3.500000X1.700000*%
%TD*%
%TA.AperFunction,ComponentPad*%
%ADD24C,1.700000*%
%TD*%
%TA.AperFunction,SMDPad,CuDef*%
%ADD25RoundRect,0.218750X-0.256250X0.218750X-0.256250X-0.218750X0.256250X-0.218750X0.256250X0.218750X0*%
%TD*%
%TA.AperFunction,SMDPad,CuDef*%
%ADD26RoundRect,0.225000X0.250000X-0.225000X0.250000X0.225000X-0.250000X0.225000X-0.250000X-0.225000X0*%
%TD*%
%TA.AperFunction,ComponentPad*%
%ADD27R,1.400000X1.400000*%
%TD*%
%TA.AperFunction,ComponentPad*%
%ADD28C,1.400000*%
%TD*%
%TA.AperFunction,ViaPad*%
%ADD29C,1.200000*%
%TD*%
%TA.AperFunction,ViaPad*%
%ADD30C,0.600000*%
%TD*%
%TA.AperFunction,Conductor*%
%ADD31C,0.800000*%
%TD*%
%TA.AperFunction,Conductor*%
%ADD32C,0.200000*%
%TD*%
%TA.AperFunction,Conductor*%
%ADD33C,1.600000*%
%TD*%
%TA.AperFunction,Conductor*%
%ADD34C,0.400000*%
%TD*%
%TA.AperFunction,Conductor*%
%ADD35C,0.600000*%
%TD*%
%TA.AperFunction,Conductor*%
%ADD36C,2.000000*%
%TD*%
G04 APERTURE END LIST*
D10*
X168000000Y-74500000D03*
D11*
X165500000Y-74500000D03*
X163000000Y-74500000D03*
X160500000Y-74500000D03*
X158000000Y-74500000D03*
D12*
X140565000Y-97150000D03*
X140565000Y-95500000D03*
D13*
X127565000Y-93065000D03*
X127565000Y-97435000D03*
D14*
X150700000Y-95000000D03*
X151350000Y-95000000D03*
X152000000Y-95000000D03*
X152650000Y-95000000D03*
X153300000Y-95000000D03*
D15*
X149500000Y-95000000D03*
D16*
X148500000Y-97700000D03*
X155500000Y-97700000D03*
D15*
X154500000Y-95000000D03*
D17*
X151000000Y-97700000D03*
X153000000Y-97700000D03*
D18*
X129065000Y-91250000D03*
X127415000Y-91250000D03*
D12*
X138065000Y-97150000D03*
X138065000Y-95500000D03*
D19*
X157029000Y-78055000D03*
X157029000Y-79325000D03*
X157029000Y-80595000D03*
X157029000Y-81865000D03*
X157029000Y-83135000D03*
X157029000Y-84405000D03*
X157029000Y-85675000D03*
X157029000Y-86945000D03*
X162500000Y-86945000D03*
X162500000Y-85675000D03*
X162500000Y-84405000D03*
X162500000Y-83135000D03*
X162500000Y-81865000D03*
X162500000Y-80595000D03*
X162500000Y-79325000D03*
X162500000Y-78055000D03*
D18*
X122715000Y-91250000D03*
X121065000Y-91250000D03*
X116385000Y-91315000D03*
X114735000Y-91315000D03*
D13*
X114500000Y-93130000D03*
X114500000Y-97500000D03*
D12*
X135565000Y-97150000D03*
X135565000Y-95500000D03*
D20*
X103840000Y-86390000D03*
D21*
X103840000Y-87290000D03*
D20*
X106380000Y-86390000D03*
D21*
X106380000Y-87290000D03*
D22*
X108920000Y-86390000D03*
D21*
X108920000Y-87290000D03*
D20*
X111460000Y-86390000D03*
D21*
X111460000Y-87290000D03*
D20*
X114000000Y-86390000D03*
D21*
X114000000Y-87290000D03*
D20*
X116540000Y-86390000D03*
D21*
X116540000Y-87290000D03*
D20*
X119080000Y-86390000D03*
D21*
X119080000Y-87290000D03*
D22*
X121620000Y-86390000D03*
D21*
X121620000Y-87290000D03*
D20*
X124160000Y-86390000D03*
D21*
X124160000Y-87290000D03*
D20*
X126700000Y-86390000D03*
D21*
X126700000Y-87290000D03*
D20*
X129240000Y-86390000D03*
D21*
X129240000Y-87290000D03*
D20*
X131780000Y-86390000D03*
D21*
X131780000Y-87290000D03*
D22*
X134320000Y-86390000D03*
D21*
X134320000Y-87290000D03*
D20*
X136860000Y-86390000D03*
D21*
X136860000Y-87290000D03*
D20*
X139400000Y-86390000D03*
D21*
X139400000Y-87290000D03*
D20*
X141940000Y-86390000D03*
D21*
X141940000Y-87290000D03*
D20*
X144480000Y-86390000D03*
D21*
X144480000Y-87290000D03*
D22*
X147020000Y-86390000D03*
D21*
X147020000Y-87290000D03*
D20*
X149560000Y-86390000D03*
D21*
X149560000Y-87290000D03*
D20*
X152100000Y-86390000D03*
D21*
X152100000Y-87290000D03*
D20*
X152100000Y-68610000D03*
D21*
X152100000Y-67710000D03*
D20*
X149560000Y-68610000D03*
D21*
X149560000Y-67710000D03*
D22*
X147020000Y-68610000D03*
D21*
X147020000Y-67710000D03*
D20*
X144480000Y-68610000D03*
D21*
X144480000Y-67710000D03*
D20*
X141940000Y-68610000D03*
D21*
X141940000Y-67710000D03*
D20*
X139400000Y-68610000D03*
D21*
X139400000Y-67710000D03*
D20*
X136860000Y-68610000D03*
D21*
X136860000Y-67710000D03*
D22*
X134320000Y-68610000D03*
D21*
X134320000Y-67710000D03*
D20*
X131780000Y-68610000D03*
D21*
X131780000Y-67710000D03*
D20*
X129240000Y-68610000D03*
D21*
X129240000Y-67710000D03*
D20*
X126700000Y-68610000D03*
D21*
X126700000Y-67710000D03*
D20*
X124160000Y-68610000D03*
D21*
X124160000Y-67710000D03*
D22*
X121620000Y-68610000D03*
D21*
X121620000Y-67710000D03*
D20*
X119080000Y-68610000D03*
D21*
X119080000Y-67710000D03*
D20*
X116540000Y-68610000D03*
D21*
X116540000Y-67710000D03*
D20*
X114000000Y-68610000D03*
D21*
X114000000Y-67710000D03*
D20*
X111460000Y-68610000D03*
D21*
X111460000Y-67710000D03*
D22*
X108920000Y-68610000D03*
D21*
X108920000Y-67710000D03*
D20*
X106380000Y-68610000D03*
D21*
X106380000Y-67710000D03*
D20*
X103840000Y-68610000D03*
D21*
X103840000Y-67710000D03*
D20*
X151870000Y-80040000D03*
D23*
X152770000Y-80040000D03*
D22*
X151870000Y-77500000D03*
D23*
X152770000Y-77500000D03*
D20*
X151870000Y-74960000D03*
D23*
X152770000Y-74960000D03*
D22*
X144500000Y-95775000D03*
D24*
X144500000Y-93235000D03*
D25*
X138065000Y-92000000D03*
X138065000Y-93575000D03*
D13*
X121065000Y-93065000D03*
X121065000Y-97435000D03*
D26*
X165000000Y-86000000D03*
X165000000Y-84450000D03*
D25*
X133065000Y-92000000D03*
X133065000Y-93575000D03*
D12*
X133065000Y-97150000D03*
X133065000Y-95500000D03*
D25*
X135565000Y-92000000D03*
X135565000Y-93575000D03*
X140565000Y-92000000D03*
X140565000Y-93575000D03*
D27*
X161000000Y-90500000D03*
D28*
X163500000Y-90500000D03*
X166000000Y-90500000D03*
X168500000Y-90500000D03*
D29*
X164500000Y-82500000D03*
X117000000Y-97815000D03*
X130065000Y-97750000D03*
X123330000Y-97750000D03*
X166500000Y-84622625D03*
D30*
X157000000Y-87750000D03*
D29*
X127300000Y-76200000D03*
X138479271Y-79795189D03*
X136496403Y-79766996D03*
X151000000Y-93000000D03*
X147000000Y-74400000D03*
X138500000Y-83100000D03*
X155100000Y-86700000D03*
X155100000Y-88900000D03*
X152700000Y-93000000D03*
X127300000Y-74800000D03*
X145500000Y-72900000D03*
X136500000Y-83100000D03*
X142300000Y-76100000D03*
X135200000Y-76200000D03*
X135200000Y-74800000D03*
X143800000Y-77600000D03*
X164500000Y-78500000D03*
X164500000Y-80500000D03*
D30*
X130500000Y-82697000D03*
X127315000Y-90250000D03*
X149500000Y-79500000D03*
X139500000Y-72250000D03*
X114815000Y-90250000D03*
X132000000Y-72250000D03*
X147889997Y-79500000D03*
X126300000Y-82697000D03*
X121065000Y-90250000D03*
X128000000Y-82697000D03*
X136750000Y-72250000D03*
X148690000Y-79500000D03*
D31*
X163865000Y-81865000D02*
X164500000Y-82500000D01*
X162500000Y-81865000D02*
X163865000Y-81865000D01*
D32*
X164405000Y-80595000D02*
X164500000Y-80500000D01*
D31*
X162500000Y-80595000D02*
X164405000Y-80595000D01*
X163675000Y-79325000D02*
X164500000Y-78500000D01*
X162500000Y-79325000D02*
X163675000Y-79325000D01*
X165500000Y-77000000D02*
X168000000Y-74500000D01*
X164000000Y-77000000D02*
X165500000Y-77000000D01*
X162945000Y-78055000D02*
X164000000Y-77000000D01*
D32*
X162500000Y-78055000D02*
X162945000Y-78055000D01*
D33*
X158000000Y-74500000D02*
X158000000Y-72000000D01*
D34*
X114500000Y-97500000D02*
X114500000Y-97815000D01*
X153300000Y-95000000D02*
X154500000Y-95000000D01*
X114815000Y-97500000D02*
X116685000Y-97500000D01*
X121065000Y-97435000D02*
X123015000Y-97435000D01*
X157000000Y-87000000D02*
X157055000Y-86945000D01*
X157000000Y-87750000D02*
X157000000Y-87000000D01*
D31*
X151000000Y-97700000D02*
X148500000Y-97700000D01*
D34*
X157055000Y-86945000D02*
X157264500Y-86945000D01*
X127565000Y-97435000D02*
X127565000Y-97750000D01*
X123015000Y-97435000D02*
X123330000Y-97750000D01*
X127565000Y-97750000D02*
X130065000Y-97750000D01*
X114500000Y-97815000D02*
X114815000Y-97500000D01*
D31*
X153000000Y-97700000D02*
X155500000Y-97700000D01*
D34*
X116685000Y-97500000D02*
X117000000Y-97815000D01*
X166327375Y-84450000D02*
X165000000Y-84450000D01*
D31*
X151000000Y-97700000D02*
X153000000Y-97700000D01*
D34*
X166500000Y-84622625D02*
X166327375Y-84450000D01*
X162555000Y-86945000D02*
X162622625Y-86877375D01*
X129065000Y-93150000D02*
X133065000Y-97150000D01*
X133065000Y-97150000D02*
X135565000Y-97150000D01*
D35*
X166000000Y-86000000D02*
X165000000Y-86000000D01*
X164055000Y-86945000D02*
X162500000Y-86945000D01*
D34*
X129065000Y-91250000D02*
X129065000Y-93150000D01*
X129065000Y-90775000D02*
X127839000Y-89549000D01*
X150700000Y-95000000D02*
X150700000Y-93300000D01*
D35*
X165000000Y-86000000D02*
X164055000Y-86945000D01*
D34*
X129065000Y-91250000D02*
X129065000Y-90775000D01*
X150700000Y-93300000D02*
X151000000Y-93000000D01*
X127839000Y-89549000D02*
X124416000Y-89549000D01*
X124416000Y-89549000D02*
X122715000Y-91250000D01*
X140665000Y-97150000D02*
X140565000Y-97150000D01*
X138065000Y-97150000D02*
X135565000Y-97150000D01*
X116385000Y-91315000D02*
X118151000Y-89549000D01*
X144500000Y-93235000D02*
X140585000Y-97150000D01*
X140585000Y-97150000D02*
X140565000Y-97150000D01*
D36*
X106380000Y-68610000D02*
X106380000Y-70080000D01*
D34*
X138065000Y-97150000D02*
X140565000Y-97150000D01*
D33*
X144500000Y-93235000D02*
X148265000Y-93235000D01*
D34*
X162735500Y-86945000D02*
X162555000Y-86945000D01*
X118151000Y-89549000D02*
X121489000Y-89549000D01*
X121489000Y-89549000D02*
X122715000Y-90775000D01*
X122715000Y-90775000D02*
X122715000Y-91250000D01*
X106380000Y-70080000D02*
X106400000Y-70100000D01*
D32*
X161695000Y-78055000D02*
X160445000Y-78055000D01*
X156199700Y-90349000D02*
X134716000Y-90349000D01*
X156500000Y-89298700D02*
X156500000Y-90048700D01*
X156500000Y-90048700D02*
X156199700Y-90349000D01*
X134716000Y-90349000D02*
X133065000Y-92000000D01*
X159000000Y-79500000D02*
X159000000Y-86798700D01*
X160445000Y-78055000D02*
X159000000Y-79500000D01*
X159000000Y-86798700D02*
X156500000Y-89298700D01*
X133065000Y-95500000D02*
X133065000Y-93575000D01*
X135565000Y-95500000D02*
X135565000Y-93575000D01*
X159401000Y-80099000D02*
X160175000Y-79325000D01*
X156901000Y-90214800D02*
X156901000Y-89464800D01*
X135565000Y-92000000D02*
X136815000Y-90750000D01*
X136815000Y-90750000D02*
X156365800Y-90750000D01*
X156901000Y-89464800D02*
X159401000Y-86964800D01*
X156365800Y-90750000D02*
X156901000Y-90214800D01*
X160175000Y-79325000D02*
X161675000Y-79325000D01*
X159401000Y-86964800D02*
X159401000Y-80099000D01*
X138065000Y-95500000D02*
X138065000Y-93575000D01*
X159802000Y-87130900D02*
X159802000Y-81198000D01*
X157302000Y-89630900D02*
X159802000Y-87130900D01*
X156531900Y-91151000D02*
X157302000Y-90380900D01*
X157302000Y-90380900D02*
X157302000Y-89630900D01*
X138065000Y-92000000D02*
X138914000Y-91151000D01*
X138914000Y-91151000D02*
X156531900Y-91151000D01*
X159802000Y-81198000D02*
X160405000Y-80595000D01*
X160405000Y-80595000D02*
X161655000Y-80595000D01*
X140565000Y-95500000D02*
X140565000Y-93575000D01*
X160203000Y-82297000D02*
X160203000Y-87297000D01*
X160635000Y-81865000D02*
X160203000Y-82297000D01*
X157703000Y-89797000D02*
X157703000Y-90547000D01*
X157703000Y-90547000D02*
X156698000Y-91552000D01*
X160203000Y-87297000D02*
X157703000Y-89797000D01*
X141013000Y-91552000D02*
X140565000Y-92000000D01*
X162385000Y-81865000D02*
X162250000Y-82000000D01*
X162500000Y-81865000D02*
X162385000Y-81865000D01*
X156698000Y-91552000D02*
X141013000Y-91552000D01*
X162500000Y-81865000D02*
X160635000Y-81865000D01*
X127565000Y-93065000D02*
X127565000Y-91400000D01*
X130500000Y-82697000D02*
X129300000Y-81497000D01*
X127315000Y-91150000D02*
X127415000Y-91250000D01*
X132002000Y-78132200D02*
X132002000Y-74665100D01*
X132002000Y-74665100D02*
X133467100Y-73200000D01*
X139400000Y-69198338D02*
X139400000Y-68610000D01*
X138550000Y-73200000D02*
X139500000Y-72250000D01*
X149500000Y-79500000D02*
X149500000Y-79298338D01*
X129300000Y-80834200D02*
X132002000Y-78132200D01*
X149500000Y-79298338D02*
X139400000Y-69198338D01*
X129300000Y-81497000D02*
X129300000Y-80834200D01*
X127565000Y-91400000D02*
X127415000Y-91250000D01*
X127315000Y-90250000D02*
X127315000Y-91150000D01*
X133467100Y-73200000D02*
X138550000Y-73200000D01*
X131200000Y-77800000D02*
X131200000Y-73050000D01*
X147737940Y-78670478D02*
X140067462Y-71000000D01*
X131200000Y-73050000D02*
X132000000Y-72250000D01*
X147889997Y-79217157D02*
X147737940Y-79065100D01*
X147889997Y-79500000D02*
X147889997Y-79217157D01*
X126300000Y-82697000D02*
X128297000Y-80700000D01*
X134170000Y-71000000D02*
X131780000Y-68610000D01*
X128297000Y-80700000D02*
X128300000Y-80700000D01*
X114735000Y-91315000D02*
X114735000Y-92895000D01*
X140067462Y-71000000D02*
X134170000Y-71000000D01*
X114815000Y-90250000D02*
X115065000Y-90250000D01*
X114815000Y-90250000D02*
X114815000Y-91235000D01*
X128300000Y-80700000D02*
X131200000Y-77800000D01*
X147737940Y-79065100D02*
X147737940Y-78670478D01*
X114815000Y-91235000D02*
X114735000Y-91315000D01*
X114735000Y-92895000D02*
X114500000Y-93130000D01*
X121065000Y-93065000D02*
X121065000Y-91250000D01*
X131601000Y-77966100D02*
X131601000Y-74099000D01*
X148690000Y-79450060D02*
X148690000Y-79500000D01*
X137379000Y-70599000D02*
X140233562Y-70599000D01*
X148138940Y-78899000D02*
X148690000Y-79450060D01*
X128000000Y-81567100D02*
X131601000Y-77966100D01*
X128000000Y-82697000D02*
X128000000Y-81567100D01*
X140233562Y-70599000D02*
X148138940Y-78504378D01*
X136860000Y-70080000D02*
X137379000Y-70599000D01*
X131601000Y-74099000D02*
X133450000Y-72250000D01*
X136860000Y-68610000D02*
X136860000Y-70080000D01*
X121065000Y-90250000D02*
X121065000Y-91250000D01*
X133450000Y-72250000D02*
X136750000Y-72250000D01*
X148138940Y-78504378D02*
X148138940Y-78899000D01*
X149999000Y-80799000D02*
X150600000Y-81400000D01*
X111460000Y-86390000D02*
X111460000Y-87460000D01*
X133701000Y-80799000D02*
X149999000Y-80799000D01*
X113100000Y-84750000D02*
X115182900Y-84750000D01*
X111460000Y-87460000D02*
X111500000Y-87500000D01*
X116633900Y-83299000D02*
X120469700Y-83299000D01*
X155000000Y-81012000D02*
X155000000Y-79000000D01*
X115182900Y-84750000D02*
X116633900Y-83299000D01*
X120471700Y-83297000D02*
X131203000Y-83297000D01*
X155945000Y-78055000D02*
X157264500Y-78055000D01*
X111460000Y-86390000D02*
X113100000Y-84750000D01*
X131203000Y-83297000D02*
X133701000Y-80799000D01*
X154612000Y-81400000D02*
X155000000Y-81012000D01*
X120469700Y-83299000D02*
X120471700Y-83297000D01*
X155000000Y-79000000D02*
X155945000Y-78055000D01*
X150600000Y-81400000D02*
X154612000Y-81400000D01*
X154778100Y-81801000D02*
X155401000Y-81178100D01*
X131369100Y-83698000D02*
X133867100Y-81200000D01*
X133867100Y-81200000D02*
X149832900Y-81200000D01*
X120637800Y-83698000D02*
X131369100Y-83698000D01*
X114000000Y-86390000D02*
X114110000Y-86390000D01*
X116800000Y-83700000D02*
X120635800Y-83700000D01*
X150433900Y-81801000D02*
X154778100Y-81801000D01*
X114110000Y-86390000D02*
X116800000Y-83700000D01*
X155401000Y-79599000D02*
X155675000Y-79325000D01*
X149832900Y-81200000D02*
X150433900Y-81801000D01*
X120635800Y-83700000D02*
X120637800Y-83698000D01*
X155401000Y-81178100D02*
X155401000Y-79599000D01*
X155675000Y-79325000D02*
X157264500Y-79325000D01*
X120801900Y-84101000D02*
X120803900Y-84099000D01*
X118499000Y-84101000D02*
X120801900Y-84101000D01*
X120803900Y-84099000D02*
X131535200Y-84099000D01*
X156155000Y-80595000D02*
X157264500Y-80595000D01*
X150267800Y-82202000D02*
X154944200Y-82202000D01*
X116540000Y-86390000D02*
X116540000Y-86060000D01*
X116540000Y-86060000D02*
X118499000Y-84101000D01*
X154944200Y-82202000D02*
X155802000Y-81344200D01*
X155802000Y-80948000D02*
X156155000Y-80595000D01*
X131535200Y-84099000D02*
X134033200Y-81601000D01*
X155802000Y-81344200D02*
X155802000Y-80948000D01*
X134033200Y-81601000D02*
X149666800Y-81601000D01*
X149666800Y-81601000D02*
X150267800Y-82202000D01*
X155885000Y-81865000D02*
X157264500Y-81865000D01*
X134199300Y-82002000D02*
X149500700Y-82002000D01*
X155110300Y-82603000D02*
X155113300Y-82600000D01*
X131701300Y-84500000D02*
X134199300Y-82002000D01*
X155150000Y-82600000D02*
X155885000Y-81865000D01*
X150101700Y-82603000D02*
X155110300Y-82603000D01*
X120970000Y-84500000D02*
X131701300Y-84500000D01*
X155113300Y-82600000D02*
X155150000Y-82600000D01*
X149500700Y-82002000D02*
X150101700Y-82603000D01*
X119080000Y-86390000D02*
X120970000Y-84500000D01*
X157264500Y-85675000D02*
X157175000Y-85675000D01*
X157175000Y-85675000D02*
X157000000Y-85500000D01*
%TA.AperFunction,Conductor*%
G36*
X149267642Y-82622185D02*
G01*
X149288284Y-82638819D01*
X149616839Y-82967374D01*
X149616849Y-82967385D01*
X149621179Y-82971715D01*
X149621180Y-82971716D01*
X149732984Y-83083520D01*
X149732986Y-83083521D01*
X149732990Y-83083524D01*
X149863528Y-83158889D01*
X149869916Y-83162577D01*
X149981719Y-83192534D01*
X150022642Y-83203500D01*
X150022643Y-83203500D01*
X155031239Y-83203500D01*
X155031243Y-83203501D01*
X155189357Y-83203501D01*
X155199608Y-83200754D01*
X155214953Y-83200516D01*
X155215536Y-83200677D01*
X155216877Y-83200501D01*
X155229054Y-83200501D01*
X155229057Y-83200501D01*
X155381785Y-83159577D01*
X155381786Y-83159576D01*
X155389636Y-83157473D01*
X155390015Y-83158889D01*
X155450605Y-83152372D01*
X155513086Y-83183642D01*
X155548743Y-83243728D01*
X155550214Y-83250212D01*
X155573799Y-83368781D01*
X155573801Y-83368789D01*
X155634218Y-83514650D01*
X155634223Y-83514659D01*
X155721933Y-83645925D01*
X155721936Y-83645929D01*
X155758326Y-83682319D01*
X155791811Y-83743642D01*
X155786827Y-83813334D01*
X155758326Y-83857681D01*
X155721936Y-83894070D01*
X155721933Y-83894074D01*
X155634223Y-84025340D01*
X155634218Y-84025349D01*
X155573801Y-84171210D01*
X155573799Y-84171218D01*
X155543000Y-84326054D01*
X155543000Y-84483945D01*
X155573799Y-84638781D01*
X155573801Y-84638789D01*
X155634218Y-84784650D01*
X155634223Y-84784659D01*
X155721933Y-84915925D01*
X155721936Y-84915929D01*
X155758326Y-84952319D01*
X155791811Y-85013642D01*
X155786827Y-85083334D01*
X155758326Y-85127681D01*
X155721936Y-85164070D01*
X155721933Y-85164074D01*
X155634223Y-85295340D01*
X155634218Y-85295349D01*
X155573801Y-85441210D01*
X155573799Y-85441218D01*
X155543000Y-85596054D01*
X155543000Y-85753945D01*
X155573799Y-85908781D01*
X155573801Y-85908789D01*
X155634218Y-86054650D01*
X155634223Y-86054659D01*
X155721933Y-86185925D01*
X155721936Y-86185929D01*
X155758326Y-86222319D01*
X155791811Y-86283642D01*
X155786827Y-86353334D01*
X155758326Y-86397681D01*
X155721936Y-86434070D01*
X155721933Y-86434074D01*
X155634223Y-86565340D01*
X155634218Y-86565349D01*
X155573801Y-86711210D01*
X155573799Y-86711218D01*
X155543000Y-86866054D01*
X155543000Y-87023945D01*
X155573799Y-87178781D01*
X155573801Y-87178789D01*
X155634218Y-87324650D01*
X155634223Y-87324659D01*
X155721933Y-87455925D01*
X155721936Y-87455929D01*
X155763680Y-87497672D01*
X155797166Y-87558995D01*
X155800000Y-87585354D01*
X155800000Y-89624500D01*
X155780315Y-89691539D01*
X155727511Y-89737294D01*
X155676000Y-89748500D01*
X153724000Y-89748500D01*
X153656961Y-89728815D01*
X153611206Y-89676011D01*
X153600000Y-89624500D01*
X153600000Y-84800000D01*
X134424000Y-84800000D01*
X134356961Y-84780315D01*
X134311206Y-84727511D01*
X134300000Y-84676000D01*
X134300000Y-82801897D01*
X134308644Y-82772456D01*
X134315168Y-82742470D01*
X134318922Y-82737454D01*
X134319685Y-82734858D01*
X134336319Y-82714216D01*
X134411716Y-82638819D01*
X134473039Y-82605334D01*
X134499397Y-82602500D01*
X149200603Y-82602500D01*
X149267642Y-82622185D01*
G37*
%TD.AperFunction*%
%TA.AperFunction,Conductor*%
G36*
X142015677Y-74019685D02*
G01*
X142036319Y-74036319D01*
X145963681Y-77963681D01*
X145997166Y-78025004D01*
X146000000Y-78051362D01*
X146000000Y-80074500D01*
X145980315Y-80141539D01*
X145927511Y-80187294D01*
X145876000Y-80198500D01*
X133621940Y-80198500D01*
X133581019Y-80209464D01*
X133581019Y-80209465D01*
X133543751Y-80219451D01*
X133469214Y-80239423D01*
X133469209Y-80239426D01*
X133332290Y-80318475D01*
X133332282Y-80318481D01*
X133187083Y-80463681D01*
X133125760Y-80497166D01*
X133099402Y-80500000D01*
X131299362Y-80500000D01*
X131232323Y-80480315D01*
X131186568Y-80427511D01*
X131176624Y-80358353D01*
X131205649Y-80294797D01*
X131211681Y-80288319D01*
X131500000Y-80000000D01*
X132500000Y-79000000D01*
X132500000Y-78503864D01*
X132504150Y-78488373D01*
X132503496Y-78474629D01*
X132516610Y-78441869D01*
X132540495Y-78400500D01*
X132561577Y-78363985D01*
X132602501Y-78211257D01*
X132602501Y-78053143D01*
X132602501Y-78045548D01*
X132602500Y-78045530D01*
X132602500Y-74965197D01*
X132622185Y-74898158D01*
X132638819Y-74877516D01*
X133480016Y-74036319D01*
X133541339Y-74002834D01*
X133567697Y-74000000D01*
X141948638Y-74000000D01*
X142015677Y-74019685D01*
G37*
%TD.AperFunction*%
%TA.AperFunction,Conductor*%
G36*
X166163615Y-85670460D02*
G01*
X166242299Y-85696027D01*
X166413389Y-85723125D01*
X166413390Y-85723125D01*
X166586610Y-85723125D01*
X166586611Y-85723125D01*
X166757701Y-85696027D01*
X166836384Y-85670460D01*
X166874702Y-85664392D01*
X167876000Y-85664392D01*
X167943039Y-85684077D01*
X167988794Y-85736881D01*
X168000000Y-85788392D01*
X168000000Y-88876000D01*
X167980315Y-88943039D01*
X167927511Y-88988794D01*
X167876000Y-89000000D01*
X160500000Y-89000000D01*
X160357050Y-89142949D01*
X160214100Y-89285899D01*
X160169752Y-89314399D01*
X160057671Y-89356202D01*
X160057664Y-89356206D01*
X159942455Y-89442452D01*
X159942452Y-89442455D01*
X159856206Y-89557664D01*
X159856202Y-89557671D01*
X159814399Y-89669752D01*
X159785899Y-89714100D01*
X159500000Y-90000000D01*
X159500000Y-93876000D01*
X159480315Y-93943039D01*
X159427511Y-93988794D01*
X159376000Y-94000000D01*
X157000000Y-94000000D01*
X157000000Y-92071037D01*
X157066716Y-92032520D01*
X157178520Y-91920716D01*
X157178520Y-91920714D01*
X157188728Y-91910507D01*
X157188729Y-91910504D01*
X158183520Y-90915716D01*
X158260556Y-90782284D01*
X158262576Y-90778786D01*
X158262578Y-90778782D01*
X158269117Y-90754377D01*
X158301208Y-90698791D01*
X158500000Y-90500000D01*
X158500000Y-89900596D01*
X158519685Y-89833557D01*
X158536315Y-89812919D01*
X160571713Y-87777521D01*
X160571716Y-87777520D01*
X160683520Y-87665716D01*
X160733639Y-87578904D01*
X160743405Y-87561990D01*
X160793977Y-87513779D01*
X160850786Y-87500000D01*
X166000000Y-87500000D01*
X166000000Y-86500000D01*
X165624000Y-86500000D01*
X165556961Y-86480315D01*
X165511206Y-86427511D01*
X165500000Y-86376000D01*
X165500000Y-85788392D01*
X165519685Y-85721353D01*
X165572489Y-85675598D01*
X165624000Y-85664392D01*
X166125298Y-85664392D01*
X166163615Y-85670460D01*
G37*
%TD.AperFunction*%
%TA.AperFunction,Conductor*%
G36*
X157000000Y-94000000D02*
G01*
X155304146Y-94000000D01*
X155237107Y-93980315D01*
X155231261Y-93976318D01*
X155159339Y-93924064D01*
X155159338Y-93924063D01*
X155159336Y-93924062D01*
X154982904Y-93834166D01*
X154794582Y-93772976D01*
X154794580Y-93772975D01*
X154794578Y-93772975D01*
X154599012Y-93742000D01*
X154599007Y-93742000D01*
X154400993Y-93742000D01*
X154400988Y-93742000D01*
X154205421Y-93772975D01*
X154017093Y-93834167D01*
X153885015Y-93901464D01*
X153816345Y-93914360D01*
X153754408Y-93890245D01*
X153742331Y-93881204D01*
X153742328Y-93881202D01*
X153607486Y-93830910D01*
X153607485Y-93830909D01*
X153607483Y-93830909D01*
X153547873Y-93824500D01*
X153547863Y-93824500D01*
X153052129Y-93824500D01*
X153052120Y-93824501D01*
X152988248Y-93831367D01*
X152961742Y-93831367D01*
X152957483Y-93830909D01*
X152897873Y-93824500D01*
X152897864Y-93824500D01*
X152402129Y-93824500D01*
X152402120Y-93824501D01*
X152338248Y-93831367D01*
X152311742Y-93831367D01*
X152307483Y-93830909D01*
X152247873Y-93824500D01*
X152247864Y-93824500D01*
X151752129Y-93824500D01*
X151752120Y-93824501D01*
X151688248Y-93831367D01*
X151661742Y-93831367D01*
X151657483Y-93830909D01*
X151597873Y-93824500D01*
X151597864Y-93824500D01*
X151102129Y-93824500D01*
X151102123Y-93824501D01*
X151042516Y-93830908D01*
X150907671Y-93881202D01*
X150907664Y-93881206D01*
X150785355Y-93972768D01*
X150783680Y-93970531D01*
X150734904Y-93997166D01*
X150708546Y-94000000D01*
X150304146Y-94000000D01*
X150237107Y-93980315D01*
X150231261Y-93976318D01*
X150159339Y-93924064D01*
X150159338Y-93924063D01*
X150159336Y-93924062D01*
X149982904Y-93834166D01*
X149794582Y-93772976D01*
X149794580Y-93772975D01*
X149794578Y-93772975D01*
X149599012Y-93742000D01*
X149599007Y-93742000D01*
X149400993Y-93742000D01*
X149400988Y-93742000D01*
X149205421Y-93772975D01*
X149017093Y-93834167D01*
X148840660Y-93924064D01*
X148768739Y-93976318D01*
X148702933Y-93999798D01*
X148695854Y-94000000D01*
X148124000Y-94000000D01*
X148056961Y-93980315D01*
X148011206Y-93927511D01*
X148000000Y-93876000D01*
X148000000Y-92276500D01*
X148019685Y-92209461D01*
X148072489Y-92163706D01*
X148124000Y-92152500D01*
X156611331Y-92152500D01*
X156611347Y-92152501D01*
X156618943Y-92152501D01*
X156777054Y-92152501D01*
X156777057Y-92152501D01*
X156929785Y-92111577D01*
X156979904Y-92082639D01*
X157000000Y-92071037D01*
X157000000Y-94000000D01*
G37*
%TD.AperFunction*%
%TA.AperFunction,Conductor*%
G36*
X169443039Y-67019685D02*
G01*
X169488794Y-67072489D01*
X169500000Y-67124000D01*
X169500000Y-72876000D01*
X169480315Y-72943039D01*
X169427511Y-72988794D01*
X169376000Y-73000000D01*
X150000000Y-73000000D01*
X150000000Y-77876000D01*
X149980315Y-77943039D01*
X149927511Y-77988794D01*
X149876000Y-78000000D01*
X149102259Y-78000000D01*
X149035220Y-77980315D01*
X149014578Y-77963681D01*
X142262578Y-71211681D01*
X142229093Y-71150358D01*
X142234077Y-71080666D01*
X142275949Y-71024733D01*
X142341413Y-71000316D01*
X142350259Y-71000000D01*
X154000000Y-71000000D01*
X154000000Y-67124000D01*
X154019685Y-67056961D01*
X154072489Y-67011206D01*
X154124000Y-67000000D01*
X169376000Y-67000000D01*
X169443039Y-67019685D01*
G37*
%TD.AperFunction*%
%TA.AperFunction,Conductor*%
G36*
X107531683Y-69519685D02*
G01*
X107577438Y-69572489D01*
X107580826Y-69580667D01*
X107626202Y-69702328D01*
X107626206Y-69702335D01*
X107712452Y-69817544D01*
X107712455Y-69817547D01*
X107827664Y-69903793D01*
X107827671Y-69903797D01*
X107962517Y-69954091D01*
X107962515Y-69954091D01*
X108021630Y-69960447D01*
X108086181Y-69987185D01*
X108096055Y-69996055D01*
X108100000Y-70000000D01*
X130376000Y-70000000D01*
X130443039Y-70019685D01*
X130488794Y-70072489D01*
X130500000Y-70124000D01*
X130500000Y-76548638D01*
X130480315Y-76615677D01*
X130463681Y-76636319D01*
X124439819Y-82660181D01*
X124378496Y-82693666D01*
X124352138Y-82696500D01*
X120550757Y-82696500D01*
X120392642Y-82696500D01*
X120392639Y-82696500D01*
X120385514Y-82697439D01*
X120369326Y-82698500D01*
X116720569Y-82698500D01*
X116720553Y-82698499D01*
X116712957Y-82698499D01*
X116554843Y-82698499D01*
X116447487Y-82727265D01*
X116402110Y-82739424D01*
X116402109Y-82739425D01*
X116351996Y-82768359D01*
X116351995Y-82768360D01*
X116308589Y-82793420D01*
X116265185Y-82818479D01*
X116265182Y-82818481D01*
X116153378Y-82930286D01*
X114970484Y-84113181D01*
X114909161Y-84146666D01*
X114882803Y-84149500D01*
X113179057Y-84149500D01*
X113020942Y-84149500D01*
X112868215Y-84190423D01*
X112868214Y-84190423D01*
X112868212Y-84190424D01*
X112868209Y-84190425D01*
X112818096Y-84219359D01*
X112818095Y-84219360D01*
X112774689Y-84244420D01*
X112731285Y-84269479D01*
X112731282Y-84269481D01*
X112537083Y-84463681D01*
X112475760Y-84497166D01*
X112449402Y-84500000D01*
X104224000Y-84500000D01*
X104156961Y-84480315D01*
X104111206Y-84427511D01*
X104100000Y-84376000D01*
X104100000Y-81728272D01*
X104119685Y-81661233D01*
X104172489Y-81615478D01*
X104204591Y-81605801D01*
X104297951Y-81591015D01*
X104507606Y-81522895D01*
X104526014Y-81513515D01*
X104582308Y-81500000D01*
X108600000Y-81500000D01*
X108600000Y-73000000D01*
X105524000Y-73000000D01*
X105456961Y-72980315D01*
X105411206Y-72927511D01*
X105400000Y-72876000D01*
X105400000Y-69624000D01*
X105419685Y-69556961D01*
X105472489Y-69511206D01*
X105524000Y-69500000D01*
X107464644Y-69500000D01*
X107531683Y-69519685D01*
G37*
%TD.AperFunction*%
M02*
