%TF.GenerationSoftware,KiCad,Pcbnew,9.0.1*%
%TF.CreationDate,2025-05-06T22:51:07-07:00*%
%TF.ProjectId,picow_motor_driver,7069636f-775f-46d6-9f74-6f725f647269,rev?*%
%TF.SameCoordinates,Original*%
%TF.FileFunction,Legend,Top*%
%TF.FilePolarity,Positive*%
%FSLAX46Y46*%
G04 Gerber Fmt 4.6, Leading zero omitted, Abs format (unit mm)*
G04 Created by KiCad (PCBNEW 9.0.1) date 2025-05-06 22:51:07*
%MOMM*%
%LPD*%
G01*
G04 APERTURE LIST*
%ADD10C,0.125000*%
%ADD11C,0.187500*%
%ADD12C,0.254000*%
%ADD13C,0.150000*%
%ADD14C,0.200000*%
%ADD15C,0.120000*%
%ADD16C,0.152500*%
%ADD17C,0.000000*%
%ADD18C,0.100000*%
%ADD19C,0.300000*%
G04 APERTURE END LIST*
D10*
X164796521Y-76030059D02*
X164891759Y-76030059D01*
X164891759Y-76030059D02*
X164939378Y-76053869D01*
X164939378Y-76053869D02*
X164986997Y-76101488D01*
X164986997Y-76101488D02*
X165010807Y-76196726D01*
X165010807Y-76196726D02*
X165010807Y-76363392D01*
X165010807Y-76363392D02*
X164986997Y-76458630D01*
X164986997Y-76458630D02*
X164939378Y-76506250D01*
X164939378Y-76506250D02*
X164891759Y-76530059D01*
X164891759Y-76530059D02*
X164796521Y-76530059D01*
X164796521Y-76530059D02*
X164748902Y-76506250D01*
X164748902Y-76506250D02*
X164701283Y-76458630D01*
X164701283Y-76458630D02*
X164677474Y-76363392D01*
X164677474Y-76363392D02*
X164677474Y-76196726D01*
X164677474Y-76196726D02*
X164701283Y-76101488D01*
X164701283Y-76101488D02*
X164748902Y-76053869D01*
X164748902Y-76053869D02*
X164796521Y-76030059D01*
X165225093Y-76030059D02*
X165225093Y-76434821D01*
X165225093Y-76434821D02*
X165248903Y-76482440D01*
X165248903Y-76482440D02*
X165272712Y-76506250D01*
X165272712Y-76506250D02*
X165320331Y-76530059D01*
X165320331Y-76530059D02*
X165415569Y-76530059D01*
X165415569Y-76530059D02*
X165463188Y-76506250D01*
X165463188Y-76506250D02*
X165486998Y-76482440D01*
X165486998Y-76482440D02*
X165510807Y-76434821D01*
X165510807Y-76434821D02*
X165510807Y-76030059D01*
X165677475Y-76030059D02*
X165963189Y-76030059D01*
X165820332Y-76530059D02*
X165820332Y-76030059D01*
X166106046Y-76077678D02*
X166129855Y-76053869D01*
X166129855Y-76053869D02*
X166177474Y-76030059D01*
X166177474Y-76030059D02*
X166296522Y-76030059D01*
X166296522Y-76030059D02*
X166344141Y-76053869D01*
X166344141Y-76053869D02*
X166367950Y-76077678D01*
X166367950Y-76077678D02*
X166391760Y-76125297D01*
X166391760Y-76125297D02*
X166391760Y-76172916D01*
X166391760Y-76172916D02*
X166367950Y-76244345D01*
X166367950Y-76244345D02*
X166082236Y-76530059D01*
X166082236Y-76530059D02*
X166391760Y-76530059D01*
X108965384Y-92004753D02*
X108965384Y-91504753D01*
X108965384Y-91695229D02*
X109013003Y-91671420D01*
X109013003Y-91671420D02*
X109108241Y-91671420D01*
X109108241Y-91671420D02*
X109155860Y-91695229D01*
X109155860Y-91695229D02*
X109179670Y-91719039D01*
X109179670Y-91719039D02*
X109203479Y-91766658D01*
X109203479Y-91766658D02*
X109203479Y-91909515D01*
X109203479Y-91909515D02*
X109179670Y-91957134D01*
X109179670Y-91957134D02*
X109155860Y-91980944D01*
X109155860Y-91980944D02*
X109108241Y-92004753D01*
X109108241Y-92004753D02*
X109013003Y-92004753D01*
X109013003Y-92004753D02*
X108965384Y-91980944D01*
X109370146Y-91671420D02*
X109489194Y-92004753D01*
X109608241Y-91671420D02*
X109489194Y-92004753D01*
X109489194Y-92004753D02*
X109441575Y-92123801D01*
X109441575Y-92123801D02*
X109417765Y-92147610D01*
X109417765Y-92147610D02*
X109370146Y-92171420D01*
X110108241Y-91504753D02*
X110274907Y-92004753D01*
X110274907Y-92004753D02*
X110441574Y-91504753D01*
X110584431Y-91980944D02*
X110655859Y-92004753D01*
X110655859Y-92004753D02*
X110774907Y-92004753D01*
X110774907Y-92004753D02*
X110822526Y-91980944D01*
X110822526Y-91980944D02*
X110846335Y-91957134D01*
X110846335Y-91957134D02*
X110870145Y-91909515D01*
X110870145Y-91909515D02*
X110870145Y-91861896D01*
X110870145Y-91861896D02*
X110846335Y-91814277D01*
X110846335Y-91814277D02*
X110822526Y-91790467D01*
X110822526Y-91790467D02*
X110774907Y-91766658D01*
X110774907Y-91766658D02*
X110679669Y-91742848D01*
X110679669Y-91742848D02*
X110632050Y-91719039D01*
X110632050Y-91719039D02*
X110608240Y-91695229D01*
X110608240Y-91695229D02*
X110584431Y-91647610D01*
X110584431Y-91647610D02*
X110584431Y-91599991D01*
X110584431Y-91599991D02*
X110608240Y-91552372D01*
X110608240Y-91552372D02*
X110632050Y-91528563D01*
X110632050Y-91528563D02*
X110679669Y-91504753D01*
X110679669Y-91504753D02*
X110798716Y-91504753D01*
X110798716Y-91504753D02*
X110870145Y-91528563D01*
X111060621Y-91861896D02*
X111298716Y-91861896D01*
X111013002Y-92004753D02*
X111179668Y-91504753D01*
X111179668Y-91504753D02*
X111346335Y-92004753D01*
X111465382Y-91504753D02*
X111584430Y-92004753D01*
X111584430Y-92004753D02*
X111679668Y-91647610D01*
X111679668Y-91647610D02*
X111774906Y-92004753D01*
X111774906Y-92004753D02*
X111893954Y-91504753D01*
X112370144Y-91957134D02*
X112346335Y-91980944D01*
X112346335Y-91980944D02*
X112274906Y-92004753D01*
X112274906Y-92004753D02*
X112227287Y-92004753D01*
X112227287Y-92004753D02*
X112155859Y-91980944D01*
X112155859Y-91980944D02*
X112108240Y-91933324D01*
X112108240Y-91933324D02*
X112084430Y-91885705D01*
X112084430Y-91885705D02*
X112060621Y-91790467D01*
X112060621Y-91790467D02*
X112060621Y-91719039D01*
X112060621Y-91719039D02*
X112084430Y-91623801D01*
X112084430Y-91623801D02*
X112108240Y-91576182D01*
X112108240Y-91576182D02*
X112155859Y-91528563D01*
X112155859Y-91528563D02*
X112227287Y-91504753D01*
X112227287Y-91504753D02*
X112274906Y-91504753D01*
X112274906Y-91504753D02*
X112346335Y-91528563D01*
X112346335Y-91528563D02*
X112370144Y-91552372D01*
X112584430Y-91742848D02*
X112751097Y-91742848D01*
X112822525Y-92004753D02*
X112584430Y-92004753D01*
X112584430Y-92004753D02*
X112584430Y-91504753D01*
X112584430Y-91504753D02*
X112822525Y-91504753D01*
X168200737Y-88523069D02*
X168153118Y-88499259D01*
X168153118Y-88499259D02*
X168081689Y-88499259D01*
X168081689Y-88499259D02*
X168010261Y-88523069D01*
X168010261Y-88523069D02*
X167962642Y-88570688D01*
X167962642Y-88570688D02*
X167938832Y-88618307D01*
X167938832Y-88618307D02*
X167915023Y-88713545D01*
X167915023Y-88713545D02*
X167915023Y-88784973D01*
X167915023Y-88784973D02*
X167938832Y-88880211D01*
X167938832Y-88880211D02*
X167962642Y-88927830D01*
X167962642Y-88927830D02*
X168010261Y-88975450D01*
X168010261Y-88975450D02*
X168081689Y-88999259D01*
X168081689Y-88999259D02*
X168129308Y-88999259D01*
X168129308Y-88999259D02*
X168200737Y-88975450D01*
X168200737Y-88975450D02*
X168224546Y-88951640D01*
X168224546Y-88951640D02*
X168224546Y-88784973D01*
X168224546Y-88784973D02*
X168129308Y-88784973D01*
X168438832Y-88999259D02*
X168438832Y-88499259D01*
X168438832Y-88499259D02*
X168724546Y-88999259D01*
X168724546Y-88999259D02*
X168724546Y-88499259D01*
X168962642Y-88999259D02*
X168962642Y-88499259D01*
X168962642Y-88499259D02*
X169081690Y-88499259D01*
X169081690Y-88499259D02*
X169153118Y-88523069D01*
X169153118Y-88523069D02*
X169200737Y-88570688D01*
X169200737Y-88570688D02*
X169224547Y-88618307D01*
X169224547Y-88618307D02*
X169248356Y-88713545D01*
X169248356Y-88713545D02*
X169248356Y-88784973D01*
X169248356Y-88784973D02*
X169224547Y-88880211D01*
X169224547Y-88880211D02*
X169200737Y-88927830D01*
X169200737Y-88927830D02*
X169153118Y-88975450D01*
X169153118Y-88975450D02*
X169081690Y-88999259D01*
X169081690Y-88999259D02*
X168962642Y-88999259D01*
X160701283Y-88432309D02*
X160701283Y-88837071D01*
X160701283Y-88837071D02*
X160725093Y-88884690D01*
X160725093Y-88884690D02*
X160748902Y-88908500D01*
X160748902Y-88908500D02*
X160796521Y-88932309D01*
X160796521Y-88932309D02*
X160891759Y-88932309D01*
X160891759Y-88932309D02*
X160939378Y-88908500D01*
X160939378Y-88908500D02*
X160963188Y-88884690D01*
X160963188Y-88884690D02*
X160986997Y-88837071D01*
X160986997Y-88837071D02*
X160986997Y-88432309D01*
X161225093Y-88932309D02*
X161225093Y-88432309D01*
X161225093Y-88432309D02*
X161415569Y-88432309D01*
X161415569Y-88432309D02*
X161463188Y-88456119D01*
X161463188Y-88456119D02*
X161486998Y-88479928D01*
X161486998Y-88479928D02*
X161510807Y-88527547D01*
X161510807Y-88527547D02*
X161510807Y-88598976D01*
X161510807Y-88598976D02*
X161486998Y-88646595D01*
X161486998Y-88646595D02*
X161463188Y-88670404D01*
X161463188Y-88670404D02*
X161415569Y-88694214D01*
X161415569Y-88694214D02*
X161225093Y-88694214D01*
D11*
X144659069Y-90648464D02*
X144301926Y-90648464D01*
X144301926Y-90648464D02*
X144266212Y-91005607D01*
X144266212Y-91005607D02*
X144301926Y-90969892D01*
X144301926Y-90969892D02*
X144373355Y-90934178D01*
X144373355Y-90934178D02*
X144551926Y-90934178D01*
X144551926Y-90934178D02*
X144623355Y-90969892D01*
X144623355Y-90969892D02*
X144659069Y-91005607D01*
X144659069Y-91005607D02*
X144694783Y-91077035D01*
X144694783Y-91077035D02*
X144694783Y-91255607D01*
X144694783Y-91255607D02*
X144659069Y-91327035D01*
X144659069Y-91327035D02*
X144623355Y-91362750D01*
X144623355Y-91362750D02*
X144551926Y-91398464D01*
X144551926Y-91398464D02*
X144373355Y-91398464D01*
X144373355Y-91398464D02*
X144301926Y-91362750D01*
X144301926Y-91362750D02*
X144266212Y-91327035D01*
X144909069Y-90648464D02*
X145159069Y-91398464D01*
X145159069Y-91398464D02*
X145409069Y-90648464D01*
D10*
X167294205Y-76015574D02*
X167389443Y-76015574D01*
X167389443Y-76015574D02*
X167437062Y-76039384D01*
X167437062Y-76039384D02*
X167484681Y-76087003D01*
X167484681Y-76087003D02*
X167508491Y-76182241D01*
X167508491Y-76182241D02*
X167508491Y-76348907D01*
X167508491Y-76348907D02*
X167484681Y-76444145D01*
X167484681Y-76444145D02*
X167437062Y-76491765D01*
X167437062Y-76491765D02*
X167389443Y-76515574D01*
X167389443Y-76515574D02*
X167294205Y-76515574D01*
X167294205Y-76515574D02*
X167246586Y-76491765D01*
X167246586Y-76491765D02*
X167198967Y-76444145D01*
X167198967Y-76444145D02*
X167175158Y-76348907D01*
X167175158Y-76348907D02*
X167175158Y-76182241D01*
X167175158Y-76182241D02*
X167198967Y-76087003D01*
X167198967Y-76087003D02*
X167246586Y-76039384D01*
X167246586Y-76039384D02*
X167294205Y-76015574D01*
X167722777Y-76015574D02*
X167722777Y-76420336D01*
X167722777Y-76420336D02*
X167746587Y-76467955D01*
X167746587Y-76467955D02*
X167770396Y-76491765D01*
X167770396Y-76491765D02*
X167818015Y-76515574D01*
X167818015Y-76515574D02*
X167913253Y-76515574D01*
X167913253Y-76515574D02*
X167960872Y-76491765D01*
X167960872Y-76491765D02*
X167984682Y-76467955D01*
X167984682Y-76467955D02*
X168008491Y-76420336D01*
X168008491Y-76420336D02*
X168008491Y-76015574D01*
X168175159Y-76015574D02*
X168460873Y-76015574D01*
X168318016Y-76515574D02*
X168318016Y-76015574D01*
X168889444Y-76515574D02*
X168603730Y-76515574D01*
X168746587Y-76515574D02*
X168746587Y-76015574D01*
X168746587Y-76015574D02*
X168698968Y-76087003D01*
X168698968Y-76087003D02*
X168651349Y-76134622D01*
X168651349Y-76134622D02*
X168603730Y-76158431D01*
D11*
X111821782Y-95675136D02*
X112428925Y-95675136D01*
X112428925Y-95675136D02*
X112500353Y-95639422D01*
X112500353Y-95639422D02*
X112536068Y-95603708D01*
X112536068Y-95603708D02*
X112571782Y-95532279D01*
X112571782Y-95532279D02*
X112571782Y-95389422D01*
X112571782Y-95389422D02*
X112536068Y-95317993D01*
X112536068Y-95317993D02*
X112500353Y-95282279D01*
X112500353Y-95282279D02*
X112428925Y-95246565D01*
X112428925Y-95246565D02*
X111821782Y-95246565D01*
X112571782Y-94889422D02*
X111821782Y-94889422D01*
X111821782Y-94889422D02*
X111821782Y-94603708D01*
X111821782Y-94603708D02*
X111857496Y-94532279D01*
X111857496Y-94532279D02*
X111893210Y-94496565D01*
X111893210Y-94496565D02*
X111964639Y-94460851D01*
X111964639Y-94460851D02*
X112071782Y-94460851D01*
X112071782Y-94460851D02*
X112143210Y-94496565D01*
X112143210Y-94496565D02*
X112178925Y-94532279D01*
X112178925Y-94532279D02*
X112214639Y-94603708D01*
X112214639Y-94603708D02*
X112214639Y-94889422D01*
X125510768Y-95569278D02*
X125546483Y-95604992D01*
X125546483Y-95604992D02*
X125582197Y-95712135D01*
X125582197Y-95712135D02*
X125582197Y-95783563D01*
X125582197Y-95783563D02*
X125546483Y-95890706D01*
X125546483Y-95890706D02*
X125475054Y-95962135D01*
X125475054Y-95962135D02*
X125403625Y-95997849D01*
X125403625Y-95997849D02*
X125260768Y-96033563D01*
X125260768Y-96033563D02*
X125153625Y-96033563D01*
X125153625Y-96033563D02*
X125010768Y-95997849D01*
X125010768Y-95997849D02*
X124939340Y-95962135D01*
X124939340Y-95962135D02*
X124867911Y-95890706D01*
X124867911Y-95890706D02*
X124832197Y-95783563D01*
X124832197Y-95783563D02*
X124832197Y-95712135D01*
X124832197Y-95712135D02*
X124867911Y-95604992D01*
X124867911Y-95604992D02*
X124903625Y-95569278D01*
X125367911Y-95283563D02*
X125367911Y-94926421D01*
X125582197Y-95354992D02*
X124832197Y-95104992D01*
X124832197Y-95104992D02*
X125582197Y-94854992D01*
X125582197Y-94247849D02*
X125582197Y-94604992D01*
X125582197Y-94604992D02*
X124832197Y-94604992D01*
X119175676Y-96184433D02*
X118425676Y-96184433D01*
X118425676Y-96184433D02*
X118425676Y-96005862D01*
X118425676Y-96005862D02*
X118461390Y-95898719D01*
X118461390Y-95898719D02*
X118532819Y-95827290D01*
X118532819Y-95827290D02*
X118604247Y-95791576D01*
X118604247Y-95791576D02*
X118747104Y-95755862D01*
X118747104Y-95755862D02*
X118854247Y-95755862D01*
X118854247Y-95755862D02*
X118997104Y-95791576D01*
X118997104Y-95791576D02*
X119068533Y-95827290D01*
X119068533Y-95827290D02*
X119139962Y-95898719D01*
X119139962Y-95898719D02*
X119175676Y-96005862D01*
X119175676Y-96005862D02*
X119175676Y-96184433D01*
X118425676Y-95505862D02*
X119175676Y-95327290D01*
X119175676Y-95327290D02*
X118639962Y-95184433D01*
X118639962Y-95184433D02*
X119175676Y-95041576D01*
X119175676Y-95041576D02*
X118425676Y-94863005D01*
X119175676Y-94577290D02*
X118425676Y-94577290D01*
X118425676Y-94577290D02*
X119175676Y-94148719D01*
X119175676Y-94148719D02*
X118425676Y-94148719D01*
D10*
X165826411Y-88945123D02*
X165802602Y-88968933D01*
X165802602Y-88968933D02*
X165731173Y-88992742D01*
X165731173Y-88992742D02*
X165683554Y-88992742D01*
X165683554Y-88992742D02*
X165612126Y-88968933D01*
X165612126Y-88968933D02*
X165564507Y-88921313D01*
X165564507Y-88921313D02*
X165540697Y-88873694D01*
X165540697Y-88873694D02*
X165516888Y-88778456D01*
X165516888Y-88778456D02*
X165516888Y-88707028D01*
X165516888Y-88707028D02*
X165540697Y-88611790D01*
X165540697Y-88611790D02*
X165564507Y-88564171D01*
X165564507Y-88564171D02*
X165612126Y-88516552D01*
X165612126Y-88516552D02*
X165683554Y-88492742D01*
X165683554Y-88492742D02*
X165731173Y-88492742D01*
X165731173Y-88492742D02*
X165802602Y-88516552D01*
X165802602Y-88516552D02*
X165826411Y-88540361D01*
X166016888Y-88849885D02*
X166254983Y-88849885D01*
X165969269Y-88992742D02*
X166135935Y-88492742D01*
X166135935Y-88492742D02*
X166302602Y-88992742D01*
X166707363Y-88992742D02*
X166469268Y-88992742D01*
X166469268Y-88992742D02*
X166469268Y-88492742D01*
X162914479Y-88953642D02*
X162914479Y-88453642D01*
X162914479Y-88453642D02*
X163033527Y-88453642D01*
X163033527Y-88453642D02*
X163104955Y-88477452D01*
X163104955Y-88477452D02*
X163152574Y-88525071D01*
X163152574Y-88525071D02*
X163176384Y-88572690D01*
X163176384Y-88572690D02*
X163200193Y-88667928D01*
X163200193Y-88667928D02*
X163200193Y-88739356D01*
X163200193Y-88739356D02*
X163176384Y-88834594D01*
X163176384Y-88834594D02*
X163152574Y-88882213D01*
X163152574Y-88882213D02*
X163104955Y-88929833D01*
X163104955Y-88929833D02*
X163033527Y-88953642D01*
X163033527Y-88953642D02*
X162914479Y-88953642D01*
X163366860Y-88453642D02*
X163485908Y-88953642D01*
X163485908Y-88953642D02*
X163581146Y-88596499D01*
X163581146Y-88596499D02*
X163676384Y-88953642D01*
X163676384Y-88953642D02*
X163795432Y-88453642D01*
X163985908Y-88953642D02*
X163985908Y-88453642D01*
X163985908Y-88453642D02*
X164271622Y-88953642D01*
X164271622Y-88953642D02*
X164271622Y-88453642D01*
X103986997Y-92004753D02*
X103820331Y-91766658D01*
X103701283Y-92004753D02*
X103701283Y-91504753D01*
X103701283Y-91504753D02*
X103891759Y-91504753D01*
X103891759Y-91504753D02*
X103939378Y-91528563D01*
X103939378Y-91528563D02*
X103963188Y-91552372D01*
X103963188Y-91552372D02*
X103986997Y-91599991D01*
X103986997Y-91599991D02*
X103986997Y-91671420D01*
X103986997Y-91671420D02*
X103963188Y-91719039D01*
X103963188Y-91719039D02*
X103939378Y-91742848D01*
X103939378Y-91742848D02*
X103891759Y-91766658D01*
X103891759Y-91766658D02*
X103701283Y-91766658D01*
X104201283Y-91742848D02*
X104367950Y-91742848D01*
X104439378Y-92004753D02*
X104201283Y-92004753D01*
X104201283Y-92004753D02*
X104201283Y-91504753D01*
X104201283Y-91504753D02*
X104439378Y-91504753D01*
X104582236Y-91504753D02*
X104748902Y-92004753D01*
X104748902Y-92004753D02*
X104915569Y-91504753D01*
X105439378Y-91861896D02*
X105677473Y-91861896D01*
X105391759Y-92004753D02*
X105558425Y-91504753D01*
X105558425Y-91504753D02*
X105725092Y-92004753D01*
X103677474Y-90552372D02*
X103701283Y-90528563D01*
X103701283Y-90528563D02*
X103748902Y-90504753D01*
X103748902Y-90504753D02*
X103867950Y-90504753D01*
X103867950Y-90504753D02*
X103915569Y-90528563D01*
X103915569Y-90528563D02*
X103939378Y-90552372D01*
X103939378Y-90552372D02*
X103963188Y-90599991D01*
X103963188Y-90599991D02*
X103963188Y-90647610D01*
X103963188Y-90647610D02*
X103939378Y-90719039D01*
X103939378Y-90719039D02*
X103653664Y-91004753D01*
X103653664Y-91004753D02*
X103963188Y-91004753D01*
X104248902Y-90719039D02*
X104201283Y-90695229D01*
X104201283Y-90695229D02*
X104177473Y-90671420D01*
X104177473Y-90671420D02*
X104153664Y-90623801D01*
X104153664Y-90623801D02*
X104153664Y-90599991D01*
X104153664Y-90599991D02*
X104177473Y-90552372D01*
X104177473Y-90552372D02*
X104201283Y-90528563D01*
X104201283Y-90528563D02*
X104248902Y-90504753D01*
X104248902Y-90504753D02*
X104344140Y-90504753D01*
X104344140Y-90504753D02*
X104391759Y-90528563D01*
X104391759Y-90528563D02*
X104415568Y-90552372D01*
X104415568Y-90552372D02*
X104439378Y-90599991D01*
X104439378Y-90599991D02*
X104439378Y-90623801D01*
X104439378Y-90623801D02*
X104415568Y-90671420D01*
X104415568Y-90671420D02*
X104391759Y-90695229D01*
X104391759Y-90695229D02*
X104344140Y-90719039D01*
X104344140Y-90719039D02*
X104248902Y-90719039D01*
X104248902Y-90719039D02*
X104201283Y-90742848D01*
X104201283Y-90742848D02*
X104177473Y-90766658D01*
X104177473Y-90766658D02*
X104153664Y-90814277D01*
X104153664Y-90814277D02*
X104153664Y-90909515D01*
X104153664Y-90909515D02*
X104177473Y-90957134D01*
X104177473Y-90957134D02*
X104201283Y-90980944D01*
X104201283Y-90980944D02*
X104248902Y-91004753D01*
X104248902Y-91004753D02*
X104344140Y-91004753D01*
X104344140Y-91004753D02*
X104391759Y-90980944D01*
X104391759Y-90980944D02*
X104415568Y-90957134D01*
X104415568Y-90957134D02*
X104439378Y-90909515D01*
X104439378Y-90909515D02*
X104439378Y-90814277D01*
X104439378Y-90814277D02*
X104415568Y-90766658D01*
X104415568Y-90766658D02*
X104391759Y-90742848D01*
X104391759Y-90742848D02*
X104344140Y-90719039D01*
X104820330Y-90742848D02*
X104891758Y-90766658D01*
X104891758Y-90766658D02*
X104915568Y-90790467D01*
X104915568Y-90790467D02*
X104939377Y-90838086D01*
X104939377Y-90838086D02*
X104939377Y-90909515D01*
X104939377Y-90909515D02*
X104915568Y-90957134D01*
X104915568Y-90957134D02*
X104891758Y-90980944D01*
X104891758Y-90980944D02*
X104844139Y-91004753D01*
X104844139Y-91004753D02*
X104653663Y-91004753D01*
X104653663Y-91004753D02*
X104653663Y-90504753D01*
X104653663Y-90504753D02*
X104820330Y-90504753D01*
X104820330Y-90504753D02*
X104867949Y-90528563D01*
X104867949Y-90528563D02*
X104891758Y-90552372D01*
X104891758Y-90552372D02*
X104915568Y-90599991D01*
X104915568Y-90599991D02*
X104915568Y-90647610D01*
X104915568Y-90647610D02*
X104891758Y-90695229D01*
X104891758Y-90695229D02*
X104867949Y-90719039D01*
X104867949Y-90719039D02*
X104820330Y-90742848D01*
X104820330Y-90742848D02*
X104653663Y-90742848D01*
X105248901Y-90766658D02*
X105248901Y-91004753D01*
X105082235Y-90504753D02*
X105248901Y-90766658D01*
X105248901Y-90766658D02*
X105415568Y-90504753D01*
X105725091Y-90504753D02*
X105725091Y-90861896D01*
X105725091Y-90861896D02*
X105701282Y-90933324D01*
X105701282Y-90933324D02*
X105653663Y-90980944D01*
X105653663Y-90980944D02*
X105582234Y-91004753D01*
X105582234Y-91004753D02*
X105534615Y-91004753D01*
X105963186Y-90814277D02*
X106344139Y-90814277D01*
X106796520Y-90671420D02*
X106796520Y-91004753D01*
X106677472Y-90480944D02*
X106558425Y-90838086D01*
X106558425Y-90838086D02*
X106867948Y-90838086D01*
X107129853Y-90719039D02*
X107082234Y-90695229D01*
X107082234Y-90695229D02*
X107058424Y-90671420D01*
X107058424Y-90671420D02*
X107034615Y-90623801D01*
X107034615Y-90623801D02*
X107034615Y-90599991D01*
X107034615Y-90599991D02*
X107058424Y-90552372D01*
X107058424Y-90552372D02*
X107082234Y-90528563D01*
X107082234Y-90528563D02*
X107129853Y-90504753D01*
X107129853Y-90504753D02*
X107225091Y-90504753D01*
X107225091Y-90504753D02*
X107272710Y-90528563D01*
X107272710Y-90528563D02*
X107296519Y-90552372D01*
X107296519Y-90552372D02*
X107320329Y-90599991D01*
X107320329Y-90599991D02*
X107320329Y-90623801D01*
X107320329Y-90623801D02*
X107296519Y-90671420D01*
X107296519Y-90671420D02*
X107272710Y-90695229D01*
X107272710Y-90695229D02*
X107225091Y-90719039D01*
X107225091Y-90719039D02*
X107129853Y-90719039D01*
X107129853Y-90719039D02*
X107082234Y-90742848D01*
X107082234Y-90742848D02*
X107058424Y-90766658D01*
X107058424Y-90766658D02*
X107034615Y-90814277D01*
X107034615Y-90814277D02*
X107034615Y-90909515D01*
X107034615Y-90909515D02*
X107058424Y-90957134D01*
X107058424Y-90957134D02*
X107082234Y-90980944D01*
X107082234Y-90980944D02*
X107129853Y-91004753D01*
X107129853Y-91004753D02*
X107225091Y-91004753D01*
X107225091Y-91004753D02*
X107272710Y-90980944D01*
X107272710Y-90980944D02*
X107296519Y-90957134D01*
X107296519Y-90957134D02*
X107320329Y-90909515D01*
X107320329Y-90909515D02*
X107320329Y-90814277D01*
X107320329Y-90814277D02*
X107296519Y-90766658D01*
X107296519Y-90766658D02*
X107272710Y-90742848D01*
X107272710Y-90742848D02*
X107225091Y-90719039D01*
X107915566Y-91004753D02*
X107915566Y-90504753D01*
X107915566Y-90504753D02*
X108082233Y-90861896D01*
X108082233Y-90861896D02*
X108248899Y-90504753D01*
X108248899Y-90504753D02*
X108248899Y-91004753D01*
X108582233Y-90504753D02*
X108677471Y-90504753D01*
X108677471Y-90504753D02*
X108725090Y-90528563D01*
X108725090Y-90528563D02*
X108772709Y-90576182D01*
X108772709Y-90576182D02*
X108796519Y-90671420D01*
X108796519Y-90671420D02*
X108796519Y-90838086D01*
X108796519Y-90838086D02*
X108772709Y-90933324D01*
X108772709Y-90933324D02*
X108725090Y-90980944D01*
X108725090Y-90980944D02*
X108677471Y-91004753D01*
X108677471Y-91004753D02*
X108582233Y-91004753D01*
X108582233Y-91004753D02*
X108534614Y-90980944D01*
X108534614Y-90980944D02*
X108486995Y-90933324D01*
X108486995Y-90933324D02*
X108463186Y-90838086D01*
X108463186Y-90838086D02*
X108463186Y-90671420D01*
X108463186Y-90671420D02*
X108486995Y-90576182D01*
X108486995Y-90576182D02*
X108534614Y-90528563D01*
X108534614Y-90528563D02*
X108582233Y-90504753D01*
X108939377Y-90504753D02*
X109225091Y-90504753D01*
X109082234Y-91004753D02*
X109082234Y-90504753D01*
X109486995Y-90504753D02*
X109582233Y-90504753D01*
X109582233Y-90504753D02*
X109629852Y-90528563D01*
X109629852Y-90528563D02*
X109677471Y-90576182D01*
X109677471Y-90576182D02*
X109701281Y-90671420D01*
X109701281Y-90671420D02*
X109701281Y-90838086D01*
X109701281Y-90838086D02*
X109677471Y-90933324D01*
X109677471Y-90933324D02*
X109629852Y-90980944D01*
X109629852Y-90980944D02*
X109582233Y-91004753D01*
X109582233Y-91004753D02*
X109486995Y-91004753D01*
X109486995Y-91004753D02*
X109439376Y-90980944D01*
X109439376Y-90980944D02*
X109391757Y-90933324D01*
X109391757Y-90933324D02*
X109367948Y-90838086D01*
X109367948Y-90838086D02*
X109367948Y-90671420D01*
X109367948Y-90671420D02*
X109391757Y-90576182D01*
X109391757Y-90576182D02*
X109439376Y-90528563D01*
X109439376Y-90528563D02*
X109486995Y-90504753D01*
X110201281Y-91004753D02*
X110034615Y-90766658D01*
X109915567Y-91004753D02*
X109915567Y-90504753D01*
X109915567Y-90504753D02*
X110106043Y-90504753D01*
X110106043Y-90504753D02*
X110153662Y-90528563D01*
X110153662Y-90528563D02*
X110177472Y-90552372D01*
X110177472Y-90552372D02*
X110201281Y-90599991D01*
X110201281Y-90599991D02*
X110201281Y-90671420D01*
X110201281Y-90671420D02*
X110177472Y-90719039D01*
X110177472Y-90719039D02*
X110153662Y-90742848D01*
X110153662Y-90742848D02*
X110106043Y-90766658D01*
X110106043Y-90766658D02*
X109915567Y-90766658D01*
X110796519Y-91004753D02*
X110796519Y-90504753D01*
X110796519Y-90504753D02*
X110915567Y-90504753D01*
X110915567Y-90504753D02*
X110986995Y-90528563D01*
X110986995Y-90528563D02*
X111034614Y-90576182D01*
X111034614Y-90576182D02*
X111058424Y-90623801D01*
X111058424Y-90623801D02*
X111082233Y-90719039D01*
X111082233Y-90719039D02*
X111082233Y-90790467D01*
X111082233Y-90790467D02*
X111058424Y-90885705D01*
X111058424Y-90885705D02*
X111034614Y-90933324D01*
X111034614Y-90933324D02*
X110986995Y-90980944D01*
X110986995Y-90980944D02*
X110915567Y-91004753D01*
X110915567Y-91004753D02*
X110796519Y-91004753D01*
X111582233Y-91004753D02*
X111415567Y-90766658D01*
X111296519Y-91004753D02*
X111296519Y-90504753D01*
X111296519Y-90504753D02*
X111486995Y-90504753D01*
X111486995Y-90504753D02*
X111534614Y-90528563D01*
X111534614Y-90528563D02*
X111558424Y-90552372D01*
X111558424Y-90552372D02*
X111582233Y-90599991D01*
X111582233Y-90599991D02*
X111582233Y-90671420D01*
X111582233Y-90671420D02*
X111558424Y-90719039D01*
X111558424Y-90719039D02*
X111534614Y-90742848D01*
X111534614Y-90742848D02*
X111486995Y-90766658D01*
X111486995Y-90766658D02*
X111296519Y-90766658D01*
X111796519Y-91004753D02*
X111796519Y-90504753D01*
X111963186Y-90504753D02*
X112129852Y-91004753D01*
X112129852Y-91004753D02*
X112296519Y-90504753D01*
X112463185Y-90742848D02*
X112629852Y-90742848D01*
X112701280Y-91004753D02*
X112463185Y-91004753D01*
X112463185Y-91004753D02*
X112463185Y-90504753D01*
X112463185Y-90504753D02*
X112701280Y-90504753D01*
X113201280Y-91004753D02*
X113034614Y-90766658D01*
X112915566Y-91004753D02*
X112915566Y-90504753D01*
X112915566Y-90504753D02*
X113106042Y-90504753D01*
X113106042Y-90504753D02*
X113153661Y-90528563D01*
X113153661Y-90528563D02*
X113177471Y-90552372D01*
X113177471Y-90552372D02*
X113201280Y-90599991D01*
X113201280Y-90599991D02*
X113201280Y-90671420D01*
X113201280Y-90671420D02*
X113177471Y-90719039D01*
X113177471Y-90719039D02*
X113153661Y-90742848D01*
X113153661Y-90742848D02*
X113106042Y-90766658D01*
X113106042Y-90766658D02*
X112915566Y-90766658D01*
X162234373Y-76039834D02*
X162329611Y-76039834D01*
X162329611Y-76039834D02*
X162377230Y-76063644D01*
X162377230Y-76063644D02*
X162424849Y-76111263D01*
X162424849Y-76111263D02*
X162448659Y-76206501D01*
X162448659Y-76206501D02*
X162448659Y-76373167D01*
X162448659Y-76373167D02*
X162424849Y-76468405D01*
X162424849Y-76468405D02*
X162377230Y-76516025D01*
X162377230Y-76516025D02*
X162329611Y-76539834D01*
X162329611Y-76539834D02*
X162234373Y-76539834D01*
X162234373Y-76539834D02*
X162186754Y-76516025D01*
X162186754Y-76516025D02*
X162139135Y-76468405D01*
X162139135Y-76468405D02*
X162115326Y-76373167D01*
X162115326Y-76373167D02*
X162115326Y-76206501D01*
X162115326Y-76206501D02*
X162139135Y-76111263D01*
X162139135Y-76111263D02*
X162186754Y-76063644D01*
X162186754Y-76063644D02*
X162234373Y-76039834D01*
X162662945Y-76039834D02*
X162662945Y-76444596D01*
X162662945Y-76444596D02*
X162686755Y-76492215D01*
X162686755Y-76492215D02*
X162710564Y-76516025D01*
X162710564Y-76516025D02*
X162758183Y-76539834D01*
X162758183Y-76539834D02*
X162853421Y-76539834D01*
X162853421Y-76539834D02*
X162901040Y-76516025D01*
X162901040Y-76516025D02*
X162924850Y-76492215D01*
X162924850Y-76492215D02*
X162948659Y-76444596D01*
X162948659Y-76444596D02*
X162948659Y-76039834D01*
X163115327Y-76039834D02*
X163401041Y-76039834D01*
X163258184Y-76539834D02*
X163258184Y-76039834D01*
X163520088Y-76039834D02*
X163829612Y-76039834D01*
X163829612Y-76039834D02*
X163662945Y-76230310D01*
X163662945Y-76230310D02*
X163734374Y-76230310D01*
X163734374Y-76230310D02*
X163781993Y-76254120D01*
X163781993Y-76254120D02*
X163805802Y-76277929D01*
X163805802Y-76277929D02*
X163829612Y-76325548D01*
X163829612Y-76325548D02*
X163829612Y-76444596D01*
X163829612Y-76444596D02*
X163805802Y-76492215D01*
X163805802Y-76492215D02*
X163781993Y-76516025D01*
X163781993Y-76516025D02*
X163734374Y-76539834D01*
X163734374Y-76539834D02*
X163591517Y-76539834D01*
X163591517Y-76539834D02*
X163543898Y-76516025D01*
X163543898Y-76516025D02*
X163520088Y-76492215D01*
X157939377Y-75996421D02*
X157701282Y-75996421D01*
X157701282Y-75996421D02*
X157677473Y-76234516D01*
X157677473Y-76234516D02*
X157701282Y-76210707D01*
X157701282Y-76210707D02*
X157748901Y-76186897D01*
X157748901Y-76186897D02*
X157867949Y-76186897D01*
X157867949Y-76186897D02*
X157915568Y-76210707D01*
X157915568Y-76210707D02*
X157939377Y-76234516D01*
X157939377Y-76234516D02*
X157963187Y-76282135D01*
X157963187Y-76282135D02*
X157963187Y-76401183D01*
X157963187Y-76401183D02*
X157939377Y-76448802D01*
X157939377Y-76448802D02*
X157915568Y-76472612D01*
X157915568Y-76472612D02*
X157867949Y-76496421D01*
X157867949Y-76496421D02*
X157748901Y-76496421D01*
X157748901Y-76496421D02*
X157701282Y-76472612D01*
X157701282Y-76472612D02*
X157677473Y-76448802D01*
X158106044Y-75996421D02*
X158272710Y-76496421D01*
X158272710Y-76496421D02*
X158439377Y-75996421D01*
D11*
X144194783Y-97684178D02*
X144123355Y-97648464D01*
X144123355Y-97648464D02*
X144016212Y-97648464D01*
X144016212Y-97648464D02*
X143909069Y-97684178D01*
X143909069Y-97684178D02*
X143837640Y-97755607D01*
X143837640Y-97755607D02*
X143801926Y-97827035D01*
X143801926Y-97827035D02*
X143766212Y-97969892D01*
X143766212Y-97969892D02*
X143766212Y-98077035D01*
X143766212Y-98077035D02*
X143801926Y-98219892D01*
X143801926Y-98219892D02*
X143837640Y-98291321D01*
X143837640Y-98291321D02*
X143909069Y-98362750D01*
X143909069Y-98362750D02*
X144016212Y-98398464D01*
X144016212Y-98398464D02*
X144087640Y-98398464D01*
X144087640Y-98398464D02*
X144194783Y-98362750D01*
X144194783Y-98362750D02*
X144230497Y-98327035D01*
X144230497Y-98327035D02*
X144230497Y-98077035D01*
X144230497Y-98077035D02*
X144087640Y-98077035D01*
X144551926Y-98398464D02*
X144551926Y-97648464D01*
X144551926Y-97648464D02*
X144980497Y-98398464D01*
X144980497Y-98398464D02*
X144980497Y-97648464D01*
X145337640Y-98398464D02*
X145337640Y-97648464D01*
X145337640Y-97648464D02*
X145516211Y-97648464D01*
X145516211Y-97648464D02*
X145623354Y-97684178D01*
X145623354Y-97684178D02*
X145694783Y-97755607D01*
X145694783Y-97755607D02*
X145730497Y-97827035D01*
X145730497Y-97827035D02*
X145766211Y-97969892D01*
X145766211Y-97969892D02*
X145766211Y-98077035D01*
X145766211Y-98077035D02*
X145730497Y-98219892D01*
X145730497Y-98219892D02*
X145694783Y-98291321D01*
X145694783Y-98291321D02*
X145623354Y-98362750D01*
X145623354Y-98362750D02*
X145516211Y-98398464D01*
X145516211Y-98398464D02*
X145337640Y-98398464D01*
D10*
X159814130Y-76011043D02*
X159909368Y-76011043D01*
X159909368Y-76011043D02*
X159956987Y-76034853D01*
X159956987Y-76034853D02*
X160004606Y-76082472D01*
X160004606Y-76082472D02*
X160028416Y-76177710D01*
X160028416Y-76177710D02*
X160028416Y-76344376D01*
X160028416Y-76344376D02*
X160004606Y-76439614D01*
X160004606Y-76439614D02*
X159956987Y-76487234D01*
X159956987Y-76487234D02*
X159909368Y-76511043D01*
X159909368Y-76511043D02*
X159814130Y-76511043D01*
X159814130Y-76511043D02*
X159766511Y-76487234D01*
X159766511Y-76487234D02*
X159718892Y-76439614D01*
X159718892Y-76439614D02*
X159695083Y-76344376D01*
X159695083Y-76344376D02*
X159695083Y-76177710D01*
X159695083Y-76177710D02*
X159718892Y-76082472D01*
X159718892Y-76082472D02*
X159766511Y-76034853D01*
X159766511Y-76034853D02*
X159814130Y-76011043D01*
X160242702Y-76011043D02*
X160242702Y-76415805D01*
X160242702Y-76415805D02*
X160266512Y-76463424D01*
X160266512Y-76463424D02*
X160290321Y-76487234D01*
X160290321Y-76487234D02*
X160337940Y-76511043D01*
X160337940Y-76511043D02*
X160433178Y-76511043D01*
X160433178Y-76511043D02*
X160480797Y-76487234D01*
X160480797Y-76487234D02*
X160504607Y-76463424D01*
X160504607Y-76463424D02*
X160528416Y-76415805D01*
X160528416Y-76415805D02*
X160528416Y-76011043D01*
X160695084Y-76011043D02*
X160980798Y-76011043D01*
X160837941Y-76511043D02*
X160837941Y-76011043D01*
X161361750Y-76177710D02*
X161361750Y-76511043D01*
X161242702Y-75987234D02*
X161123655Y-76344376D01*
X161123655Y-76344376D02*
X161433178Y-76344376D01*
D12*
X169576667Y-76804318D02*
X169576667Y-77711461D01*
X169576667Y-77711461D02*
X169516190Y-77892889D01*
X169516190Y-77892889D02*
X169395238Y-78013842D01*
X169395238Y-78013842D02*
X169213809Y-78074318D01*
X169213809Y-78074318D02*
X169092857Y-78074318D01*
X170120952Y-76925270D02*
X170181428Y-76864794D01*
X170181428Y-76864794D02*
X170302381Y-76804318D01*
X170302381Y-76804318D02*
X170604762Y-76804318D01*
X170604762Y-76804318D02*
X170725714Y-76864794D01*
X170725714Y-76864794D02*
X170786190Y-76925270D01*
X170786190Y-76925270D02*
X170846667Y-77046222D01*
X170846667Y-77046222D02*
X170846667Y-77167175D01*
X170846667Y-77167175D02*
X170786190Y-77348603D01*
X170786190Y-77348603D02*
X170060476Y-78074318D01*
X170060476Y-78074318D02*
X170846667Y-78074318D01*
D13*
X140368333Y-98954819D02*
X140035000Y-98478628D01*
X139796905Y-98954819D02*
X139796905Y-97954819D01*
X139796905Y-97954819D02*
X140177857Y-97954819D01*
X140177857Y-97954819D02*
X140273095Y-98002438D01*
X140273095Y-98002438D02*
X140320714Y-98050057D01*
X140320714Y-98050057D02*
X140368333Y-98145295D01*
X140368333Y-98145295D02*
X140368333Y-98288152D01*
X140368333Y-98288152D02*
X140320714Y-98383390D01*
X140320714Y-98383390D02*
X140273095Y-98431009D01*
X140273095Y-98431009D02*
X140177857Y-98478628D01*
X140177857Y-98478628D02*
X139796905Y-98478628D01*
X141225476Y-98288152D02*
X141225476Y-98954819D01*
X140987381Y-97907200D02*
X140749286Y-98621485D01*
X140749286Y-98621485D02*
X141368333Y-98621485D01*
X130185950Y-96249999D02*
X130221664Y-96142857D01*
X130221664Y-96142857D02*
X130221664Y-95964285D01*
X130221664Y-95964285D02*
X130185950Y-95892857D01*
X130185950Y-95892857D02*
X130150235Y-95857142D01*
X130150235Y-95857142D02*
X130078807Y-95821428D01*
X130078807Y-95821428D02*
X130007378Y-95821428D01*
X130007378Y-95821428D02*
X129935950Y-95857142D01*
X129935950Y-95857142D02*
X129900235Y-95892857D01*
X129900235Y-95892857D02*
X129864521Y-95964285D01*
X129864521Y-95964285D02*
X129828807Y-96107142D01*
X129828807Y-96107142D02*
X129793092Y-96178571D01*
X129793092Y-96178571D02*
X129757378Y-96214285D01*
X129757378Y-96214285D02*
X129685950Y-96249999D01*
X129685950Y-96249999D02*
X129614521Y-96249999D01*
X129614521Y-96249999D02*
X129543092Y-96214285D01*
X129543092Y-96214285D02*
X129507378Y-96178571D01*
X129507378Y-96178571D02*
X129471664Y-96107142D01*
X129471664Y-96107142D02*
X129471664Y-95928571D01*
X129471664Y-95928571D02*
X129507378Y-95821428D01*
X129471664Y-95571428D02*
X130221664Y-95392856D01*
X130221664Y-95392856D02*
X129685950Y-95249999D01*
X129685950Y-95249999D02*
X130221664Y-95107142D01*
X130221664Y-95107142D02*
X129471664Y-94928571D01*
X129471664Y-94714285D02*
X129471664Y-94249999D01*
X129471664Y-94249999D02*
X129757378Y-94499999D01*
X129757378Y-94499999D02*
X129757378Y-94392856D01*
X129757378Y-94392856D02*
X129793092Y-94321428D01*
X129793092Y-94321428D02*
X129828807Y-94285713D01*
X129828807Y-94285713D02*
X129900235Y-94249999D01*
X129900235Y-94249999D02*
X130078807Y-94249999D01*
X130078807Y-94249999D02*
X130150235Y-94285713D01*
X130150235Y-94285713D02*
X130185950Y-94321428D01*
X130185950Y-94321428D02*
X130221664Y-94392856D01*
X130221664Y-94392856D02*
X130221664Y-94607142D01*
X130221664Y-94607142D02*
X130185950Y-94678570D01*
X130185950Y-94678570D02*
X130150235Y-94714285D01*
D12*
X156076667Y-92804318D02*
X156076667Y-93711461D01*
X156076667Y-93711461D02*
X156016190Y-93892889D01*
X156016190Y-93892889D02*
X155895238Y-94013842D01*
X155895238Y-94013842D02*
X155713809Y-94074318D01*
X155713809Y-94074318D02*
X155592857Y-94074318D01*
X157225714Y-93227651D02*
X157225714Y-94074318D01*
X156923333Y-92743842D02*
X156620952Y-93650984D01*
X156620952Y-93650984D02*
X157407143Y-93650984D01*
D13*
X130398333Y-91704819D02*
X130065000Y-91228628D01*
X129826905Y-91704819D02*
X129826905Y-90704819D01*
X129826905Y-90704819D02*
X130207857Y-90704819D01*
X130207857Y-90704819D02*
X130303095Y-90752438D01*
X130303095Y-90752438D02*
X130350714Y-90800057D01*
X130350714Y-90800057D02*
X130398333Y-90895295D01*
X130398333Y-90895295D02*
X130398333Y-91038152D01*
X130398333Y-91038152D02*
X130350714Y-91133390D01*
X130350714Y-91133390D02*
X130303095Y-91181009D01*
X130303095Y-91181009D02*
X130207857Y-91228628D01*
X130207857Y-91228628D02*
X129826905Y-91228628D01*
X130731667Y-90704819D02*
X131398333Y-90704819D01*
X131398333Y-90704819D02*
X130969762Y-91704819D01*
X137878333Y-98954819D02*
X137545000Y-98478628D01*
X137306905Y-98954819D02*
X137306905Y-97954819D01*
X137306905Y-97954819D02*
X137687857Y-97954819D01*
X137687857Y-97954819D02*
X137783095Y-98002438D01*
X137783095Y-98002438D02*
X137830714Y-98050057D01*
X137830714Y-98050057D02*
X137878333Y-98145295D01*
X137878333Y-98145295D02*
X137878333Y-98288152D01*
X137878333Y-98288152D02*
X137830714Y-98383390D01*
X137830714Y-98383390D02*
X137783095Y-98431009D01*
X137783095Y-98431009D02*
X137687857Y-98478628D01*
X137687857Y-98478628D02*
X137306905Y-98478628D01*
X138211667Y-97954819D02*
X138830714Y-97954819D01*
X138830714Y-97954819D02*
X138497381Y-98335771D01*
X138497381Y-98335771D02*
X138640238Y-98335771D01*
X138640238Y-98335771D02*
X138735476Y-98383390D01*
X138735476Y-98383390D02*
X138783095Y-98431009D01*
X138783095Y-98431009D02*
X138830714Y-98526247D01*
X138830714Y-98526247D02*
X138830714Y-98764342D01*
X138830714Y-98764342D02*
X138783095Y-98859580D01*
X138783095Y-98859580D02*
X138735476Y-98907200D01*
X138735476Y-98907200D02*
X138640238Y-98954819D01*
X138640238Y-98954819D02*
X138354524Y-98954819D01*
X138354524Y-98954819D02*
X138259286Y-98907200D01*
X138259286Y-98907200D02*
X138211667Y-98859580D01*
X156002595Y-88057194D02*
X156002595Y-88866717D01*
X156002595Y-88866717D02*
X156050214Y-88961955D01*
X156050214Y-88961955D02*
X156097833Y-89009575D01*
X156097833Y-89009575D02*
X156193071Y-89057194D01*
X156193071Y-89057194D02*
X156383547Y-89057194D01*
X156383547Y-89057194D02*
X156478785Y-89009575D01*
X156478785Y-89009575D02*
X156526404Y-88961955D01*
X156526404Y-88961955D02*
X156574023Y-88866717D01*
X156574023Y-88866717D02*
X156574023Y-88057194D01*
X157002595Y-88152432D02*
X157050214Y-88104813D01*
X157050214Y-88104813D02*
X157145452Y-88057194D01*
X157145452Y-88057194D02*
X157383547Y-88057194D01*
X157383547Y-88057194D02*
X157478785Y-88104813D01*
X157478785Y-88104813D02*
X157526404Y-88152432D01*
X157526404Y-88152432D02*
X157574023Y-88247670D01*
X157574023Y-88247670D02*
X157574023Y-88342908D01*
X157574023Y-88342908D02*
X157526404Y-88485765D01*
X157526404Y-88485765D02*
X156954976Y-89057194D01*
X156954976Y-89057194D02*
X157574023Y-89057194D01*
X124068739Y-91798612D02*
X123735406Y-91322421D01*
X123497311Y-91798612D02*
X123497311Y-90798612D01*
X123497311Y-90798612D02*
X123878263Y-90798612D01*
X123878263Y-90798612D02*
X123973501Y-90846231D01*
X123973501Y-90846231D02*
X124021120Y-90893850D01*
X124021120Y-90893850D02*
X124068739Y-90989088D01*
X124068739Y-90989088D02*
X124068739Y-91131945D01*
X124068739Y-91131945D02*
X124021120Y-91227183D01*
X124021120Y-91227183D02*
X123973501Y-91274802D01*
X123973501Y-91274802D02*
X123878263Y-91322421D01*
X123878263Y-91322421D02*
X123497311Y-91322421D01*
X124925882Y-90798612D02*
X124735406Y-90798612D01*
X124735406Y-90798612D02*
X124640168Y-90846231D01*
X124640168Y-90846231D02*
X124592549Y-90893850D01*
X124592549Y-90893850D02*
X124497311Y-91036707D01*
X124497311Y-91036707D02*
X124449692Y-91227183D01*
X124449692Y-91227183D02*
X124449692Y-91608135D01*
X124449692Y-91608135D02*
X124497311Y-91703373D01*
X124497311Y-91703373D02*
X124544930Y-91750993D01*
X124544930Y-91750993D02*
X124640168Y-91798612D01*
X124640168Y-91798612D02*
X124830644Y-91798612D01*
X124830644Y-91798612D02*
X124925882Y-91750993D01*
X124925882Y-91750993D02*
X124973501Y-91703373D01*
X124973501Y-91703373D02*
X125021120Y-91608135D01*
X125021120Y-91608135D02*
X125021120Y-91370040D01*
X125021120Y-91370040D02*
X124973501Y-91274802D01*
X124973501Y-91274802D02*
X124925882Y-91227183D01*
X124925882Y-91227183D02*
X124830644Y-91179564D01*
X124830644Y-91179564D02*
X124640168Y-91179564D01*
X124640168Y-91179564D02*
X124544930Y-91227183D01*
X124544930Y-91227183D02*
X124497311Y-91274802D01*
X124497311Y-91274802D02*
X124449692Y-91370040D01*
X117735293Y-91812813D02*
X117401960Y-91336622D01*
X117163865Y-91812813D02*
X117163865Y-90812813D01*
X117163865Y-90812813D02*
X117544817Y-90812813D01*
X117544817Y-90812813D02*
X117640055Y-90860432D01*
X117640055Y-90860432D02*
X117687674Y-90908051D01*
X117687674Y-90908051D02*
X117735293Y-91003289D01*
X117735293Y-91003289D02*
X117735293Y-91146146D01*
X117735293Y-91146146D02*
X117687674Y-91241384D01*
X117687674Y-91241384D02*
X117640055Y-91289003D01*
X117640055Y-91289003D02*
X117544817Y-91336622D01*
X117544817Y-91336622D02*
X117163865Y-91336622D01*
X118640055Y-90812813D02*
X118163865Y-90812813D01*
X118163865Y-90812813D02*
X118116246Y-91289003D01*
X118116246Y-91289003D02*
X118163865Y-91241384D01*
X118163865Y-91241384D02*
X118259103Y-91193765D01*
X118259103Y-91193765D02*
X118497198Y-91193765D01*
X118497198Y-91193765D02*
X118592436Y-91241384D01*
X118592436Y-91241384D02*
X118640055Y-91289003D01*
X118640055Y-91289003D02*
X118687674Y-91384241D01*
X118687674Y-91384241D02*
X118687674Y-91622336D01*
X118687674Y-91622336D02*
X118640055Y-91717574D01*
X118640055Y-91717574D02*
X118592436Y-91765194D01*
X118592436Y-91765194D02*
X118497198Y-91812813D01*
X118497198Y-91812813D02*
X118259103Y-91812813D01*
X118259103Y-91812813D02*
X118163865Y-91765194D01*
X118163865Y-91765194D02*
X118116246Y-91717574D01*
X117120950Y-96314999D02*
X117156664Y-96207857D01*
X117156664Y-96207857D02*
X117156664Y-96029285D01*
X117156664Y-96029285D02*
X117120950Y-95957857D01*
X117120950Y-95957857D02*
X117085235Y-95922142D01*
X117085235Y-95922142D02*
X117013807Y-95886428D01*
X117013807Y-95886428D02*
X116942378Y-95886428D01*
X116942378Y-95886428D02*
X116870950Y-95922142D01*
X116870950Y-95922142D02*
X116835235Y-95957857D01*
X116835235Y-95957857D02*
X116799521Y-96029285D01*
X116799521Y-96029285D02*
X116763807Y-96172142D01*
X116763807Y-96172142D02*
X116728092Y-96243571D01*
X116728092Y-96243571D02*
X116692378Y-96279285D01*
X116692378Y-96279285D02*
X116620950Y-96314999D01*
X116620950Y-96314999D02*
X116549521Y-96314999D01*
X116549521Y-96314999D02*
X116478092Y-96279285D01*
X116478092Y-96279285D02*
X116442378Y-96243571D01*
X116442378Y-96243571D02*
X116406664Y-96172142D01*
X116406664Y-96172142D02*
X116406664Y-95993571D01*
X116406664Y-95993571D02*
X116442378Y-95886428D01*
X116406664Y-95636428D02*
X117156664Y-95457856D01*
X117156664Y-95457856D02*
X116620950Y-95314999D01*
X116620950Y-95314999D02*
X117156664Y-95172142D01*
X117156664Y-95172142D02*
X116406664Y-94993571D01*
X117156664Y-94314999D02*
X117156664Y-94743570D01*
X117156664Y-94529285D02*
X116406664Y-94529285D01*
X116406664Y-94529285D02*
X116513807Y-94600713D01*
X116513807Y-94600713D02*
X116585235Y-94672142D01*
X116585235Y-94672142D02*
X116620950Y-94743570D01*
X135388333Y-98954819D02*
X135055000Y-98478628D01*
X134816905Y-98954819D02*
X134816905Y-97954819D01*
X134816905Y-97954819D02*
X135197857Y-97954819D01*
X135197857Y-97954819D02*
X135293095Y-98002438D01*
X135293095Y-98002438D02*
X135340714Y-98050057D01*
X135340714Y-98050057D02*
X135388333Y-98145295D01*
X135388333Y-98145295D02*
X135388333Y-98288152D01*
X135388333Y-98288152D02*
X135340714Y-98383390D01*
X135340714Y-98383390D02*
X135293095Y-98431009D01*
X135293095Y-98431009D02*
X135197857Y-98478628D01*
X135197857Y-98478628D02*
X134816905Y-98478628D01*
X135769286Y-98050057D02*
X135816905Y-98002438D01*
X135816905Y-98002438D02*
X135912143Y-97954819D01*
X135912143Y-97954819D02*
X136150238Y-97954819D01*
X136150238Y-97954819D02*
X136245476Y-98002438D01*
X136245476Y-98002438D02*
X136293095Y-98050057D01*
X136293095Y-98050057D02*
X136340714Y-98145295D01*
X136340714Y-98145295D02*
X136340714Y-98240533D01*
X136340714Y-98240533D02*
X136293095Y-98383390D01*
X136293095Y-98383390D02*
X135721667Y-98954819D01*
X135721667Y-98954819D02*
X136340714Y-98954819D01*
X102954819Y-72261904D02*
X103764342Y-72261904D01*
X103764342Y-72261904D02*
X103859580Y-72214285D01*
X103859580Y-72214285D02*
X103907200Y-72166666D01*
X103907200Y-72166666D02*
X103954819Y-72071428D01*
X103954819Y-72071428D02*
X103954819Y-71880952D01*
X103954819Y-71880952D02*
X103907200Y-71785714D01*
X103907200Y-71785714D02*
X103859580Y-71738095D01*
X103859580Y-71738095D02*
X103764342Y-71690476D01*
X103764342Y-71690476D02*
X102954819Y-71690476D01*
X103954819Y-70690476D02*
X103954819Y-71261904D01*
X103954819Y-70976190D02*
X102954819Y-70976190D01*
X102954819Y-70976190D02*
X103097676Y-71071428D01*
X103097676Y-71071428D02*
X103192914Y-71166666D01*
X103192914Y-71166666D02*
X103240533Y-71261904D01*
X146666666Y-90954819D02*
X146666666Y-91669104D01*
X146666666Y-91669104D02*
X146619047Y-91811961D01*
X146619047Y-91811961D02*
X146523809Y-91907200D01*
X146523809Y-91907200D02*
X146380952Y-91954819D01*
X146380952Y-91954819D02*
X146285714Y-91954819D01*
X147666666Y-91954819D02*
X147095238Y-91954819D01*
X147380952Y-91954819D02*
X147380952Y-90954819D01*
X147380952Y-90954819D02*
X147285714Y-91097676D01*
X147285714Y-91097676D02*
X147190476Y-91192914D01*
X147190476Y-91192914D02*
X147095238Y-91240533D01*
X137326905Y-90954819D02*
X137326905Y-89954819D01*
X137326905Y-89954819D02*
X137565000Y-89954819D01*
X137565000Y-89954819D02*
X137707857Y-90002438D01*
X137707857Y-90002438D02*
X137803095Y-90097676D01*
X137803095Y-90097676D02*
X137850714Y-90192914D01*
X137850714Y-90192914D02*
X137898333Y-90383390D01*
X137898333Y-90383390D02*
X137898333Y-90526247D01*
X137898333Y-90526247D02*
X137850714Y-90716723D01*
X137850714Y-90716723D02*
X137803095Y-90811961D01*
X137803095Y-90811961D02*
X137707857Y-90907200D01*
X137707857Y-90907200D02*
X137565000Y-90954819D01*
X137565000Y-90954819D02*
X137326905Y-90954819D01*
X138231667Y-89954819D02*
X138850714Y-89954819D01*
X138850714Y-89954819D02*
X138517381Y-90335771D01*
X138517381Y-90335771D02*
X138660238Y-90335771D01*
X138660238Y-90335771D02*
X138755476Y-90383390D01*
X138755476Y-90383390D02*
X138803095Y-90431009D01*
X138803095Y-90431009D02*
X138850714Y-90526247D01*
X138850714Y-90526247D02*
X138850714Y-90764342D01*
X138850714Y-90764342D02*
X138803095Y-90859580D01*
X138803095Y-90859580D02*
X138755476Y-90907200D01*
X138755476Y-90907200D02*
X138660238Y-90954819D01*
X138660238Y-90954819D02*
X138374524Y-90954819D01*
X138374524Y-90954819D02*
X138279286Y-90907200D01*
X138279286Y-90907200D02*
X138231667Y-90859580D01*
X123685950Y-96249999D02*
X123721664Y-96142857D01*
X123721664Y-96142857D02*
X123721664Y-95964285D01*
X123721664Y-95964285D02*
X123685950Y-95892857D01*
X123685950Y-95892857D02*
X123650235Y-95857142D01*
X123650235Y-95857142D02*
X123578807Y-95821428D01*
X123578807Y-95821428D02*
X123507378Y-95821428D01*
X123507378Y-95821428D02*
X123435950Y-95857142D01*
X123435950Y-95857142D02*
X123400235Y-95892857D01*
X123400235Y-95892857D02*
X123364521Y-95964285D01*
X123364521Y-95964285D02*
X123328807Y-96107142D01*
X123328807Y-96107142D02*
X123293092Y-96178571D01*
X123293092Y-96178571D02*
X123257378Y-96214285D01*
X123257378Y-96214285D02*
X123185950Y-96249999D01*
X123185950Y-96249999D02*
X123114521Y-96249999D01*
X123114521Y-96249999D02*
X123043092Y-96214285D01*
X123043092Y-96214285D02*
X123007378Y-96178571D01*
X123007378Y-96178571D02*
X122971664Y-96107142D01*
X122971664Y-96107142D02*
X122971664Y-95928571D01*
X122971664Y-95928571D02*
X123007378Y-95821428D01*
X122971664Y-95571428D02*
X123721664Y-95392856D01*
X123721664Y-95392856D02*
X123185950Y-95249999D01*
X123185950Y-95249999D02*
X123721664Y-95107142D01*
X123721664Y-95107142D02*
X122971664Y-94928571D01*
X123043092Y-94678570D02*
X123007378Y-94642856D01*
X123007378Y-94642856D02*
X122971664Y-94571428D01*
X122971664Y-94571428D02*
X122971664Y-94392856D01*
X122971664Y-94392856D02*
X123007378Y-94321428D01*
X123007378Y-94321428D02*
X123043092Y-94285713D01*
X123043092Y-94285713D02*
X123114521Y-94249999D01*
X123114521Y-94249999D02*
X123185950Y-94249999D01*
X123185950Y-94249999D02*
X123293092Y-94285713D01*
X123293092Y-94285713D02*
X123721664Y-94714285D01*
X123721664Y-94714285D02*
X123721664Y-94249999D01*
X166859580Y-86166666D02*
X166907200Y-86214285D01*
X166907200Y-86214285D02*
X166954819Y-86357142D01*
X166954819Y-86357142D02*
X166954819Y-86452380D01*
X166954819Y-86452380D02*
X166907200Y-86595237D01*
X166907200Y-86595237D02*
X166811961Y-86690475D01*
X166811961Y-86690475D02*
X166716723Y-86738094D01*
X166716723Y-86738094D02*
X166526247Y-86785713D01*
X166526247Y-86785713D02*
X166383390Y-86785713D01*
X166383390Y-86785713D02*
X166192914Y-86738094D01*
X166192914Y-86738094D02*
X166097676Y-86690475D01*
X166097676Y-86690475D02*
X166002438Y-86595237D01*
X166002438Y-86595237D02*
X165954819Y-86452380D01*
X165954819Y-86452380D02*
X165954819Y-86357142D01*
X165954819Y-86357142D02*
X166002438Y-86214285D01*
X166002438Y-86214285D02*
X166050057Y-86166666D01*
X166954819Y-85214285D02*
X166954819Y-85785713D01*
X166954819Y-85499999D02*
X165954819Y-85499999D01*
X165954819Y-85499999D02*
X166097676Y-85595237D01*
X166097676Y-85595237D02*
X166192914Y-85690475D01*
X166192914Y-85690475D02*
X166240533Y-85785713D01*
X132326905Y-90954819D02*
X132326905Y-89954819D01*
X132326905Y-89954819D02*
X132565000Y-89954819D01*
X132565000Y-89954819D02*
X132707857Y-90002438D01*
X132707857Y-90002438D02*
X132803095Y-90097676D01*
X132803095Y-90097676D02*
X132850714Y-90192914D01*
X132850714Y-90192914D02*
X132898333Y-90383390D01*
X132898333Y-90383390D02*
X132898333Y-90526247D01*
X132898333Y-90526247D02*
X132850714Y-90716723D01*
X132850714Y-90716723D02*
X132803095Y-90811961D01*
X132803095Y-90811961D02*
X132707857Y-90907200D01*
X132707857Y-90907200D02*
X132565000Y-90954819D01*
X132565000Y-90954819D02*
X132326905Y-90954819D01*
X133850714Y-90954819D02*
X133279286Y-90954819D01*
X133565000Y-90954819D02*
X133565000Y-89954819D01*
X133565000Y-89954819D02*
X133469762Y-90097676D01*
X133469762Y-90097676D02*
X133374524Y-90192914D01*
X133374524Y-90192914D02*
X133279286Y-90240533D01*
X132898333Y-98954819D02*
X132565000Y-98478628D01*
X132326905Y-98954819D02*
X132326905Y-97954819D01*
X132326905Y-97954819D02*
X132707857Y-97954819D01*
X132707857Y-97954819D02*
X132803095Y-98002438D01*
X132803095Y-98002438D02*
X132850714Y-98050057D01*
X132850714Y-98050057D02*
X132898333Y-98145295D01*
X132898333Y-98145295D02*
X132898333Y-98288152D01*
X132898333Y-98288152D02*
X132850714Y-98383390D01*
X132850714Y-98383390D02*
X132803095Y-98431009D01*
X132803095Y-98431009D02*
X132707857Y-98478628D01*
X132707857Y-98478628D02*
X132326905Y-98478628D01*
X133850714Y-98954819D02*
X133279286Y-98954819D01*
X133565000Y-98954819D02*
X133565000Y-97954819D01*
X133565000Y-97954819D02*
X133469762Y-98097676D01*
X133469762Y-98097676D02*
X133374524Y-98192914D01*
X133374524Y-98192914D02*
X133279286Y-98240533D01*
X134826905Y-90954819D02*
X134826905Y-89954819D01*
X134826905Y-89954819D02*
X135065000Y-89954819D01*
X135065000Y-89954819D02*
X135207857Y-90002438D01*
X135207857Y-90002438D02*
X135303095Y-90097676D01*
X135303095Y-90097676D02*
X135350714Y-90192914D01*
X135350714Y-90192914D02*
X135398333Y-90383390D01*
X135398333Y-90383390D02*
X135398333Y-90526247D01*
X135398333Y-90526247D02*
X135350714Y-90716723D01*
X135350714Y-90716723D02*
X135303095Y-90811961D01*
X135303095Y-90811961D02*
X135207857Y-90907200D01*
X135207857Y-90907200D02*
X135065000Y-90954819D01*
X135065000Y-90954819D02*
X134826905Y-90954819D01*
X135779286Y-90050057D02*
X135826905Y-90002438D01*
X135826905Y-90002438D02*
X135922143Y-89954819D01*
X135922143Y-89954819D02*
X136160238Y-89954819D01*
X136160238Y-89954819D02*
X136255476Y-90002438D01*
X136255476Y-90002438D02*
X136303095Y-90050057D01*
X136303095Y-90050057D02*
X136350714Y-90145295D01*
X136350714Y-90145295D02*
X136350714Y-90240533D01*
X136350714Y-90240533D02*
X136303095Y-90383390D01*
X136303095Y-90383390D02*
X135731667Y-90954819D01*
X135731667Y-90954819D02*
X136350714Y-90954819D01*
X139826905Y-90954819D02*
X139826905Y-89954819D01*
X139826905Y-89954819D02*
X140065000Y-89954819D01*
X140065000Y-89954819D02*
X140207857Y-90002438D01*
X140207857Y-90002438D02*
X140303095Y-90097676D01*
X140303095Y-90097676D02*
X140350714Y-90192914D01*
X140350714Y-90192914D02*
X140398333Y-90383390D01*
X140398333Y-90383390D02*
X140398333Y-90526247D01*
X140398333Y-90526247D02*
X140350714Y-90716723D01*
X140350714Y-90716723D02*
X140303095Y-90811961D01*
X140303095Y-90811961D02*
X140207857Y-90907200D01*
X140207857Y-90907200D02*
X140065000Y-90954819D01*
X140065000Y-90954819D02*
X139826905Y-90954819D01*
X141255476Y-90288152D02*
X141255476Y-90954819D01*
X141017381Y-89907200D02*
X140779286Y-90621485D01*
X140779286Y-90621485D02*
X141398333Y-90621485D01*
D12*
X164326667Y-93254318D02*
X164326667Y-94161461D01*
X164326667Y-94161461D02*
X164266190Y-94342889D01*
X164266190Y-94342889D02*
X164145238Y-94463842D01*
X164145238Y-94463842D02*
X163963809Y-94524318D01*
X163963809Y-94524318D02*
X163842857Y-94524318D01*
X164810476Y-93254318D02*
X165596667Y-93254318D01*
X165596667Y-93254318D02*
X165173333Y-93738127D01*
X165173333Y-93738127D02*
X165354762Y-93738127D01*
X165354762Y-93738127D02*
X165475714Y-93798603D01*
X165475714Y-93798603D02*
X165536190Y-93859080D01*
X165536190Y-93859080D02*
X165596667Y-93980032D01*
X165596667Y-93980032D02*
X165596667Y-94282413D01*
X165596667Y-94282413D02*
X165536190Y-94403365D01*
X165536190Y-94403365D02*
X165475714Y-94463842D01*
X165475714Y-94463842D02*
X165354762Y-94524318D01*
X165354762Y-94524318D02*
X164991905Y-94524318D01*
X164991905Y-94524318D02*
X164870952Y-94463842D01*
X164870952Y-94463842D02*
X164810476Y-94403365D01*
D14*
X155550000Y-65300000D02*
X155550000Y-76800000D01*
X170450000Y-65300000D02*
X155550000Y-65300000D01*
X170450000Y-74500000D02*
X170450000Y-65300000D01*
D15*
X140042500Y-96562258D02*
X140042500Y-96087742D01*
X141087500Y-96562258D02*
X141087500Y-96087742D01*
D16*
X126024000Y-93224000D02*
X126682000Y-93224000D01*
X126024000Y-97276000D02*
X126024000Y-93224000D01*
X129106000Y-93224000D02*
X128448000Y-93224000D01*
X129106000Y-97276000D02*
X129106000Y-93224000D01*
D12*
X128465000Y-95250000D02*
G75*
G02*
X126665000Y-95250000I-900000J0D01*
G01*
X126665000Y-95250000D02*
G75*
G02*
X128465000Y-95250000I900000J0D01*
G01*
D17*
G36*
X126732500Y-97505000D02*
G01*
X125947500Y-97505000D01*
X125947500Y-97200000D01*
X126732500Y-97200000D01*
X126732500Y-97505000D01*
G37*
G36*
X129182500Y-97505000D02*
G01*
X128397500Y-97505000D01*
X128397500Y-97200000D01*
X129182500Y-97200000D01*
X129182500Y-97505000D01*
G37*
D14*
X147975000Y-94850000D02*
X148500000Y-94850000D01*
X147975000Y-96550000D02*
X147975000Y-94850000D01*
X147975000Y-98950000D02*
X147975000Y-99850000D01*
X147975000Y-99850000D02*
X156000000Y-99850000D01*
D18*
X150700000Y-93750000D02*
X150700000Y-93750000D01*
X150700000Y-93850000D02*
X150700000Y-93850000D01*
D14*
X155600000Y-94850000D02*
X156025000Y-94850000D01*
X156000000Y-99850000D02*
X156000000Y-98950000D01*
X156025000Y-94850000D02*
X156025000Y-96550000D01*
D18*
X150700000Y-93750000D02*
G75*
G02*
X150700000Y-93850000I0J-50000D01*
G01*
X150700000Y-93850000D02*
G75*
G02*
X150700000Y-93750000I0J50000D01*
G01*
D15*
X128477258Y-90727500D02*
X128002742Y-90727500D01*
X128477258Y-91772500D02*
X128002742Y-91772500D01*
X137542500Y-96562258D02*
X137542500Y-96087742D01*
X138587500Y-96562258D02*
X138587500Y-96087742D01*
D16*
X158243000Y-77474000D02*
X161286000Y-77474000D01*
X158243000Y-87526000D02*
X158243000Y-77474000D01*
X161286000Y-77474000D02*
X161286000Y-87526000D01*
X161286000Y-87526000D02*
X158243000Y-87526000D01*
D19*
X157247500Y-77293000D02*
G75*
G02*
X156947500Y-77293000I-150000J0D01*
G01*
X156947500Y-77293000D02*
G75*
G02*
X157247500Y-77293000I150000J0D01*
G01*
X159145500Y-78055000D02*
G75*
G02*
X158845500Y-78055000I-150000J0D01*
G01*
X158845500Y-78055000D02*
G75*
G02*
X159145500Y-78055000I150000J0D01*
G01*
D15*
X122127258Y-90727500D02*
X121652742Y-90727500D01*
X122127258Y-91772500D02*
X121652742Y-91772500D01*
X115797258Y-90792500D02*
X115322742Y-90792500D01*
X115797258Y-91837500D02*
X115322742Y-91837500D01*
D16*
X112959000Y-93289000D02*
X113617000Y-93289000D01*
X112959000Y-97341000D02*
X112959000Y-93289000D01*
X116041000Y-93289000D02*
X115383000Y-93289000D01*
X116041000Y-97341000D02*
X116041000Y-93289000D01*
D12*
X115400000Y-95315000D02*
G75*
G02*
X113600000Y-95315000I-900000J0D01*
G01*
X113600000Y-95315000D02*
G75*
G02*
X115400000Y-95315000I900000J0D01*
G01*
D17*
G36*
X113667500Y-97570000D02*
G01*
X112882500Y-97570000D01*
X112882500Y-97265000D01*
X113667500Y-97265000D01*
X113667500Y-97570000D01*
G37*
G36*
X116117500Y-97570000D02*
G01*
X115332500Y-97570000D01*
X115332500Y-97265000D01*
X116117500Y-97265000D01*
X116117500Y-97570000D01*
G37*
D15*
X135042500Y-96562258D02*
X135042500Y-96087742D01*
X136087500Y-96562258D02*
X136087500Y-96087742D01*
X102470000Y-67000000D02*
X102770000Y-67000000D01*
X102470000Y-88000000D02*
X102470000Y-67000000D01*
X102470000Y-88000000D02*
X102770000Y-88000000D01*
X104870000Y-67000000D02*
X105270000Y-67000000D01*
X104870000Y-88000000D02*
X105270000Y-88000000D01*
X105137000Y-84993000D02*
X102470000Y-84993000D01*
X105137000Y-88000000D02*
X105137000Y-84993000D01*
X107470000Y-67000000D02*
X107870000Y-67000000D01*
X107470000Y-88000000D02*
X107870000Y-88000000D01*
X109970000Y-67000000D02*
X110370000Y-67000000D01*
X109970000Y-88000000D02*
X110370000Y-88000000D01*
X112570000Y-67000000D02*
X112970000Y-67000000D01*
X112570000Y-88000000D02*
X112970000Y-88000000D01*
X115070000Y-67000000D02*
X115470000Y-67000000D01*
X115070000Y-88000000D02*
X115470000Y-88000000D01*
X117570000Y-67000000D02*
X117970000Y-67000000D01*
X117570000Y-88000000D02*
X117970000Y-88000000D01*
X120170000Y-67000000D02*
X120570000Y-67000000D01*
X120170000Y-88000000D02*
X120570000Y-88000000D01*
X122670000Y-67000000D02*
X123070000Y-67000000D01*
X122670000Y-88000000D02*
X123070000Y-88000000D01*
X125270000Y-67000000D02*
X125670000Y-67000000D01*
X125270000Y-88000000D02*
X125670000Y-88000000D01*
X127770000Y-67000000D02*
X128170000Y-67000000D01*
X127770000Y-88000000D02*
X128170000Y-88000000D01*
X130270000Y-67000000D02*
X130670000Y-67000000D01*
X130270000Y-88000000D02*
X130670000Y-88000000D01*
X132870000Y-67000000D02*
X133270000Y-67000000D01*
X132870000Y-88000000D02*
X133270000Y-88000000D01*
X135370000Y-67000000D02*
X135770000Y-67000000D01*
X135370000Y-88000000D02*
X135770000Y-88000000D01*
X137970000Y-67000000D02*
X138370000Y-67000000D01*
X137970000Y-88000000D02*
X138370000Y-88000000D01*
X140470000Y-67000000D02*
X140870000Y-67000000D01*
X140470000Y-88000000D02*
X140870000Y-88000000D01*
X143070000Y-67000000D02*
X143470000Y-67000000D01*
X143070000Y-88000000D02*
X143470000Y-88000000D01*
X145570000Y-67000000D02*
X145970000Y-67000000D01*
X145570000Y-88000000D02*
X145970000Y-88000000D01*
X148070000Y-67000000D02*
X148470000Y-67000000D01*
X148070000Y-88000000D02*
X148470000Y-88000000D01*
X150670000Y-67000000D02*
X151070000Y-67000000D01*
X150670000Y-88000000D02*
X151070000Y-88000000D01*
X153470000Y-67000000D02*
X153470000Y-73800000D01*
X153470000Y-76400000D02*
X153470000Y-76000000D01*
X153470000Y-79000000D02*
X153470000Y-78600000D01*
X153470000Y-81200000D02*
X153470000Y-88000000D01*
X143120000Y-94505000D02*
X143120000Y-91855000D01*
X145880000Y-91855000D02*
X143120000Y-91855000D01*
X145880000Y-94505000D02*
X143120000Y-94505000D01*
X145880000Y-94505000D02*
X145880000Y-91855000D01*
X145880000Y-95775000D02*
X145880000Y-97155000D01*
X145880000Y-97155000D02*
X144500000Y-97155000D01*
X137330000Y-91302500D02*
X137330000Y-93587500D01*
X138800000Y-91302500D02*
X137330000Y-91302500D01*
X138800000Y-93587500D02*
X138800000Y-91302500D01*
D16*
X119524000Y-93224000D02*
X120182000Y-93224000D01*
X119524000Y-97276000D02*
X119524000Y-93224000D01*
X122606000Y-93224000D02*
X121948000Y-93224000D01*
X122606000Y-97276000D02*
X122606000Y-93224000D01*
D12*
X121965000Y-95250000D02*
G75*
G02*
X120165000Y-95250000I-900000J0D01*
G01*
X120165000Y-95250000D02*
G75*
G02*
X121965000Y-95250000I900000J0D01*
G01*
D17*
G36*
X120232500Y-97505000D02*
G01*
X119447500Y-97505000D01*
X119447500Y-97200000D01*
X120232500Y-97200000D01*
X120232500Y-97505000D01*
G37*
G36*
X122682500Y-97505000D02*
G01*
X121897500Y-97505000D01*
X121897500Y-97200000D01*
X122682500Y-97200000D01*
X122682500Y-97505000D01*
G37*
D15*
X164490000Y-85365580D02*
X164490000Y-85084420D01*
X165510000Y-85365580D02*
X165510000Y-85084420D01*
X132330000Y-91302500D02*
X132330000Y-93587500D01*
X133800000Y-91302500D02*
X132330000Y-91302500D01*
X133800000Y-93587500D02*
X133800000Y-91302500D01*
X132542500Y-96562258D02*
X132542500Y-96087742D01*
X133587500Y-96562258D02*
X133587500Y-96087742D01*
X134830000Y-91302500D02*
X134830000Y-93587500D01*
X136300000Y-91302500D02*
X134830000Y-91302500D01*
X136300000Y-93587500D02*
X136300000Y-91302500D01*
X139830000Y-91302500D02*
X139830000Y-93587500D01*
X141300000Y-91302500D02*
X139830000Y-91302500D01*
X141300000Y-93587500D02*
X141300000Y-91302500D01*
D14*
X158550000Y-88200000D02*
X158550000Y-99700000D01*
X158550000Y-99700000D02*
X170950000Y-99700000D01*
X170950000Y-88200000D02*
X158550000Y-88200000D01*
X170950000Y-99700000D02*
X170950000Y-88200000D01*
M02*
